<svg xmlns="http://www.w3.org/2000/svg" width="40" height="33" viewBox="0 0 40 33"><defs><linearGradient id="ah5ca" x1="3.99" x2="36.08" y1=".03" y2="33" gradientUnits="userSpaceOnUse"><stop offset="0" stop-color="#fff"/><stop offset="1" stop-color="#fff"/></linearGradient></defs><g><g><path fill="url(#ah5ca)" d="M40.065 10.488a.719.719 0 0 1-.165.434L20.58 32.755c-.016.019-.045.011-.063.03-.05.047-.093.089-.156.12-.013.008-.016.031-.034.037a.756.756 0 0 1-.292.06.752.752 0 0 1-.29-.06c-.018-.006-.02-.029-.034-.034-.063-.034-.105-.076-.158-.122-.016-.02-.045-.012-.06-.031L.173 10.922a.715.715 0 0 1-.163-.434c0-.016-.016-.028-.016-.042 0-.032.026-.047.029-.078.01-.069-.003-.14.026-.205L4.171.466a.728.728 0 0 1 .669-.44h30.398c.292 0 .555.175.669.44l4.119 9.697c.029.066.016.136.024.205.005.031.031.046.031.078 0 .014-.016.026-.016.042zM15.113 1.47l-3.556 8.256h16.961L24.965 1.47zm-3.546 9.698l8.468 19.307 8.473-19.307zm-9.246 0l15.192 17.171-7.53-17.17zm20.238 17.168l15.193-17.168h-7.66zM34.756 1.47h-8.214l3.553 8.256h8.17zM1.81 9.725h8.173l3.556-8.256h-8.22z"/><path fill="#ff3b4a" d="M40.065 10.488a.719.719 0 0 1-.165.434L20.58 32.755c-.016.019-.045.011-.063.03-.05.047-.093.089-.156.12-.013.008-.016.031-.034.037a.756.756 0 0 1-.292.06.752.752 0 0 1-.29-.06c-.018-.006-.02-.029-.034-.034-.063-.034-.105-.076-.158-.122-.016-.02-.045-.012-.06-.031L.173 10.922a.715.715 0 0 1-.163-.434c0-.016-.016-.028-.016-.042 0-.032.026-.047.029-.078.01-.069-.003-.14.026-.205L4.171.466a.728.728 0 0 1 .669-.44h30.398c.292 0 .555.175.669.44l4.119 9.697c.029.066.016.136.024.205.005.031.031.046.031.078 0 .014-.016.026-.016.042zM15.113 1.47l-3.556 8.256h16.961L24.965 1.47zm-3.546 9.698l8.468 19.307 8.473-19.307zm-9.246 0l15.192 17.171-7.53-17.17zm20.238 17.168l15.193-17.168h-7.66zM34.756 1.47h-8.214l3.553 8.256h8.17zM1.81 9.725h8.173l3.556-8.256h-8.22z"/></g></g></svg>