<!DOCTYPE svg PUBLIC "-//W3C//DTD SVG 20010904//EN" "http://www.w3.org/TR/2001/REC-SVG-20010904/DTD/svg10.dtd">
<svg version="1.0" xmlns="http://www.w3.org/2000/svg" viewBox="0 0 940 940" preserveAspectRatio="xMidYMid meet">
<g id="layer101" fill="#888888" stroke="none">
 <path d="M370 727 c-51 -89 -94 -164 -96 -166 -2 -2 -35 15 -73 38 -38 22 -72 41 -74 41 -7 0 -60 -91 -55 -94 1 -2 33 -22 71 -46 37 -23 67 -46 67 -51 0 -10 -41 9 -102 48 -21 12 -42 23 -48 23 -10 0 -50 -71 -50 -89 0 -5 31 -27 69 -48 l70 -38 -75 -128 c-41 -71 -74 -130 -74 -133 0 -2 28 -4 63 -4 l62 0 105 183 c57 100 134 233 171 296 l67 113 69 -118 c39 -66 102 -174 141 -241 l71 -123 -174 0 -175 0 20 33 c11 17 20 36 20 40 0 4 -28 7 -62 5 l-61 -3 -48 -80 c-27 -44 -48 -86 -49 -92 0 -10 77 -13 355 -13 218 0 355 4 355 10 0 5 -32 64 -71 130 -39 67 -69 123 -67 124 2 2 32 20 68 41 36 21 67 40 69 41 7 6 -44 94 -54 94 -6 0 -19 -6 -30 -13 -57 -38 -114 -66 -119 -58 -3 5 26 28 64 50 39 23 70 47 70 53 0 8 -31 67 -46 87 -2 2 -35 -15 -73 -38 -38 -22 -72 -41 -74 -41 -3 0 -46 72 -97 160 -50 88 -95 162 -100 165 -4 2 -49 -68 -100 -158z"/>
 </g>

</svg>