<?xml version="1.0" standalone="no"?>
  <!DOCTYPE svg PUBLIC "-//W3C//DTD SVG 1.1//EN" "http://www.w3.org/Graphics/SVG/1.1/DTD/svg11.dtd" >
  <svg>
  <metadata>
  Created by font-carrier
  </metadata>
  <defs>
  <font id="OpenSans-Italic" horiz-adv-x="2005" vert-adv-y="2005" >
    <font-face
      
      font-family="Open Sans"
      
      font-weight="400"
      
      font-stretch="normal"
      
      units-per-em="2048"
      
      ascent="2189"
      
      descent="-600"
      
    />
      <missing-glyph />

      

      
      <glyph glyph-name="uni21" unicode="&#x21;" d="M555 1462L281 403L172 403Q221 710 348 1462L555 1462M43 78Q43 154 82.50 198Q122 242 190 242Q235 242 263 214.50Q291 187 291 133Q291 65 252 18Q213-29 147-29Q98-29 70.50-1Q43 27 43 78Z"  horiz-adv-x="530" vert-adv-y="2048"  />

      
      <glyph glyph-name="uni22" unicode="&#x22;" d="M485 1462L332 934L225 934L297 1462L485 1462M834 1462L680 934L573 934L645 1462L834 1462Z"  horiz-adv-x="791" vert-adv-y="2048"  />

      
      <glyph glyph-name="uni23" unicode="&#x23;" d="M1036 899L938 559L1223 559L1210 430L901 430L776 0L637 0L766 430L463 430L336 0L203 0L324 430L63 430L76 559L360 559L461 899L184 899L197 1026L498 1026L621 1462L760 1462L635 1026L940 1026L1067 1462L1200 1462L1075 1026L1339 1026L1327 899L1036 899M500 559L803 559L899 899L596 899L500 559Z"  horiz-adv-x="1323" vert-adv-y="2048"  />

      
      <glyph glyph-name="uni24" unicode="&#x24;" d="M942 492Q942 330 829.50 229Q717 128 520 106L471-119L338-119L387 104Q192 118 72 176L72 330Q154 289 247.50 266.50Q341 244 414 244L512 696Q373 745 310.50 819.50Q248 894 248 1008Q248 1167 356 1263Q464 1359 655 1376L694 1552L827 1552L788 1374Q947 1362 1071 1298L1008 1163Q887 1226 760 1235L666 795Q815 740 878.50 670Q942 600 942 492M549 250Q656 263 719 325Q782 387 782 479Q782 533 749 575Q716 617 635 649L549 250M627 1235Q519 1224 460 1166Q401 1108 401 1010Q401 957 435.50 912.50Q470 868 543 842L627 1235Z"  horiz-adv-x="1128" vert-adv-y="2048"  />

      
      <glyph glyph-name="uni25" unicode="&#x25;" d="M1468 1462L383 0L231 0L1317 1462L1468 1462M1284 772Q1217 772 1164.50 707.50Q1112 643 1080.50 519Q1049 395 1049 279Q1049 106 1155 106Q1220 106 1272 171Q1324 236 1358.50 369.50Q1393 503 1393 606Q1393 772 1284 772M1532 621Q1532 514 1500.50 385Q1469 256 1418.50 167.50Q1368 79 1297.50 29.50Q1227-20 1141-20Q1031-20 970 54.50Q909 129 909 274Q909 440 959.50 592.50Q1010 745 1096 821Q1182 897 1296 897Q1412 897 1472 825.50Q1532 754 1532 621M543 1358Q477 1358 424 1295Q371 1232 339 1107.50Q307 983 307 864Q307 692 414 692Q466 692 508 731.50Q550 771 581.50 845.50Q613 920 632 1020.50Q651 1121 651 1192Q651 1358 543 1358M791 1206Q791 1098 759 968.50Q727 839 676.50 751Q626 663 556 614Q486 565 399 565Q290 565 229 640Q168 715 168 860Q168 1026 218.50 1178.50Q269 1331 355 1407Q441 1483 555 1483Q671 1483 731 1411Q791 1339 791 1206Z"  horiz-adv-x="1624" vert-adv-y="2048"  />

      
      <glyph glyph-name="uni26" unicode="&#x26;" d="M737 1348Q632 1348 574 1288Q516 1228 516 1118Q516 998 598 883Q737 954 789 993Q841 1032 872 1078Q903 1124 903 1182Q903 1259 860.50 1303.50Q818 1348 737 1348M471 119Q558 119 639 152Q720 185 834 276L528 709Q400 642 344 593Q288 544 258.50 485.50Q229 427 229 354Q229 248 295.50 183.50Q362 119 471 119M66 342Q66 490 156 599.50Q246 709 459 811Q356 976 356 1120Q356 1284 462 1384.50Q568 1485 743 1485Q892 1485 979.50 1406Q1067 1327 1067 1194Q1067 1116 1034.50 1057Q1002 998 947 949Q892 900 819.50 859Q747 818 666 776L944 387Q1071 497 1143 682L1311 682Q1210 446 1028 270L1231 0L1030 0L913 166Q793 66 683 23Q573-20 436-20Q268-20 167 76Q66 172 66 342Z"  horiz-adv-x="1372" vert-adv-y="2048"  />

      
      <glyph glyph-name="uni27" unicode="&#x27;" d="M485 1462L332 934L225 934L297 1462L485 1462Z"  horiz-adv-x="444" vert-adv-y="2048"  />

      
      <glyph glyph-name="uni28" unicode="&#x28;" d="M82 272Q82 611 202 899Q322 1187 586 1462L743 1462Q497 1192 371.50 892Q246 592 246 274Q246-65 360-324L229-324Q82-58 82 272Z"  horiz-adv-x="584" vert-adv-y="2048"  />

      
      <glyph glyph-name="uni29" unicode="&#x29;" d="M500 864Q500 523 378.50 234.50Q257-54-4-324L-160-324Q336 227 336 864Q336 1205 223 1462L354 1462Q500 1193 500 864Z"  horiz-adv-x="584" vert-adv-y="2048"  />

      
      <glyph glyph-name="uni2a" unicode="&#x2a;" d="M854 1528L731 1145L1153 1163L1145 1006L752 1053L932 670L766 618L653 1024L395 680L279 801L588 1085L215 1194L270 1348L641 1163L682 1563L854 1528Z"  horiz-adv-x="1130" vert-adv-y="2048"  />

      
      <glyph glyph-name="uni2b" unicode="&#x2b;" d="M516 651L127 651L127 793L516 793L516 1184L657 1184L657 793L1047 793L1047 651L657 651L657 264L516 264L516 651Z"  horiz-adv-x="1128" vert-adv-y="2048"  />

      
      <glyph glyph-name="uni2c" unicode="&#x2c;" d="M291 238L299 215Q186-20 29-264L-100-264Q26 22 104 238L291 238Z"  horiz-adv-x="492" vert-adv-y="2048"  />

      
      <glyph glyph-name="uni2d" unicode="&#x2d;" d="M55 469L90 627L569 627L535 469L55 469Z"  horiz-adv-x="639" vert-adv-y="2048"  />

      
      <glyph glyph-name="uni2e" unicode="&#x2e;" d="M43 74Q43 151 83.50 196.50Q124 242 195 242Q238 242 264.50 216Q291 190 291 137Q291 66 251 18.50Q211-29 143-29Q97-29 70-3Q43 23 43 74Z"  horiz-adv-x="518" vert-adv-y="2048"  />

      
      <glyph glyph-name="uni2f" unicode="&#x2f;" d="M893 1462L80 0L-94 0L719 1462L893 1462Z"  horiz-adv-x="717" vert-adv-y="2048"  />

      
      <glyph glyph-name="uni30" unicode="&#x30;" d="M1092 1014Q1092 719 1013.50 475Q935 231 799.50 105.50Q664-20 485-20Q309-20 215 107.50Q121 235 121 477Q121 747 203 991.50Q285 1236 419.50 1360.50Q554 1485 727 1485Q1092 1485 1092 1014M717 1341Q604 1341 508 1225.50Q412 1110 352.50 902.50Q293 695 293 479Q293 307 343 215Q393 123 504 123Q619 123 713 237Q807 351 863.50 565Q920 779 920 1018Q920 1341 717 1341Z"  horiz-adv-x="1128" vert-adv-y="2048"  />

      
      <glyph glyph-name="uni31" unicode="&#x31;" d="M588 0L416 0L612 913Q671 1174 700 1272Q650 1219 561 1161L383 1051L303 1178L752 1462L901 1462L588 0Z"  horiz-adv-x="1128" vert-adv-y="2048"  />

      
      <glyph glyph-name="uni32" unicode="&#x32;" d="M911 0L12 0L43 147L508 567Q610 660 684.50 730.50Q759 801 807.50 863.50Q856 926 879.50 987.50Q903 1049 903 1124Q903 1223 843 1281Q783 1339 680 1339Q603 1339 529.50 1310.50Q456 1282 367 1214L285 1329Q476 1483 698 1483Q874 1483 976.50 1394.50Q1079 1306 1079 1151Q1079 1040 1039.50 947Q1000 854 908.50 750Q817 646 614 469L262 162L262 154L940 154L911 0Z"  horiz-adv-x="1128" vert-adv-y="2048"  />

      
      <glyph glyph-name="uni33" unicode="&#x33;" d="M1073 1159Q1073 1003 972 894.50Q871 786 692 754L692 745Q816 722 887 638.50Q958 555 958 430Q958 297 896 195.50Q834 94 715 37Q596-20 432-20Q222-20 47 59L47 223Q141 174 246 147.50Q351 121 436 121Q598 121 688 200.50Q778 280 778 418Q778 549 699 616.50Q620 684 479 684L348 684L379 827L518 827Q683 827 792 914Q901 1001 901 1141Q901 1233 843 1287Q785 1341 686 1341Q606 1341 529 1314Q452 1287 354 1221L274 1339Q469 1483 698 1483Q877 1483 975 1396Q1073 1309 1073 1159Z"  horiz-adv-x="1128" vert-adv-y="2048"  />

      
      <glyph glyph-name="uni34" unicode="&#x34;" d="M1067 334L834 334L762 0L598 0L672 334L16 334L45 492L879 1470L1075 1470L868 487L1100 487L1067 334M705 487Q751 707 783 860Q815 1013 899 1305L891 1305Q874 1276 824.50 1208.50Q775 1141 752 1112L219 487L705 487Z"  horiz-adv-x="1128" vert-adv-y="2048"  />

      
      <glyph glyph-name="uni35" unicode="&#x35;" d="M598 893Q780 893 887.50 788.50Q995 684 995 506Q995 345 922 223Q849 101 718 40.50Q587-20 410-20Q217-20 80 59L80 223Q244 121 414 121Q605 121 712 217Q819 313 819 485Q819 611 745.50 684.50Q672 758 541 758Q493 758 444 751.50Q395 745 305 721L231 778L428 1462L1096 1462L1063 1309L541 1309L414 870Q501 893 598 893Z"  horiz-adv-x="1128" vert-adv-y="2048"  />

      
      <glyph glyph-name="uni36" unicode="&#x36;" d="M133 424Q133 633 193.50 839Q254 1045 357 1190.50Q460 1336 603 1409.50Q746 1483 930 1483Q1041 1483 1114 1460L1079 1315Q1011 1337 909 1337Q697 1337 552.50 1188Q408 1039 340 745L348 745Q407 824 494.50 871Q582 918 688 918Q842 918 932 819.50Q1022 721 1022 549Q1022 388 955.50 254.50Q889 121 775 50.50Q661-20 514-20Q332-20 232.50 95Q133 210 133 424M532 121Q626 121 699.50 175Q773 229 813.50 324Q854 419 854 532Q854 780 633 780Q567 780 505 751.50Q443 723 395 675.50Q347 628 323 571Q299 514 299 416Q299 279 359.50 200Q420 121 532 121Z"  horiz-adv-x="1128" vert-adv-y="2048"  />

      
      <glyph glyph-name="uni37" unicode="&#x37;" d="M174 0L942 1313L223 1313L254 1462L1145 1462L1118 1323L354 0L174 0Z"  horiz-adv-x="1128" vert-adv-y="2048"  />

      
      <glyph glyph-name="uni38" unicode="&#x38;" d="M741 1485Q915 1485 1012.50 1398.50Q1110 1312 1110 1163Q1110 1034 1032 938Q954 842 766 762Q893 684 946 597Q999 510 999 395Q999 273 939 177.50Q879 82 766.50 31Q654-20 502-20Q312-20 204 78.50Q96 177 96 346Q96 494 191 602Q286 710 487 786Q392 855 351.50 930.50Q311 1006 311 1102Q311 1213 365.50 1300.50Q420 1388 519 1436.50Q618 1485 741 1485M608 700Q423 640 346.50 556.50Q270 473 270 354Q270 247 339 184Q408 121 520 121Q659 121 742 195Q825 269 825 391Q825 490 773 565Q721 640 608 700M729 1341Q615 1341 547 1275.50Q479 1210 479 1100Q479 1018 518 956Q557 894 645 840Q806 900 873 971.50Q940 1043 940 1145Q940 1235 882.50 1288Q825 1341 729 1341Z"  horiz-adv-x="1128" vert-adv-y="2048"  />

      
      <glyph glyph-name="uni39" unicode="&#x39;" d="M1067 1034Q1067 840 1011 627.50Q955 415 863.50 267.50Q772 120 642 50Q512-20 340-20Q204-20 98 14L98 172Q232 125 344 125Q546 125 671 266Q796 407 860 707L850 707Q799 632 717.50 588.50Q636 545 537 545Q368 545 276 643.50Q184 742 184 932Q184 1085 248.50 1212.50Q313 1340 428.50 1411.50Q544 1483 688 1483Q868 1483 967.50 1368.50Q1067 1254 1067 1034M682 1341Q532 1341 441 1228Q350 1115 350 938Q350 814 404.50 748Q459 682 567 682Q643 682 707 710.50Q771 739 815.50 792Q860 845 880.50 906Q901 967 901 1057Q901 1188 842 1264.50Q783 1341 682 1341Z"  horiz-adv-x="1128" vert-adv-y="2048"  />

      
      <glyph glyph-name="uni3a" unicode="&#x3a;" d="M43 74Q43 151 83.50 196.50Q124 242 195 242Q238 242 264.50 216Q291 190 291 137Q291 66 251 18.50Q211-29 143-29Q97-29 70-3Q43 23 43 74M203 956Q203 1033 243 1078.50Q283 1124 354 1124Q451 1124 451 1020Q451 947 409.50 900.50Q368 854 303 854Q257 854 230 880.50Q203 907 203 956Z"  horiz-adv-x="518" vert-adv-y="2048"  />

      
      <glyph glyph-name="uni3b" unicode="&#x3b;" d="M291 238L299 215Q186-20 29-264L-100-264Q26 22 104 238L291 238M203 956Q203 1033 243 1078.50Q283 1124 354 1124Q451 1124 451 1020Q451 947 409.50 900.50Q368 854 303 854Q257 854 230 880.50Q203 907 203 956Z"  horiz-adv-x="518" vert-adv-y="2048"  />

      
      <glyph glyph-name="uni3c" unicode="&#x3c;" d="M1040 242L121 664L121 762L1040 1241L1040 1092L293 721L1040 393L1040 242Z"  horiz-adv-x="1128" vert-adv-y="2048"  />

      
      <glyph glyph-name="uni3d" unicode="&#x3d;" d="M127 858L127 997L1047 997L1047 858L127 858M127 444L127 586L1047 586L1047 444L127 444Z"  horiz-adv-x="1128" vert-adv-y="2048"  />

      
      <glyph glyph-name="uni3e" unicode="&#x3e;" d="M121 393L866 721L121 1092L121 1241L1040 762L1040 664L121 242L121 393Z"  horiz-adv-x="1128" vert-adv-y="2048"  />

      
      <glyph glyph-name="uni3f" unicode="&#x3f;" d="M260 403Q282 533 332.50 616.50Q383 700 498 791Q626 891 666 935Q706 979 729 1029Q752 1079 752 1141Q752 1234 700.50 1284.50Q649 1335 553 1335Q472 1335 398 1309.50Q324 1284 258 1253L197 1382Q289 1433 389 1458Q489 1483 571 1483Q738 1483 830 1399Q922 1315 922 1161Q922 1038 856.50 934.50Q791 831 631 711Q506 620 462 563.50Q418 507 395 403L260 403M158 74Q158 151 198 196.50Q238 242 309 242Q353 242 379.50 216Q406 190 406 137Q406 64 364.50 17.50Q323-29 258-29Q212-29 185-3Q158 23 158 74Z"  horiz-adv-x="874" vert-adv-y="2048"  />

      
      <glyph glyph-name="uni40" unicode="&#x40;" d="M1679 852Q1679 673 1624 528Q1569 383 1469 301Q1369 219 1247 219Q1050 219 1034 403L1026 403Q915 219 735 219Q620 219 554.50 294.50Q489 370 489 504Q489 661 557 788Q625 915 745.50 987Q866 1059 1006 1059Q1071 1059 1133.50 1047Q1196 1035 1284 999Q1220 757 1186 631Q1152 505 1155 459Q1155 342 1257 342Q1335 342 1398.50 409Q1462 476 1499 592.50Q1536 709 1536 836Q1536 1075 1408 1203Q1280 1331 1038 1331Q810 1331 631.50 1224Q453 1117 354.50 928.50Q256 740 256 512Q256 242 399.50 93.50Q543-55 809-55Q1006-55 1229 31L1229-96Q1010-186 786-186Q472-186 291.50-1.50Q111 183 111 504Q111 765 237.50 989.50Q364 1214 581 1337Q798 1460 1067 1460Q1258 1460 1396 1384.50Q1534 1309 1606.50 1171Q1679 1033 1679 852M985 938Q891 938 811 883Q731 828 685 730Q639 632 639 518Q639 425 672 383.50Q705 342 770 342Q957 342 1042 657L1112 915Q1049 938 985 938Z"  horiz-adv-x="1735" vert-adv-y="2048"  />

      
      <glyph glyph-name="uni41" unicode="&#x41;" d="M813 465L317 465L72 0L-117 0L682 1462L856 1462L1040 0L870 0L813 465M795 621L760 920Q736 1099 731 1270Q694 1182 650.50 1095Q607 1008 401 621L795 621Z"  horiz-adv-x="1137" vert-adv-y="2048"  />

      
      <glyph glyph-name="uni42" unicode="&#x42;" d="M770 1462Q1202 1462 1202 1126Q1202 985 1115 888Q1028 791 870 762L870 752Q985 720 1046.50 641.50Q1108 563 1108 453Q1108 241 956 120.50Q804 0 549 0L86 0L395 1462L770 1462M434 836L682 836Q838 836 931 909Q1024 982 1024 1108Q1024 1212 957.50 1263.50Q891 1315 748 1315L537 1315L434 836M287 145L553 145Q734 145 831 225.50Q928 306 928 453Q928 569 853.50 630.50Q779 692 639 692L403 692L287 145Z"  horiz-adv-x="1225" vert-adv-y="2048"  />

      
      <glyph glyph-name="uni43" unicode="&#x43;" d="M942 1331Q768 1331 630.50 1234Q493 1137 412.50 949.50Q332 762 332 541Q332 354 429.50 242.50Q527 131 698 131Q837 131 1020 188L1020 39Q934 8 856-6Q778-20 668-20Q426-20 288 129.50Q150 279 150 537Q150 798 255.50 1022.50Q361 1247 539 1365Q717 1483 942 1483Q1139 1483 1290 1403L1221 1262Q1083 1331 942 1331Z"  horiz-adv-x="1198" vert-adv-y="2048"  />

      
      <glyph glyph-name="uni44" unicode="&#x44;" d="M1300 877Q1300 616 1195 416Q1090 216 895 108Q700 0 438 0L86 0L395 1462L737 1462Q1013 1462 1156.50 1312.50Q1300 1163 1300 877M449 147Q651 147 804 238.50Q957 330 1038.50 497Q1120 664 1120 879Q1120 1094 1017 1204.50Q914 1315 715 1315L537 1315L287 147L449 147Z"  horiz-adv-x="1364" vert-adv-y="2048"  />

      
      <glyph glyph-name="uni45" unicode="&#x45;" d="M821 0L86 0L395 1462L1130 1462L1098 1309L532 1309L434 840L961 840L932 688L403 688L289 152L854 152L821 0Z"  horiz-adv-x="1047" vert-adv-y="2048"  />

      
      <glyph glyph-name="uni46" unicode="&#x46;" d="M258 0L86 0L395 1462L1130 1462L1100 1309L532 1309L422 776L950 776L918 623L389 623L258 0Z"  horiz-adv-x="967" vert-adv-y="2048"  />

      
      <glyph glyph-name="uni47" unicode="&#x47;" d="M821 766L1280 766L1126 55Q910-20 707-20Q443-20 296.50 124.50Q150 269 150 528Q150 797 251.50 1017.50Q353 1238 533 1360.50Q713 1483 932 1483Q1049 1483 1151.50 1463Q1254 1443 1358 1399L1292 1247Q1215 1281 1126.50 1306Q1038 1331 932 1331Q763 1331 624.50 1229.50Q486 1128 409 946Q332 764 332 539Q332 349 434.50 240Q537 131 721 131Q875 131 981 170L1077 614L788 614L821 766Z"  horiz-adv-x="1386" vert-adv-y="2048"  />

      
      <glyph glyph-name="uni48" unicode="&#x48;" d="M1085 0L918 0L1061 688L401 688L256 0L86 0L395 1462L565 1462L434 840L1094 840L1227 1462L1395 1462L1085 0Z"  horiz-adv-x="1389" vert-adv-y="2048"  />

      
      <glyph glyph-name="uni49" unicode="&#x49;" d="M86 0L397 1462L565 1462L254 0L86 0Z"  horiz-adv-x="559" vert-adv-y="2048"  />

      
      <glyph glyph-name="uni4a" unicode="&#x4a;" d="M-166-385Q-271-385-319-360L-313-213Q-244-233-168-233Q-68-233-2.50-170.50Q63-108 88 12L395 1462L565 1462L256-6Q177-385-166-385Z"  horiz-adv-x="547" vert-adv-y="2048"  />

      
      <glyph glyph-name="uni4b" unicode="&#x4b;" d="M1034 0L848 0Q776 181 701.50 359.50Q627 538 555 721L381 590L256 0L86 0L395 1462L565 1462L414 752L1114 1462L1323 1462L684 825L1034 0Z"  horiz-adv-x="1141" vert-adv-y="2048"  />

      
      <glyph glyph-name="uni4c" unicode="&#x4c;" d="M86 0L395 1462L565 1462L289 154L854 154L821 0L86 0Z"  horiz-adv-x="971" vert-adv-y="2048"  />

      
      <glyph glyph-name="uni4d" unicode="&#x4d;" d="M676 0L510 1296L502 1296Q495 1224 473.50 1098.50Q452 973 436 899L246 0L84 0L393 1462L637 1462L786 258L795 258L1454 1462L1720 1462L1417 0L1243 0Q1369 590 1436 905.50Q1503 1221 1530 1298L1524 1298L807 0L676 0Z"  horiz-adv-x="1714" vert-adv-y="2048"  />

      
      <glyph glyph-name="uni4e" unicode="&#x4e;" d="M1139 0L958 0L498 1223L492 1223Q460 1002 418 805L246 0L84 0L393 1462L573 1462L1032 242L1038 242Q1068 466 1110 647L1284 1462L1448 1462L1139 0Z"  horiz-adv-x="1438" vert-adv-y="2048"  />

      
      <glyph glyph-name="uni4f" unicode="&#x4f;" d="M1411 907Q1411 638 1323 425.50Q1235 213 1071 96.50Q907-20 692-20Q436-20 293 129.50Q150 279 150 549Q150 813 246 1031Q342 1249 509.50 1367Q677 1485 887 1485Q1131 1485 1271 1331Q1411 1177 1411 907M874 1333Q717 1333 593 1232Q469 1131 400.50 951Q332 771 332 553Q332 354 430 242.50Q528 131 696 131Q848 131 968.50 228.50Q1089 326 1159 508Q1229 690 1229 911Q1229 1110 1135 1221.50Q1041 1333 874 1333Z"  horiz-adv-x="1475" vert-adv-y="2048"  />

      
      <glyph glyph-name="uni50" unicode="&#x50;" d="M1159 1085Q1159 837 995 706Q831 575 514 575L379 575L256 0L86 0L395 1462L725 1462Q939 1462 1049 1367.50Q1159 1273 1159 1085M410 721L543 721Q759 721 871 812Q983 903 983 1079Q983 1204 913.50 1259.50Q844 1315 700 1315L537 1315L410 721Z"  horiz-adv-x="1159" vert-adv-y="2048"  />

      
      <glyph glyph-name="uni51" unicode="&#x51;" d="M874 1333Q717 1333 593 1232Q469 1131 400.50 951Q332 771 332 553Q332 354 430 242.50Q528 131 696 131Q854 131 975 231Q1096 331 1162.50 511.50Q1229 692 1229 911Q1229 1110 1135 1221.50Q1041 1333 874 1333M725-18L708-20L692-20Q436-20 293 129.50Q150 279 150 549Q150 813 246 1031Q342 1249 509.50 1367Q677 1485 887 1485Q1131 1485 1271 1331Q1411 1177 1411 907Q1411 574 1272 331Q1133 88 897 10L1171-348L952-348L725-18Z"  horiz-adv-x="1475" vert-adv-y="2048"  />

      
      <glyph glyph-name="uni52" unicode="&#x52;" d="M385 608L256 0L86 0L395 1462L715 1462Q1161 1462 1161 1096Q1161 748 793 647L1032 0L846 0L637 608L385 608M532 1313Q430 819 416 754L584 754Q777 754 881 839Q985 924 985 1083Q985 1204 917.50 1258.50Q850 1313 698 1313L532 1313Z"  horiz-adv-x="1165" vert-adv-y="2048"  />

      
      <glyph glyph-name="uni53" unicode="&#x53;" d="M913 424Q913 213 772.50 96.50Q632-20 377-20Q271-20 190.50-5.50Q110 9 39 43L39 213Q201 129 379 129Q541 129 636 204.50Q731 280 731 412Q731 490 678.50 549.50Q626 609 483 690Q332 775 273.50 860Q215 945 215 1061Q215 1248 347 1365.50Q479 1483 694 1483Q793 1483 878.50 1464Q964 1445 1059 1399L993 1249Q927 1287 845 1309Q763 1331 694 1331Q560 1331 478.50 1261.50Q397 1192 397 1073Q397 1019 414 980.50Q431 942 468 908Q505 874 610 813Q757 725 808.50 675Q860 625 886.50 564.50Q913 504 913 424Z"  horiz-adv-x="1028" vert-adv-y="2048"  />

      
      <glyph glyph-name="uni54" unicode="&#x54;" d="M487 0L315 0L592 1311L186 1311L219 1462L1204 1462L1174 1311L766 1311L487 0Z"  horiz-adv-x="1020" vert-adv-y="2048"  />

      
      <glyph glyph-name="uni55" unicode="&#x55;" d="M1407 1462L1202 496Q1147 233 1004.50 106.50Q862-20 616-20Q386-20 275 84Q164 188 164 383Q164 464 188 584L377 1462L547 1462L356 571Q334 465 334 383Q334 266 407 198.50Q480 131 625 131Q797 131 892.50 218.50Q988 306 1032 508L1237 1462L1407 1462Z"  horiz-adv-x="1384" vert-adv-y="2048"  />

      
      <glyph glyph-name="uni56" unicode="&#x56;" d="M479 197Q540 341 641 535L1120 1462L1311 1462L530 0L350 0L188 1462L358 1462L455 532Q475 336 475 197L479 197Z"  horiz-adv-x="1122" vert-adv-y="2048"  />

      
      <glyph glyph-name="uni57" unicode="&#x57;" d="M1257 0L1087 0L1038 965Q1030 1101 1030 1247L1024 1247Q999 1175 963 1092.50Q927 1010 459 0L285 0L223 1462L393 1462L424 561L426 473Q426 375 416 215L422 215Q511 458 578 598L983 1462L1161 1462L1204 602Q1213 449 1213 298L1212 215L1221 215Q1296 439 1352 569L1739 1462L1921 1462L1257 0Z"  horiz-adv-x="1745" vert-adv-y="2048"  />

      
      <glyph glyph-name="uni58" unicode="&#x58;" d="M956 0L776 0L563 641L82 0L-104 0L492 776L229 1462L401 1462L604 899L1047 1462L1233 1462L678 768L956 0Z"  horiz-adv-x="1063" vert-adv-y="2048"  />

      
      <glyph glyph-name="uni59" unicode="&#x59;" d="M537 715L1026 1462L1219 1462L592 541L479 0L307 0L426 549L188 1462L358 1462L537 715Z"  horiz-adv-x="1030" vert-adv-y="2048"  />

      
      <glyph glyph-name="uni5a" unicode="&#x5a;" d="M885 0L-16 0L12 137L936 1307L281 1307L313 1462L1171 1462L1145 1323L221 154L918 154L885 0Z"  horiz-adv-x="1087" vert-adv-y="2048"  />

      
      <glyph glyph-name="uni5b" unicode="&#x5b;" d="M371-324L-16-324L365 1462L752 1462L721 1321L494 1321L176-182L403-182L371-324Z"  horiz-adv-x="586" vert-adv-y="2048"  />

      
      <glyph glyph-name="uni5c" unicode="&#x5c;" d="M375 1462L592 0L438 0L221 1462L375 1462Z"  horiz-adv-x="717" vert-adv-y="2048"  />

      
      <glyph glyph-name="uni5d" unicode="&#x5d;" d="M-119-182L106-182L426 1321L199 1321L229 1462L618 1462L238-324L-150-324L-119-182Z"  horiz-adv-x="586" vert-adv-y="2048"  />

      
      <glyph glyph-name="uni5e" unicode="&#x5e;" d="M53 553L651 1473L760 1473L1026 553L881 553L680 1300L213 553L53 553Z"  horiz-adv-x="1059" vert-adv-y="2048"  />

      
      <glyph glyph-name="uni5f" unicode="&#x5f;" d="M623-324L-188-324L-158-184L653-184L623-324Z"  horiz-adv-x="807" vert-adv-y="2048"  />

      
      <glyph glyph-name="uni60" unicode="&#x60;" d="M903 1241L799 1241Q738 1302 670.50 1395Q603 1488 575 1548L575 1569L756 1569Q799 1433 903 1266L903 1241Z"  horiz-adv-x="1135" vert-adv-y="2048"  />

      
      <glyph glyph-name="uni61" unicode="&#x61;" d="M639 1116Q731 1116 803 1066.50Q875 1017 915 924L926 924L993 1096L1120 1096L887 0L754 0L780 209L772 209Q593-20 395-20Q256-20 177 79Q98 178 98 350Q98 558 169 736Q240 914 365 1015Q490 1116 639 1116M449 119Q546 119 642 211.50Q738 304 798 452.50Q858 601 858 750Q858 853 802 914Q746 975 655 975Q551 975 461.50 889Q372 803 321 656Q270 509 270 346Q270 232 317 175.50Q364 119 449 119Z"  horiz-adv-x="1157" vert-adv-y="2048"  />

      
      <glyph glyph-name="uni62" unicode="&#x62;" d="M545-20Q448-20 374.50 31Q301 82 264 170L254 170L184 0L59 0L389 1556L557 1556Q506 1314 478.50 1185.50Q451 1057 403 885L412 885Q505 1003 595.50 1058.50Q686 1114 782 1114Q923 1114 1002 1015Q1081 916 1081 743Q1081 534 1012.50 356.50Q944 179 821.50 79.50Q699-20 545-20M731 975Q635 975 535.50 880Q436 785 377.50 641Q319 497 319 346Q319 236 374.50 177.50Q430 119 535 119Q634 119 719.50 200Q805 281 857 430.50Q909 580 909 748Q909 975 731 975Z"  horiz-adv-x="1182" vert-adv-y="2048"  />

      
      <glyph glyph-name="uni63" unicode="&#x63;" d="M506-20Q312-20 205 87Q98 194 98 389Q98 589 172 758Q246 927 376.50 1021.50Q507 1116 670 1116Q807 1116 938 1065L891 924Q771 975 672 975Q560 975 467.50 898.50Q375 822 322.50 685.50Q270 549 270 389Q270 261 336.50 190Q403 119 520 119Q592 119 656 139Q720 159 782 186L782 43Q658-20 506-20Z"  horiz-adv-x="922" vert-adv-y="2048"  />

      
      <glyph glyph-name="uni64" unicode="&#x64;" d="M639 1114Q833 1114 920 924L930 924Q947 1079 975 1198L1053 1556L1219 1556L889 0L750 0L772 209L764 209Q663 84 575 32Q487-20 393-20Q254-20 176 78Q98 176 98 350Q98 564 170 742Q242 920 364.50 1017Q487 1114 639 1114M449 119Q543 119 643 212.50Q743 306 801.50 451.50Q860 597 860 748Q860 859 806 917Q752 975 649 975Q548 975 461.50 892.50Q375 810 322.50 660.50Q270 511 270 346Q270 119 449 119Z"  horiz-adv-x="1182" vert-adv-y="2048"  />

      
      <glyph glyph-name="uni65" unicode="&#x65;" d="M492-20Q308-20 203 89Q98 198 98 391Q98 579 172.50 751.50Q247 924 370 1020Q493 1116 641 1116Q794 1116 871 1049.50Q948 983 948 864Q948 684 782 581.50Q616 479 307 479L274 479L270 399Q270 268 331.50 194.50Q393 121 522 121Q585 121 651.50 139Q718 157 817 205L817 59Q723 15 651-2.50Q579-20 492-20M631 973Q528 973 437.50 879Q347 785 299 618L311 618Q539 618 660.50 677.50Q782 737 782 850Q782 903 745.50 938Q709 973 631 973Z"  horiz-adv-x="1010" vert-adv-y="2048"  />

      
      <glyph glyph-name="uni66" unicode="&#x66;" d="M-104-492Q-173-492-229-471L-229-330Q-165-352-117-352Q-41-352 0-290Q41-228 66-113L293 969L100 969L113 1036L319 1102L342 1202Q388 1402 469.50 1484.50Q551 1567 711 1567Q751 1567 809 1555.50Q867 1544 899 1530L856 1401Q780 1430 719 1430Q632 1430 585.50 1381.50Q539 1333 510 1204L485 1096L723 1096L698 969L461 969L229-129Q190-318 109-405Q28-492-104-492Z"  horiz-adv-x="641" vert-adv-y="2048"  />

      
      <glyph glyph-name="uni67" unicode="&#x67;" d="M1100 1096L1075 989L864 965Q905 903 905 807Q905 616 788.50 502.50Q672 389 477 389Q422 389 393 397Q254 344 254 266Q254 225 287 211.50Q320 198 383 190L500 176Q681 154 762.50 88Q844 22 844-106Q844-290 698-391Q552-492 287-492Q93-492-17-418.50Q-127-345-127-211Q-127-106-55-29Q17 48 178 102Q100 143 100 223Q100 292 151 341.50Q202 391 293 434Q230 466 190 528.50Q150 591 150 674Q150 868 269.50 992Q389 1116 575 1116Q653 1116 729 1096L1100 1096M35-195Q35-272 100-317Q165-362 293-362Q475-362 577.50-298.50Q680-235 680-119Q680-57 626-21Q572 15 442 29L283 45Q163 20 99-43Q35-106 35-195M313 680Q313 595 358 550.50Q403 506 483 506Q562 506 621 548Q680 590 711.50 663.50Q743 737 743 823Q743 905 699 948Q655 991 573 991Q495 991 436.50 950.50Q378 910 345.50 837.50Q313 765 313 680Z"  horiz-adv-x="1026" vert-adv-y="2048"  />

      
      <glyph glyph-name="uni68" unicode="&#x68;" d="M729 0L877 692Q895 786 895 827Q895 975 748 975Q659 975 574.50 916Q490 857 425.50 744.50Q361 632 328 473L227 0L59 0L389 1556L557 1556Q539 1474 522.50 1397Q506 1320 488.50 1240.50Q471 1161 450.50 1074Q430 987 403 885L414 885Q508 1008 599.50 1061Q691 1114 791 1114Q922 1114 993.50 1042Q1065 970 1065 838Q1065 776 1042 672Q1003 479 897 0L729 0Z"  horiz-adv-x="1182" vert-adv-y="2048"  />

      
      <glyph glyph-name="uni69" unicode="&#x69;" d="M227 0L59 0L293 1096L461 1096L227 0M340 1376Q340 1432 372 1467.50Q404 1503 455 1503Q543 1503 543 1413Q543 1358 509.50 1320Q476 1282 432 1282Q392 1282 366 1306.50Q340 1331 340 1376Z"  horiz-adv-x="520" vert-adv-y="2048"  />

      
      <glyph glyph-name="uni6a" unicode="&#x6a;" d="M-135-492Q-204-492-258-471L-258-330Q-197-352-139-352Q-14-352 29-147L293 1096L459 1096L193-162Q157-333 78.50-412.50Q0-492-135-492M340 1376Q340 1432 372 1467.50Q404 1503 455 1503Q541 1503 541 1413Q541 1358 507.50 1320Q474 1282 430 1282Q392 1282 366 1306.50Q340 1331 340 1376Z"  horiz-adv-x="520" vert-adv-y="2048"  />

      
      <glyph glyph-name="uni6b" unicode="&#x6b;" d="M330 559L856 1096L1057 1096L588 629L883 0L696 0L461 524L309 401L227 0L57 0L387 1556L557 1556Q485 1220 428 954Q371 688 326 559L330 559Z"  horiz-adv-x="999" vert-adv-y="2048"  />

      
      <glyph glyph-name="uni6c" unicode="&#x6c;" d="M225 0L57 0L389 1556L557 1556L225 0Z"  horiz-adv-x="520" vert-adv-y="2048"  />

      
      <glyph glyph-name="uni6d" unicode="&#x6d;" d="M696 0L844 692Q862 786 862 827Q862 897 831 936Q800 975 725 975Q641 975 561.50 915Q482 855 421.50 743.50Q361 632 328 475L227 0L59 0L293 1096L432 1096L410 893L420 893Q507 1012 593.50 1064Q680 1116 772 1116Q885 1116 946 1051Q1007 986 1018 870L1026 870Q1112 995 1209 1055.50Q1306 1116 1405 1116Q1532 1116 1601.50 1048Q1671 980 1671 850Q1671 782 1649 672L1505 0L1335 0L1483 692Q1503 796 1503 838Q1503 900 1468.50 937.50Q1434 975 1360 975Q1279 975 1200 917Q1121 859 1061.50 752.50Q1002 646 971 500L864 0L696 0Z"  horiz-adv-x="1786" vert-adv-y="2048"  />

      
      <glyph glyph-name="uni6e" unicode="&#x6e;" d="M729 0L877 692Q897 796 897 836Q897 899 861.50 937Q826 975 748 975Q659 975 574.50 915Q490 855 425.50 744Q361 633 328 475L227 0L59 0L293 1096L432 1096L410 893L420 893Q516 1015 605.50 1065.50Q695 1116 791 1116Q918 1116 991.50 1046.50Q1065 977 1065 852Q1065 773 1042 672L899 0L729 0Z"  horiz-adv-x="1182" vert-adv-y="2048"  />

      
      <glyph glyph-name="uni6f" unicode="&#x6f;" d="M643 1110Q833 1110 943 997.50Q1053 885 1053 688Q1053 500 981 333Q909 166 786 75Q663-16 508-16Q316-16 207 97Q98 210 98 406Q98 596 171 763.50Q244 931 368 1020.50Q492 1110 643 1110M879 711Q879 826 816.50 897.50Q754 969 647 969Q538 969 451.50 895Q365 821 317.50 689.50Q270 558 270 397Q270 266 333.50 194.50Q397 123 516 123Q620 123 703 196Q786 269 832.50 403.50Q879 538 879 711Z"  horiz-adv-x="1149" vert-adv-y="2048"  />

      
      <glyph glyph-name="uni70" unicode="&#x70;" d="M545-20Q448-20 375 30Q302 80 262 170L252 170L248 132Q245 107 237.50 62Q230 17 123-492L-43-492L293 1096L432 1096L406 887L414 887Q593 1114 786 1114Q923 1114 1002 1016.50Q1081 919 1081 743Q1081 531 1012 354Q943 177 821 78.50Q699-20 545-20M731 975Q635 975 535.50 880Q436 785 377.50 641Q319 497 319 346Q319 236 374.50 177.50Q430 119 535 119Q634 119 719.50 200Q805 281 857 430.50Q909 580 909 748Q909 975 731 975Z"  horiz-adv-x="1182" vert-adv-y="2048"  />

      
      <glyph glyph-name="uni71" unicode="&#x71;" d="M641 1116Q735 1116 806.50 1065.50Q878 1015 915 924L928 924L995 1096L1120 1096L784-492L618-492L719-12Q728 33 776 209L768 209Q673 88 583 34Q493-20 397-20Q257-20 177.50 77.50Q98 175 98 350Q98 562 170.50 742Q243 922 366.50 1019Q490 1116 641 1116M449 119Q541 119 639 211Q737 303 797.50 448Q858 593 858 748Q858 853 803.50 914Q749 975 651 975Q550 975 462 890.50Q374 806 322 657.50Q270 509 270 346Q270 119 449 119Z"  horiz-adv-x="1182" vert-adv-y="2048"  />

      
      <glyph glyph-name="uni72" unicode="&#x72;" d="M752 1116Q821 1116 872 1102L836 952Q783 965 731 965Q640 965 560.50 905Q481 845 421.50 738.50Q362 632 334 502L227 0L59 0L293 1096L432 1096L410 893L420 893Q492 988 539 1029.50Q586 1071 637.50 1093.50Q689 1116 752 1116Z"  horiz-adv-x="811" vert-adv-y="2048"  />

      
      <glyph glyph-name="uni73" unicode="&#x73;" d="M735 311Q735 155 624.50 67.50Q514-20 313-20Q144-20 8 49L8 207Q78 165 159 142Q240 119 309 119Q435 119 499 169Q563 219 563 297Q563 354 528 393Q493 432 377 500Q247 573 193 643Q139 713 139 809Q139 947 240 1031.50Q341 1116 506 1116Q677 1116 836 1042L782 905L726 930Q625 973 506 973Q413 973 360 929.50Q307 886 307 817Q307 761 342.50 721Q378 681 489 618Q596 558 642.50 515Q689 472 712 422.50Q735 373 735 311Z"  horiz-adv-x="877" vert-adv-y="2048"  />

      
      <glyph glyph-name="uni74" unicode="&#x74;" d="M395 117Q450 117 539 143L539 14Q505 0 455-10Q405-20 375-20Q250-20 183.50 39.50Q117 99 117 217Q117 283 135 367L262 969L90 969L104 1042L289 1120L414 1348L512 1348L457 1096L731 1096L705 969L432 969L303 365Q285 278 285 233Q285 177 314 147Q343 117 395 117Z"  horiz-adv-x="664" vert-adv-y="2048"  />

      
      <glyph glyph-name="uni75" unicode="&#x75;" d="M451 1096L301 401Q283 312 283 262Q283 119 430 119Q518 119 603 179Q688 239 753 351Q818 463 852 621L952 1096L1118 1096L887 0L748 0L770 203L758 203Q660 78 571 29Q482-20 387-20Q259-20 186 49.50Q113 119 113 248Q113 310 135 420L281 1096L451 1096Z"  horiz-adv-x="1182" vert-adv-y="2048"  />

      
      <glyph glyph-name="uni76" unicode="&#x76;" d="M223 0L98 1096L266 1096L330 483Q354 225 354 121L360 121Q487 396 539 492L864 1096L1042 1096L451 0L223 0Z"  horiz-adv-x="946" vert-adv-y="2048"  />

      
      <glyph glyph-name="uni77" unicode="&#x77;" d="M831 0L799 602Q795 696 795 774L795 930L786 930L736 812L653 623L362 0L160 0L117 1096L281 1096L299 502L299 414Q299 267 291 145L297 145Q344 269 434 467L729 1096L911 1096L948 502Q954 334 954 240L954 187L952 145L958 145Q986 231 1041 363.50Q1096 496 1364 1096L1542 1096L1036 0L831 0Z"  horiz-adv-x="1468" vert-adv-y="2048"  />

      
      <glyph glyph-name="uni78" unicode="&#x78;" d="M467 434L121 0L-74 0L401 565L162 1096L332 1096L506 684L836 1096L1030 1096L575 557L827 0L659 0L467 434Z"  horiz-adv-x="979" vert-adv-y="2048"  />

      
      <glyph glyph-name="uni79" unicode="&#x79;" d="M98 1096L266 1096L340 551Q350 482 359.50 347.50Q369 213 369 131L375 131Q410 218 462 331Q514 444 539 487L864 1096L1042 1096L346-186Q253-358 162-425Q71-492-57-492Q-129-492-197-471L-197-336Q-134-354-66-354Q16-354 74.50-303.50Q133-253 188-154L264-18L98 1096Z"  horiz-adv-x="946" vert-adv-y="2048"  />

      
      <glyph glyph-name="uni7a" unicode="&#x7a;" d="M690 0L-29 0L-6 117L688 971L209 971L236 1096L893 1096L864 956L184 125L715 125L690 0Z"  horiz-adv-x="909" vert-adv-y="2048"  />

      
      <glyph glyph-name="uni7b" unicode="&#x7b;" d="M442-324Q301-324 225.50-271.50Q150-219 150-100Q150-48 170 41Q203 187 221.50 268.50Q240 350 236 371Q236 514 27 514L59 657Q177 657 248.50 700.50Q320 744 342 848L410 1174Q444 1334 527.50 1398Q611 1462 782 1462L815 1462L784 1321Q679 1321 633 1284.50Q587 1248 567 1161L496 840Q468 717 405 656Q342 595 238 578L238 573Q389 532 389 360Q389 301 371 229L324 18Q309-40 309-80Q309-133 345.50-157.50Q382-182 465-182L465-324L442-324Z"  horiz-adv-x="715" vert-adv-y="2048"  />

      
      <glyph glyph-name="uni7c" unicode="&#x7c;" d="M541 1556L680 1556L680-496L541-496L541 1556Z"  horiz-adv-x="1128" vert-adv-y="2048"  />

      
      <glyph glyph-name="uni7d" unicode="&#x7d;" d="M285 1462Q429 1462 505.50 1409.50Q582 1357 582 1239Q582 1191 561 1098L512 879Q496 811 496 768Q496 625 705 625L672 481Q553 481 482 438Q411 395 389 291L322-35Q286-199 203-261.50Q120-324-61-324L-74-324L-74-182Q41-182 93-146Q145-110 164-23L236 299Q261 416 324 478.50Q387 541 494 559L494 565Q344 607 344 776Q344 835 362 907L412 1120Q426 1185 426 1219Q426 1272 385.50 1296.50Q345 1321 246 1321L274 1462L285 1462Z"  horiz-adv-x="715" vert-adv-y="2048"  />

      
      <glyph glyph-name="uni7e" unicode="&#x7e;" d="M348 713Q294 713 229.50 678.50Q165 644 115 592L115 743Q213 852 358 852Q427 852 485 837.50Q543 823 629 786Q693 759 741.50 745Q790 731 840 731Q895 731 959.50 764Q1024 797 1075 852L1075 702Q975 592 831 592Q759 592 696 608.50Q633 625 561 657Q486 689 441 701Q396 713 348 713Z"  horiz-adv-x="1128" vert-adv-y="2048"  />

      
      <glyph glyph-name="unia1" unicode="&#xa1;" d="M260 684L369 684L193-373L-14-373L260 684M250 950Q250 1026 290.50 1072Q331 1118 401 1118Q445 1118 471.50 1092Q498 1066 498 1012Q498 941 457.50 894.50Q417 848 352 848Q304 848 277 873.50Q250 899 250 950Z"  horiz-adv-x="530" vert-adv-y="2048"  />

      
      <glyph glyph-name="unia2" unicode="&#xa2;" d="M582-20L457-20L500 195Q368 229 296.50 332.50Q225 436 225 590Q225 775 288.50 934Q352 1093 467 1192.50Q582 1292 727 1313L762 1483L885 1483L848 1315Q967 1306 1065 1266L1018 1124Q909 1176 799 1176Q687 1176 594.50 1099.50Q502 1023 449.50 886.50Q397 750 397 590Q397 465 463 392Q529 319 647 319Q719 319 783 339Q847 359 909 387L909 244Q786 182 623 178L582-20Z"  horiz-adv-x="1128" vert-adv-y="2048"  />

      
      <glyph glyph-name="unia3" unicode="&#xa3;" d="M842 1481Q1026 1481 1178 1395L1112 1262Q966 1341 834 1341Q621 1341 571 1104L502 778L872 778L846 651L475 651L428 432Q406 334 362 265.50Q318 197 238 154L963 154L930 0L-23 0L4 141Q209 187 262 430L309 651L109 651L135 778L336 778L412 1128Q487 1481 842 1481Z"  horiz-adv-x="1128" vert-adv-y="2048"  />

      
      <glyph glyph-name="unia4" unicode="&#xa4;" d="M229 723Q229 840 297 938L168 1067L260 1159L387 1030Q490 1100 604 1100Q718 1100 819 1030L948 1159L1040 1069L911 940Q981 836 981 723Q981 604 911 506L1038 379L948 289L819 416Q721 348 604 348Q485 348 387 418L260 291L170 381L297 508Q229 604 229 723M358 723Q358 620 429.50 548.50Q501 477 604 477Q708 477 781 548.50Q854 620 854 723Q854 827 781 900Q708 973 604 973Q502 973 430 900.50Q358 828 358 723Z"  horiz-adv-x="1128" vert-adv-y="2048"  />

      
      <glyph glyph-name="unia5" unicode="&#xa5;" d="M582 715L1073 1462L1260 1462L727 692L958 692L930 559L633 559L600 399L897 399L868 266L573 266L516 0L362 0L418 266L127 266L156 399L446 399L479 559L188 559L217 692L442 692L240 1462L403 1462L582 715Z"  horiz-adv-x="1128" vert-adv-y="2048"  />

      
      <glyph glyph-name="unia6" unicode="&#xa6;" d="M541 1556L680 1556L680 780L541 780L541 1556M541 281L680 281L680-496L541-496L541 281Z"  horiz-adv-x="1128" vert-adv-y="2048"  />

      
      <glyph glyph-name="unia7" unicode="&#xa7;" d="M174 770Q174 971 412 1077Q293 1147 293 1280Q293 1407 396.50 1486Q500 1565 676 1565Q865 1565 997 1497L944 1374Q796 1434 678 1434Q576 1434 515.50 1393.50Q455 1353 455 1284Q455 1235 493 1200.50Q531 1166 655 1110Q755 1066 804 1026.50Q853 987 879 937Q905 887 905 823Q905 726 844 643Q783 560 672 504Q786 433 786 315Q786 163 672 77.50Q558-8 354-8Q178-8 59 53L59 201Q115 167 195.50 145Q276 123 352 123Q485 123 556 167.50Q627 212 627 297Q627 345 576.50 386Q526 427 424 473Q286 534 230 603.50Q174 673 174 770M514 1010Q432 984 379 922.50Q326 861 326 791Q326 721 376.50 674Q427 627 575 563Q655 607 702.50 670Q750 733 750 801Q750 861 700.50 906.50Q651 952 514 1010Z"  horiz-adv-x="995" vert-adv-y="2048"  />

      
      <glyph glyph-name="unia8" unicode="&#xa8;" d="M457 1378Q457 1424 485 1457.50Q513 1491 559 1491Q637 1491 637 1411Q637 1362 607.50 1328Q578 1294 539 1294Q504 1294 480.50 1316Q457 1338 457 1378M821 1378Q821 1424 849 1457.50Q877 1491 924 1491Q1001 1491 1001 1411Q1001 1362 971.50 1328Q942 1294 903 1294Q868 1294 844.50 1316Q821 1338 821 1378Z"  horiz-adv-x="1135" vert-adv-y="2048"  />

      
      <glyph glyph-name="unia9" unicode="&#xa9;" d="M928 1059Q803 1059 736.50 972Q670 885 670 731Q670 562 735 481.50Q800 401 928 401Q1010 401 1139 444L1139 322Q1073 294 1026 284Q979 274 922 274Q730 274 625 393.50Q520 513 520 733Q520 941 630 1063.50Q740 1186 930 1186Q1060 1186 1178 1126L1118 1006Q1012 1059 928 1059M139 731Q139 931 239 1106Q339 1281 514 1382Q689 1483 891 1483Q1088 1483 1261 1386Q1434 1289 1538 1114Q1642 939 1642 731Q1642 527 1541.50 354.50Q1441 182 1268.50 81Q1096-20 891-20Q684-20 509 83.50Q334 187 236.50 360Q139 533 139 731M244 731Q244 558 331 407.50Q418 257 568.50 170.50Q719 84 891 84Q1065 84 1214 171Q1363 258 1450.50 406.50Q1538 555 1538 731Q1538 905 1451 1054Q1364 1203 1215.50 1290.50Q1067 1378 891 1378Q717 1378 568 1291Q419 1204 331.50 1055.50Q244 907 244 731Z"  horiz-adv-x="1704" vert-adv-y="2048"  />

      
      <glyph glyph-name="uniaa" unicode="&#xaa;" d="M498 1479Q612 1479 651 1376L657 1376L694 1466L780 1466L641 801L549 801L563 918L559 918Q519 862 469 825Q419 788 346 788Q269 788 219.50 848Q170 908 170 1014Q170 1141 211.50 1248.50Q253 1356 328 1417.50Q403 1479 498 1479M381 891Q442 891 493.50 940Q545 989 579.50 1077.50Q614 1166 614 1245Q614 1307 585.50 1341.50Q557 1376 500 1376Q408 1376 345.50 1273Q283 1170 283 1030Q283 891 381 891Z"  horiz-adv-x="686" vert-adv-y="2048"  />

      
      <glyph glyph-name="uniab" unicode="&#xab;" d="M88 584L479 958L557 877L260 549L432 162L319 113L88 555L88 584M483 541L850 946L936 877L653 512L811 162L698 113L483 510L483 541Z"  horiz-adv-x="958" vert-adv-y="2048"  />

      
      <glyph glyph-name="uniac" unicode="&#xac;" d="M1047 793L1047 264L907 264L907 651L127 651L127 793L1047 793Z"  horiz-adv-x="1128" vert-adv-y="2048"  />

      
      <glyph glyph-name="uniad" unicode="&#xad;" d="M55 469L90 627L569 627L535 469L55 469Z"  horiz-adv-x="639" vert-adv-y="2048"  />

      
      <glyph glyph-name="uniae" unicode="&#xae;" d="M139 731Q139 931 239 1106Q339 1281 514 1382Q689 1483 891 1483Q1088 1483 1261 1386Q1434 1289 1538 1114Q1642 939 1642 731Q1642 527 1541.50 354.50Q1441 182 1268.50 81Q1096-20 891-20Q684-20 509 83.50Q334 187 236.50 360Q139 533 139 731M244 731Q244 558 331 407.50Q418 257 568.50 170.50Q719 84 891 84Q1065 84 1214 171Q1363 258 1450.50 406.50Q1538 555 1538 731Q1538 905 1451 1054Q1364 1203 1215.50 1290.50Q1067 1378 891 1378Q717 1378 568 1291Q419 1204 331.50 1055.50Q244 907 244 731M1194 915Q1194 837 1146.50 774Q1099 711 1014 676L1241 291L1092 291L885 643L772 643L772 291L645 291L645 1171L874 1171Q1037 1171 1115.50 1108Q1194 1045 1194 915M772 762L864 762Q1059 762 1059 911Q1059 987 1011.50 1018Q964 1049 862 1049L772 1049L772 762Z"  horiz-adv-x="1704" vert-adv-y="2048"  />

      
      <glyph glyph-name="uniaf" unicode="&#xaf;" d="M1012 1556L227 1556L260 1688L1047 1688L1012 1556Z"  horiz-adv-x="782" vert-adv-y="2048"  />

      
      <glyph glyph-name="unib0" unicode="&#xb0;" d="M215 1171Q215 1299 305.50 1391Q396 1483 526 1483Q609 1483 681.50 1441.50Q754 1400 796 1327.50Q838 1255 838 1171Q838 1043 747.50 952.50Q657 862 526 862Q395 862 305 952.50Q215 1043 215 1171M328 1171Q328 1091 386 1033Q444 975 526 975Q609 975 666 1033.50Q723 1092 723 1171Q723 1253 665.50 1311.50Q608 1370 526 1370Q446 1370 387 1311.50Q328 1253 328 1171Z"  horiz-adv-x="877" vert-adv-y="2048"  />

      
      <glyph glyph-name="unib1" unicode="&#xb1;" d="M516 643L127 643L127 784L516 784L516 1176L657 1176L657 784L1047 784L1047 643L657 643L657 256L516 256L516 643M127 0L127 141L1047 141L1047 0L127 0Z"  horiz-adv-x="1128" vert-adv-y="2048"  />

      
      <glyph glyph-name="unib2" unicode="&#xb2;" d="M657 586L96 586L119 692L383 920Q498 1020 541.50 1069.50Q585 1119 605 1162.50Q625 1206 625 1253Q625 1306 594 1338Q563 1370 504 1370Q414 1370 309 1290L250 1380Q375 1481 524 1481Q633 1481 695.50 1424.50Q758 1368 758 1274Q758 1175 705.50 1094.50Q653 1014 508 889L287 702L682 702L657 586Z"  horiz-adv-x="717" vert-adv-y="2048"  />

      
      <glyph glyph-name="unib3" unicode="&#xb3;" d="M549 1036Q618 1019 657 968Q696 917 696 848Q696 716 605 642.50Q514 569 352 569Q227 569 119 625L119 752Q244 680 358 680Q563 680 563 850Q563 987 385 987L295 987L317 1094L412 1094Q509 1094 567 1135Q625 1176 625 1247Q625 1307 590.50 1337.50Q556 1368 497 1368Q395 1368 301 1300L246 1393Q355 1481 514 1481Q628 1481 692 1425Q756 1369 756 1274Q756 1094 549 1040L549 1036Z"  horiz-adv-x="717" vert-adv-y="2048"  />

      
      <glyph glyph-name="unib4" unicode="&#xb4;" d="M532 1268Q588 1328 657.50 1419.50Q727 1511 764 1569L954 1569L954 1548Q916 1499 814 1397Q712 1295 637 1241L532 1241L532 1268Z"  horiz-adv-x="1135" vert-adv-y="2048"  />

      
      <glyph glyph-name="unib5" unicode="&#xb5;" d="M295 266Q295 119 442 119Q531 119 614 178Q697 237 762.50 349Q828 461 862 618L967 1096L1130 1096L897 0L758 0L782 205L770 205Q677 84 587 32Q497-20 399-20Q287-20 236 76L227 76Q216-2 204.50-72Q193-142 121-492L-43-492L293 1096L461 1096L313 401Q295 309 295 266Z"  horiz-adv-x="1194" vert-adv-y="2048"  />

      
      <glyph glyph-name="unib6" unicode="&#xb6;" d="M1206-260L1092-260L1092 1401L879 1401L879-260L764-260L764 559Q702 541 618 541Q402 541 300.50 666Q199 791 199 1042Q199 1302 308 1429Q417 1556 649 1556L1206 1556L1206-260Z"  horiz-adv-x="1341" vert-adv-y="2048"  />

      
      <glyph glyph-name="unib7" unicode="&#xb7;" d="M170 690Q170 767 210.50 812.50Q251 858 322 858Q365 858 391.50 832Q418 806 418 753Q418 682 378 634.50Q338 587 270 587Q224 587 197 613Q170 639 170 690Z"  horiz-adv-x="518" vert-adv-y="2048"  />

      
      <glyph glyph-name="unib8" unicode="&#xb8;" d="M211-276Q211-374 130-433Q49-492-84-492Q-125-492-170-483L-170-383Q-132-389-102-389Q72-389 72-279Q72-233 33-211.50Q-6-190-66-182L35 0L141 0L80-121Q211-159 211-276Z"  horiz-adv-x="420" vert-adv-y="2048"  />

      
      <glyph glyph-name="unib9" unicode="&#xb9;" d="M537 1462L655 1462L469 586L334 586L446 1112Q471 1215 504 1337Q479 1312 454 1290.50Q429 1269 309 1190L258 1280L537 1462Z"  horiz-adv-x="717" vert-adv-y="2048"  />

      
      <glyph glyph-name="uniba" unicode="&#xba;" d="M745 1219Q745 1028 656.50 908Q568 788 416 788Q303 788 235.50 859Q168 930 168 1055Q168 1172 210 1270.50Q252 1369 327.50 1424Q403 1479 502 1479Q619 1479 682 1412Q745 1345 745 1219M500 1376Q398 1376 339.50 1288.50Q281 1201 281 1059Q281 974 319 931.50Q357 889 426 889Q520 889 578.50 977.50Q637 1066 637 1210Q637 1376 500 1376Z"  horiz-adv-x="688" vert-adv-y="2048"  />

      
      <glyph glyph-name="unibb" unicode="&#xbb;" d="M872 485L479 115L401 197L698 520L526 911L639 961L872 514L872 485M477 528L109 127L23 197L305 557L147 911L260 961L477 559L477 528Z"  horiz-adv-x="958" vert-adv-y="2048"  />

      
      <glyph glyph-name="unibc" unicode="&#xbc;" d="M1362 1462L276 0L123 0L1208 1462L1362 1462M483 1462L601 1462L415 586L280 586L392 1112Q417 1215 450 1337Q425 1312 400 1290.50Q375 1269 255 1190L204 1280L483 1462M1327 203L1198 203L1155 1L1028 1L1071 203L706 203L729 304L1210 883L1343 883L1222 320L1349 320L1327 203M1095 320Q1164 642 1185 715Q1165 679 1075 566L870 320L1095 320Z"  horiz-adv-x="1518" vert-adv-y="2048"  />

      
      <glyph glyph-name="unibd" unicode="&#xbd;" d="M427 1462L545 1462L359 586L224 586L336 1112Q361 1215 394 1337Q369 1312 344 1290.50Q319 1269 199 1190L148 1280L427 1462M1305 1462L219 0L66 0L1151 1462L1305 1462M1343 1L782 1L805 107L1069 335Q1184 435 1227.50 484.50Q1271 534 1291 577.50Q1311 621 1311 668Q1311 721 1280 753Q1249 785 1190 785Q1100 785 995 705L936 795Q1061 896 1210 896Q1319 896 1381.50 839.50Q1444 783 1444 689Q1444 590 1391.50 509.50Q1339 429 1194 304L973 117L1368 117L1343 1Z"  horiz-adv-x="1518" vert-adv-y="2048"  />

      
      <glyph glyph-name="unibe" unicode="&#xbe;" d="M517 1036Q586 1019 625 968Q664 917 664 848Q664 716 573 642.50Q482 569 320 569Q195 569 87 625L87 752Q212 680 326 680Q531 680 531 850Q531 987 353 987L263 987L285 1094L380 1094Q477 1094 535 1135Q593 1176 593 1247Q593 1307 558.50 1337.50Q524 1368 465 1368Q363 1368 269 1300L214 1393Q323 1481 482 1481Q596 1481 660 1425Q724 1369 724 1274Q724 1094 517 1040L517 1036M1512 1462L426 0L273 0L1358 1462L1512 1462M1477 203L1348 203L1305 1L1178 1L1221 203L856 203L879 304L1360 883L1493 883L1372 320L1499 320L1477 203M1245 320Q1314 642 1335 715Q1315 679 1225 566L1020 320L1245 320Z"  horiz-adv-x="1565" vert-adv-y="2048"  />

      
      <glyph glyph-name="unibf" unicode="&#xbf;" d="M657 680Q635 550 585 468Q535 386 420 293L325 218Q166 91 166-57Q166-150 217.50-201Q269-252 365-252Q445-252 519-226.50Q593-201 659-170L721-299Q631-347 532-373Q433-399 346-399Q178-399 87-315.50Q-4-232-4-78Q-4 46 62 150Q128 254 287 373Q419 471 459.50 525.50Q500 580 522 680L657 680M760 1010Q760 933 719.50 887.50Q679 842 608 842Q565 842 538.50 868Q512 894 512 946Q512 1017 552 1064.50Q592 1112 659 1112Q706 1112 733 1086.50Q760 1061 760 1010Z"  horiz-adv-x="874" vert-adv-y="2048"  />

      
      <glyph glyph-name="unic0" unicode="&#xc0;" d="M813 465L317 465L72 0L-117 0L682 1462L856 1462L1040 0L870 0L813 465M795 621L760 920Q736 1099 731 1270Q694 1182 650.50 1095Q607 1008 401 621L795 621M863 1579L759 1579Q698 1640 630.50 1733Q563 1826 535 1886L535 1907L716 1907Q759 1771 863 1604L863 1579Z"  horiz-adv-x="1137" vert-adv-y="2048"  />

      
      <glyph glyph-name="unic1" unicode="&#xc1;" d="M813 465L317 465L72 0L-117 0L682 1462L856 1462L1040 0L870 0L813 465M795 621L760 920Q736 1099 731 1270Q694 1182 650.50 1095Q607 1008 401 621L795 621M679 1606Q735 1666 804.50 1757.50Q874 1849 911 1907L1101 1907L1101 1886Q1063 1837 961 1735Q859 1633 784 1579L679 1579L679 1606Z"  horiz-adv-x="1137" vert-adv-y="2048"  />

      
      <glyph glyph-name="unic2" unicode="&#xc2;" d="M813 465L317 465L72 0L-117 0L682 1462L856 1462L1040 0L870 0L813 465M795 621L760 920Q736 1099 731 1270Q694 1182 650.50 1095Q607 1008 401 621L795 621M1080 1579L977 1579Q920 1627 816 1768Q682 1649 574 1579L465 1579L465 1606Q610 1739 669.50 1803.50Q729 1868 752 1907L910 1907Q947 1808 1038 1672L1080 1606L1080 1579Z"  horiz-adv-x="1137" vert-adv-y="2048"  />

      
      <glyph glyph-name="unic3" unicode="&#xc3;" d="M813 465L317 465L72 0L-117 0L682 1462L856 1462L1040 0L870 0L813 465M795 621L760 920Q736 1099 731 1270Q694 1182 650.50 1095Q607 1008 401 621L795 621M934 1581Q894 1581 856.50 1598.50Q819 1616 783.50 1637.50Q748 1659 714.50 1676.50Q681 1694 649 1694Q605 1694 579.50 1665.50Q554 1637 532 1579L432 1579Q490 1837 663 1837Q707 1837 746.50 1819Q786 1801 821.50 1779.50Q857 1758 888 1740Q919 1722 946 1722Q990 1722 1015.50 1749Q1041 1776 1067 1839L1167 1839Q1101 1581 934 1581Z"  horiz-adv-x="1137" vert-adv-y="2048"  />

      
      <glyph glyph-name="unic4" unicode="&#xc4;" d="M813 465L317 465L72 0L-117 0L682 1462L856 1462L1040 0L870 0L813 465M795 621L760 920Q736 1099 731 1270Q694 1182 650.50 1095Q607 1008 401 621L795 621M523 1716Q523 1762 551 1795.50Q579 1829 625 1829Q703 1829 703 1749Q703 1700 673.50 1666Q644 1632 605 1632Q570 1632 546.50 1654Q523 1676 523 1716M887 1716Q887 1762 915 1795.50Q943 1829 990 1829Q1067 1829 1067 1749Q1067 1700 1037.50 1666Q1008 1632 969 1632Q934 1632 910.50 1654Q887 1676 887 1716Z"  horiz-adv-x="1137" vert-adv-y="2048"  />

      
      <glyph glyph-name="unic5" unicode="&#xc5;" d="M813 465L317 465L72 0L-117 0L682 1462L856 1462L1040 0L870 0L813 465M795 621L760 920Q736 1099 731 1270Q694 1182 650.50 1095Q607 1008 401 621L795 621M991 1585Q991 1486 931 1428Q871 1370 772 1370Q671 1370 612 1427.50Q553 1485 553 1583Q553 1677 615 1735.50Q677 1794 772 1794Q873 1794 932 1737Q991 1680 991 1585M887 1583Q887 1636 855 1667Q823 1698 772 1698Q723 1698 690 1667Q657 1636 657 1583Q657 1529 686.50 1498.50Q716 1468 772 1468Q823 1468 855 1498.50Q887 1529 887 1583Z"  horiz-adv-x="1137" vert-adv-y="2048"  />

      
      <glyph glyph-name="unic6" unicode="&#xc6;" d="M1448 0L711 0L809 465L371 465L78 0L-119 0L819 1462L1757 1462L1724 1309L1159 1309L1059 840L1587 840L1559 690L1030 690L915 152L1481 152L1448 0M840 621L987 1309L903 1309L469 621L840 621Z"  horiz-adv-x="1673" vert-adv-y="2048"  />

      
      <glyph glyph-name="unic7" unicode="&#xc7;" d="M942 1331Q768 1331 630.50 1234Q493 1137 412.50 949.50Q332 762 332 541Q332 354 429.50 242.50Q527 131 698 131Q837 131 1020 188L1020 39Q934 8 856-6Q778-20 668-20Q426-20 288 129.50Q150 279 150 537Q150 798 255.50 1022.50Q361 1247 539 1365Q717 1483 942 1483Q1139 1483 1290 1403L1221 1262Q1083 1331 942 1331M758-276Q758-374 677-433Q596-492 463-492Q422-492 377-483L377-383Q415-389 445-389Q619-389 619-279Q619-233 580-211.50Q541-190 481-182L582 0L688 0L627-121Q758-159 758-276Z"  horiz-adv-x="1198" vert-adv-y="2048"  />

      
      <glyph glyph-name="unic8" unicode="&#xc8;" d="M821 0L86 0L395 1462L1130 1462L1098 1309L532 1309L434 840L961 840L932 688L403 688L289 152L854 152L821 0M898 1579L794 1579Q733 1640 665.50 1733Q598 1826 570 1886L570 1907L751 1907Q794 1771 898 1604L898 1579Z"  horiz-adv-x="1047" vert-adv-y="2048"  />

      
      <glyph glyph-name="unic9" unicode="&#xc9;" d="M821 0L86 0L395 1462L1130 1462L1098 1309L532 1309L434 840L961 840L932 688L403 688L289 152L854 152L821 0M657 1606Q713 1666 782.50 1757.50Q852 1849 889 1907L1079 1907L1079 1886Q1041 1837 939 1735Q837 1633 762 1579L657 1579L657 1606Z"  horiz-adv-x="1047" vert-adv-y="2048"  />

      
      <glyph glyph-name="unica" unicode="&#xca;" d="M821 0L86 0L395 1462L1130 1462L1098 1309L532 1309L434 840L961 840L932 688L403 688L289 152L854 152L821 0M1084 1579L981 1579Q924 1627 820 1768Q686 1649 578 1579L469 1579L469 1606Q614 1739 673.50 1803.50Q733 1868 756 1907L914 1907Q951 1808 1042 1672L1084 1606L1084 1579Z"  horiz-adv-x="1047" vert-adv-y="2048"  />

      
      <glyph glyph-name="unicb" unicode="&#xcb;" d="M821 0L86 0L395 1462L1130 1462L1098 1309L532 1309L434 840L961 840L932 688L403 688L289 152L854 152L821 0M523 1716Q523 1762 551 1795.50Q579 1829 625 1829Q703 1829 703 1749Q703 1700 673.50 1666Q644 1632 605 1632Q570 1632 546.50 1654Q523 1676 523 1716M887 1716Q887 1762 915 1795.50Q943 1829 990 1829Q1067 1829 1067 1749Q1067 1700 1037.50 1666Q1008 1632 969 1632Q934 1632 910.50 1654Q887 1676 887 1716Z"  horiz-adv-x="1047" vert-adv-y="2048"  />

      
      <glyph glyph-name="unicc" unicode="&#xcc;" d="M86 0L397 1462L565 1462L254 0L86 0M593 1579L489 1579Q428 1640 360.50 1733Q293 1826 265 1886L265 1907L446 1907Q489 1771 593 1604L593 1579Z"  horiz-adv-x="559" vert-adv-y="2048"  />

      
      <glyph glyph-name="unicd" unicode="&#xcd;" d="M86 0L397 1462L565 1462L254 0L86 0M412 1606Q468 1666 537.50 1757.50Q607 1849 644 1907L834 1907L834 1886Q796 1837 694 1735Q592 1633 517 1579L412 1579L412 1606Z"  horiz-adv-x="559" vert-adv-y="2048"  />

      
      <glyph glyph-name="unice" unicode="&#xce;" d="M86 0L397 1462L565 1462L254 0L86 0M808 1579L705 1579Q648 1627 544 1768Q410 1649 302 1579L193 1579L193 1606Q338 1739 397.50 1803.50Q457 1868 480 1907L638 1907Q675 1808 766 1672L808 1606L808 1579Z"  horiz-adv-x="559" vert-adv-y="2048"  />

      
      <glyph glyph-name="unicf" unicode="&#xcf;" d="M86 0L397 1462L565 1462L254 0L86 0M265 1716Q265 1762 293 1795.50Q321 1829 367 1829Q445 1829 445 1749Q445 1700 415.50 1666Q386 1632 347 1632Q312 1632 288.50 1654Q265 1676 265 1716M629 1716Q629 1762 657 1795.50Q685 1829 732 1829Q809 1829 809 1749Q809 1700 779.50 1666Q750 1632 711 1632Q676 1632 652.50 1654Q629 1676 629 1716Z"  horiz-adv-x="559" vert-adv-y="2048"  />

      
      <glyph glyph-name="unid0" unicode="&#xd0;" d="M1300 877Q1300 616 1195 416Q1090 216 895 108Q700 0 438 0L86 0L221 649L72 649L104 799L254 799L395 1462L737 1462Q1013 1462 1156.50 1312.50Q1300 1163 1300 877M449 147Q651 147 804 238.50Q957 330 1038.50 497Q1120 664 1120 879Q1120 1094 1017 1204.50Q914 1315 715 1315L537 1315L426 799L756 799L723 649L393 649L287 147L449 147Z"  horiz-adv-x="1364" vert-adv-y="2048"  />

      
      <glyph glyph-name="unid1" unicode="&#xd1;" d="M1139 0L958 0L498 1223L492 1223Q460 1002 418 805L246 0L84 0L393 1462L573 1462L1032 242L1038 242Q1068 466 1110 647L1284 1462L1448 1462L1139 0M1102 1581Q1062 1581 1024.50 1598.50Q987 1616 951.50 1637.50Q916 1659 882.50 1676.50Q849 1694 817 1694Q773 1694 747.50 1665.50Q722 1637 700 1579L600 1579Q658 1837 831 1837Q875 1837 914.50 1819Q954 1801 989.50 1779.50Q1025 1758 1056 1740Q1087 1722 1114 1722Q1158 1722 1183.50 1749Q1209 1776 1235 1839L1335 1839Q1269 1581 1102 1581Z"  horiz-adv-x="1438" vert-adv-y="2048"  />

      
      <glyph glyph-name="unid2" unicode="&#xd2;" d="M1411 907Q1411 638 1323 425.50Q1235 213 1071 96.50Q907-20 692-20Q436-20 293 129.50Q150 279 150 549Q150 813 246 1031Q342 1249 509.50 1367Q677 1485 887 1485Q1131 1485 1271 1331Q1411 1177 1411 907M874 1333Q717 1333 593 1232Q469 1131 400.50 951Q332 771 332 553Q332 354 430 242.50Q528 131 696 131Q848 131 968.50 228.50Q1089 326 1159 508Q1229 690 1229 911Q1229 1110 1135 1221.50Q1041 1333 874 1333M1007 1579L903 1579Q842 1640 774.50 1733Q707 1826 679 1886L679 1907L860 1907Q903 1771 1007 1604L1007 1579Z"  horiz-adv-x="1475" vert-adv-y="2048"  />

      
      <glyph glyph-name="unid3" unicode="&#xd3;" d="M1411 907Q1411 638 1323 425.50Q1235 213 1071 96.50Q907-20 692-20Q436-20 293 129.50Q150 279 150 549Q150 813 246 1031Q342 1249 509.50 1367Q677 1485 887 1485Q1131 1485 1271 1331Q1411 1177 1411 907M874 1333Q717 1333 593 1232Q469 1131 400.50 951Q332 771 332 553Q332 354 430 242.50Q528 131 696 131Q848 131 968.50 228.50Q1089 326 1159 508Q1229 690 1229 911Q1229 1110 1135 1221.50Q1041 1333 874 1333M821 1606Q877 1666 946.50 1757.50Q1016 1849 1053 1907L1243 1907L1243 1886Q1205 1837 1103 1735Q1001 1633 926 1579L821 1579L821 1606Z"  horiz-adv-x="1475" vert-adv-y="2048"  />

      
      <glyph glyph-name="unid4" unicode="&#xd4;" d="M1411 907Q1411 638 1323 425.50Q1235 213 1071 96.50Q907-20 692-20Q436-20 293 129.50Q150 279 150 549Q150 813 246 1031Q342 1249 509.50 1367Q677 1485 887 1485Q1131 1485 1271 1331Q1411 1177 1411 907M874 1333Q717 1333 593 1232Q469 1131 400.50 951Q332 771 332 553Q332 354 430 242.50Q528 131 696 131Q848 131 968.50 228.50Q1089 326 1159 508Q1229 690 1229 911Q1229 1110 1135 1221.50Q1041 1333 874 1333M1227 1579L1124 1579Q1067 1627 963 1768Q829 1649 721 1579L612 1579L612 1606Q757 1739 816.50 1803.50Q876 1868 899 1907L1057 1907Q1094 1808 1185 1672L1227 1606L1227 1579Z"  horiz-adv-x="1475" vert-adv-y="2048"  />

      
      <glyph glyph-name="unid5" unicode="&#xd5;" d="M1411 907Q1411 638 1323 425.50Q1235 213 1071 96.50Q907-20 692-20Q436-20 293 129.50Q150 279 150 549Q150 813 246 1031Q342 1249 509.50 1367Q677 1485 887 1485Q1131 1485 1271 1331Q1411 1177 1411 907M874 1333Q717 1333 593 1232Q469 1131 400.50 951Q332 771 332 553Q332 354 430 242.50Q528 131 696 131Q848 131 968.50 228.50Q1089 326 1159 508Q1229 690 1229 911Q1229 1110 1135 1221.50Q1041 1333 874 1333M1067 1581Q1027 1581 989.50 1598.50Q952 1616 916.50 1637.50Q881 1659 847.50 1676.50Q814 1694 782 1694Q738 1694 712.50 1665.50Q687 1637 665 1579L565 1579Q623 1837 796 1837Q840 1837 879.50 1819Q919 1801 954.50 1779.50Q990 1758 1021 1740Q1052 1722 1079 1722Q1123 1722 1148.50 1749Q1174 1776 1200 1839L1300 1839Q1234 1581 1067 1581Z"  horiz-adv-x="1475" vert-adv-y="2048"  />

      
      <glyph glyph-name="unid6" unicode="&#xd6;" d="M1411 907Q1411 638 1323 425.50Q1235 213 1071 96.50Q907-20 692-20Q436-20 293 129.50Q150 279 150 549Q150 813 246 1031Q342 1249 509.50 1367Q677 1485 887 1485Q1131 1485 1271 1331Q1411 1177 1411 907M874 1333Q717 1333 593 1232Q469 1131 400.50 951Q332 771 332 553Q332 354 430 242.50Q528 131 696 131Q848 131 968.50 228.50Q1089 326 1159 508Q1229 690 1229 911Q1229 1110 1135 1221.50Q1041 1333 874 1333M664 1716Q664 1762 692 1795.50Q720 1829 766 1829Q844 1829 844 1749Q844 1700 814.50 1666Q785 1632 746 1632Q711 1632 687.50 1654Q664 1676 664 1716M1028 1716Q1028 1762 1056 1795.50Q1084 1829 1131 1829Q1208 1829 1208 1749Q1208 1700 1178.50 1666Q1149 1632 1110 1632Q1075 1632 1051.50 1654Q1028 1676 1028 1716Z"  horiz-adv-x="1475" vert-adv-y="2048"  />

      
      <glyph glyph-name="unid7" unicode="&#xd7;" d="M487 723L168 1044L266 1143L586 823L909 1143L1008 1047L684 723L1006 401L909 305L586 625L266 307L170 403L487 723Z"  horiz-adv-x="1128" vert-adv-y="2048"  />

      
      <glyph glyph-name="unid8" unicode="&#xd8;" d="M1411 907Q1411 638 1323 425.50Q1235 213 1071 96.50Q907-20 692-20Q492-20 360 76L231-84L119 8L256 178Q150 314 150 549Q150 813 246 1031Q342 1249 509.50 1367Q677 1485 887 1485Q986 1485 1065.50 1458Q1145 1431 1217 1374L1348 1540L1462 1448L1313 1264Q1361 1202 1386 1108Q1411 1014 1411 907M874 1333Q717 1333 593 1232Q469 1131 400.50 951Q332 771 332 553Q332 418 373 326L1110 1245Q1020 1333 874 1333M1229 911Q1229 1029 1196 1116L463 205Q554 131 696 131Q848 131 968.50 228.50Q1089 326 1159 508Q1229 690 1229 911Z"  horiz-adv-x="1475" vert-adv-y="2048"  />

      
      <glyph glyph-name="unid9" unicode="&#xd9;" d="M1407 1462L1202 496Q1147 233 1004.50 106.50Q862-20 616-20Q386-20 275 84Q164 188 164 383Q164 464 188 584L377 1462L547 1462L356 571Q334 465 334 383Q334 266 407 198.50Q480 131 625 131Q797 131 892.50 218.50Q988 306 1032 508L1237 1462L1407 1462M991 1579L887 1579Q826 1640 758.50 1733Q691 1826 663 1886L663 1907L844 1907Q887 1771 991 1604L991 1579Z"  horiz-adv-x="1384" vert-adv-y="2048"  />

      
      <glyph glyph-name="unida" unicode="&#xda;" d="M1407 1462L1202 496Q1147 233 1004.50 106.50Q862-20 616-20Q386-20 275 84Q164 188 164 383Q164 464 188 584L377 1462L547 1462L356 571Q334 465 334 383Q334 266 407 198.50Q480 131 625 131Q797 131 892.50 218.50Q988 306 1032 508L1237 1462L1407 1462M823 1606Q879 1666 948.50 1757.50Q1018 1849 1055 1907L1245 1907L1245 1886Q1207 1837 1105 1735Q1003 1633 928 1579L823 1579L823 1606Z"  horiz-adv-x="1384" vert-adv-y="2048"  />

      
      <glyph glyph-name="unidb" unicode="&#xdb;" d="M1407 1462L1202 496Q1147 233 1004.50 106.50Q862-20 616-20Q386-20 275 84Q164 188 164 383Q164 464 188 584L377 1462L547 1462L356 571Q334 465 334 383Q334 266 407 198.50Q480 131 625 131Q797 131 892.50 218.50Q988 306 1032 508L1237 1462L1407 1462M1217 1579L1114 1579Q1057 1627 953 1768Q819 1649 711 1579L602 1579L602 1606Q747 1739 806.50 1803.50Q866 1868 889 1907L1047 1907Q1084 1808 1175 1672L1217 1606L1217 1579Z"  horiz-adv-x="1384" vert-adv-y="2048"  />

      
      <glyph glyph-name="unidc" unicode="&#xdc;" d="M1407 1462L1202 496Q1147 233 1004.50 106.50Q862-20 616-20Q386-20 275 84Q164 188 164 383Q164 464 188 584L377 1462L547 1462L356 571Q334 465 334 383Q334 266 407 198.50Q480 131 625 131Q797 131 892.50 218.50Q988 306 1032 508L1237 1462L1407 1462M643 1716Q643 1762 671 1795.50Q699 1829 745 1829Q823 1829 823 1749Q823 1700 793.50 1666Q764 1632 725 1632Q690 1632 666.50 1654Q643 1676 643 1716M1007 1716Q1007 1762 1035 1795.50Q1063 1829 1110 1829Q1187 1829 1187 1749Q1187 1700 1157.50 1666Q1128 1632 1089 1632Q1054 1632 1030.50 1654Q1007 1676 1007 1716Z"  horiz-adv-x="1384" vert-adv-y="2048"  />

      
      <glyph glyph-name="unidd" unicode="&#xdd;" d="M537 715L1026 1462L1219 1462L592 541L479 0L307 0L426 549L188 1462L358 1462L537 715M616 1606Q672 1666 741.50 1757.50Q811 1849 848 1907L1038 1907L1038 1886Q1000 1837 898 1735Q796 1633 721 1579L616 1579L616 1606Z"  horiz-adv-x="1030" vert-adv-y="2048"  />

      
      <glyph glyph-name="unide" unicode="&#xde;" d="M1106 829Q1106 581 942 450Q778 319 459 319L326 319L256 0L86 0L395 1462L565 1462L512 1206L672 1206Q885 1206 995.50 1111Q1106 1016 1106 829M354 465L489 465Q704 465 817 556Q930 647 930 823Q930 949 860 1004Q790 1059 645 1059L479 1059L354 465Z"  horiz-adv-x="1159" vert-adv-y="2048"  />

      
      <glyph glyph-name="unidf" unicode="&#xdf;" d="M-133-492Q-202-492-256-471L-256-328Q-195-350-145-350Q-80-350-38-302.50Q4-255 27-145L307 1169Q350 1369 463 1468Q576 1567 770 1567Q932 1567 1022 1496Q1112 1425 1112 1300Q1112 1243 1091 1193.50Q1070 1144 1029.50 1098.50Q989 1053 851 948Q741 865 741 797Q741 741 836 675Q883 641 937 587.50Q991 534 1016.50 477.50Q1042 421 1042 354Q1042 179 933.50 79.50Q825-20 641-20Q466-20 373 51L373 211Q424 170 491.50 144.50Q559 119 621 119Q734 119 802 177Q870 235 870 336Q870 376 859.50 407Q849 438 826 466Q803 494 737 549Q649 618 614.50 673Q580 728 580 788Q580 841 598.50 884Q617 927 648 962.50Q679 998 772 1067Q852 1123 883 1154.50Q914 1186 931 1219.50Q948 1253 948 1290Q948 1354 895.50 1390.50Q843 1427 754 1427Q635 1427 568 1364.50Q501 1302 473 1174L199-129Q159-318 78-405Q-3-492-133-492Z"  horiz-adv-x="1182" vert-adv-y="2048"  />

      
      <glyph glyph-name="unie0" unicode="&#xe0;" d="M639 1116Q731 1116 803 1066.50Q875 1017 915 924L926 924L993 1096L1120 1096L887 0L754 0L780 209L772 209Q593-20 395-20Q256-20 177 79Q98 178 98 350Q98 558 169 736Q240 914 365 1015Q490 1116 639 1116M449 119Q546 119 642 211.50Q738 304 798 452.50Q858 601 858 750Q858 853 802 914Q746 975 655 975Q551 975 461.50 889Q372 803 321 656Q270 509 270 346Q270 232 317 175.50Q364 119 449 119M824 1241L720 1241Q659 1302 591.50 1395Q524 1488 496 1548L496 1569L677 1569Q720 1433 824 1266L824 1241Z"  horiz-adv-x="1157" vert-adv-y="2048"  />

      
      <glyph glyph-name="unie1" unicode="&#xe1;" d="M639 1116Q731 1116 803 1066.50Q875 1017 915 924L926 924L993 1096L1120 1096L887 0L754 0L780 209L772 209Q593-20 395-20Q256-20 177 79Q98 178 98 350Q98 558 169 736Q240 914 365 1015Q490 1116 639 1116M449 119Q546 119 642 211.50Q738 304 798 452.50Q858 601 858 750Q858 853 802 914Q746 975 655 975Q551 975 461.50 889Q372 803 321 656Q270 509 270 346Q270 232 317 175.50Q364 119 449 119M600 1268Q656 1328 725.50 1419.50Q795 1511 832 1569L1022 1569L1022 1548Q984 1499 882 1397Q780 1295 705 1241L600 1241L600 1268Z"  horiz-adv-x="1157" vert-adv-y="2048"  />

      
      <glyph glyph-name="unie2" unicode="&#xe2;" d="M639 1116Q731 1116 803 1066.50Q875 1017 915 924L926 924L993 1096L1120 1096L887 0L754 0L780 209L772 209Q593-20 395-20Q256-20 177 79Q98 178 98 350Q98 558 169 736Q240 914 365 1015Q490 1116 639 1116M449 119Q546 119 642 211.50Q738 304 798 452.50Q858 601 858 750Q858 853 802 914Q746 975 655 975Q551 975 461.50 889Q372 803 321 656Q270 509 270 346Q270 232 317 175.50Q364 119 449 119M1005 1241L902 1241Q845 1289 741 1430Q607 1311 499 1241L390 1241L390 1268Q535 1401 594.50 1465.50Q654 1530 677 1569L835 1569Q872 1470 963 1334L1005 1268L1005 1241Z"  horiz-adv-x="1157" vert-adv-y="2048"  />

      
      <glyph glyph-name="unie3" unicode="&#xe3;" d="M639 1116Q731 1116 803 1066.50Q875 1017 915 924L926 924L993 1096L1120 1096L887 0L754 0L780 209L772 209Q593-20 395-20Q256-20 177 79Q98 178 98 350Q98 558 169 736Q240 914 365 1015Q490 1116 639 1116M449 119Q546 119 642 211.50Q738 304 798 452.50Q858 601 858 750Q858 853 802 914Q746 975 655 975Q551 975 461.50 889Q372 803 321 656Q270 509 270 346Q270 232 317 175.50Q364 119 449 119M856 1243Q816 1243 778.50 1260.50Q741 1278 705.50 1299.50Q670 1321 636.50 1338.50Q603 1356 571 1356Q527 1356 501.50 1327.50Q476 1299 454 1241L354 1241Q412 1499 585 1499Q629 1499 668.50 1481Q708 1463 743.50 1441.50Q779 1420 810 1402Q841 1384 868 1384Q912 1384 937.50 1411Q963 1438 989 1501L1089 1501Q1023 1243 856 1243Z"  horiz-adv-x="1157" vert-adv-y="2048"  />

      
      <glyph glyph-name="unie4" unicode="&#xe4;" d="M639 1116Q731 1116 803 1066.50Q875 1017 915 924L926 924L993 1096L1120 1096L887 0L754 0L780 209L772 209Q593-20 395-20Q256-20 177 79Q98 178 98 350Q98 558 169 736Q240 914 365 1015Q490 1116 639 1116M449 119Q546 119 642 211.50Q738 304 798 452.50Q858 601 858 750Q858 853 802 914Q746 975 655 975Q551 975 461.50 889Q372 803 321 656Q270 509 270 346Q270 232 317 175.50Q364 119 449 119M454 1378Q454 1424 482 1457.50Q510 1491 556 1491Q634 1491 634 1411Q634 1362 604.50 1328Q575 1294 536 1294Q501 1294 477.50 1316Q454 1338 454 1378M818 1378Q818 1424 846 1457.50Q874 1491 921 1491Q998 1491 998 1411Q998 1362 968.50 1328Q939 1294 900 1294Q865 1294 841.50 1316Q818 1338 818 1378Z"  horiz-adv-x="1157" vert-adv-y="2048"  />

      
      <glyph glyph-name="unie5" unicode="&#xe5;" d="M639 1116Q731 1116 803 1066.50Q875 1017 915 924L926 924L993 1096L1120 1096L887 0L754 0L780 209L772 209Q593-20 395-20Q256-20 177 79Q98 178 98 350Q98 558 169 736Q240 914 365 1015Q490 1116 639 1116M449 119Q546 119 642 211.50Q738 304 798 452.50Q858 601 858 750Q858 853 802 914Q746 975 655 975Q551 975 461.50 889Q372 803 321 656Q270 509 270 346Q270 232 317 175.50Q364 119 449 119M951 1456Q951 1357 891 1299Q831 1241 732 1241Q631 1241 572 1298.50Q513 1356 513 1454Q513 1548 575 1606.50Q637 1665 732 1665Q833 1665 892 1608Q951 1551 951 1456M847 1454Q847 1507 815 1538Q783 1569 732 1569Q683 1569 650 1538Q617 1507 617 1454Q617 1400 646.50 1369.50Q676 1339 732 1339Q783 1339 815 1369.50Q847 1400 847 1454Z"  horiz-adv-x="1157" vert-adv-y="2048"  />

      
      <glyph glyph-name="unie6" unicode="&#xe6;" d="M1165-20Q1057-20 975.50 19.50Q894 59 854 139L823 0L709 0L735 209L727 209Q618 77 535.50 28.50Q453-20 358-20Q236-20 167 79Q98 178 98 348Q98 554 168.50 733Q239 912 360 1014Q481 1116 623 1116Q705 1116 768 1067.50Q831 1019 870 924L881 924L948 1096L1057 1096L1026 950Q1149 1116 1358 1116Q1477 1116 1550.50 1048Q1624 980 1624 864Q1624 682 1457.50 580.50Q1291 479 985 479L946 479L942 399Q942 268 1004.50 194.50Q1067 121 1198 121Q1253 121 1314.50 137.50Q1376 154 1493 205L1493 55Q1329-20 1165-20M412 119Q507 119 600.50 210.50Q694 302 753.50 451Q813 600 813 750Q813 853 767.50 914Q722 975 645 975Q546 975 458 888.50Q370 802 320 657Q270 512 270 348Q270 234 307 176.50Q344 119 412 119M1325 973Q1208 973 1114 878.50Q1020 784 973 618L987 618Q1213 618 1335.50 676.50Q1458 735 1458 846Q1458 907 1423 940Q1388 973 1325 973Z"  horiz-adv-x="1669" vert-adv-y="2048"  />

      
      <glyph glyph-name="unie7" unicode="&#xe7;" d="M506-20Q312-20 205 87Q98 194 98 389Q98 589 172 758Q246 927 376.50 1021.50Q507 1116 670 1116Q807 1116 938 1065L891 924Q771 975 672 975Q560 975 467.50 898.50Q375 822 322.50 685.50Q270 549 270 389Q270 261 336.50 190Q403 119 520 119Q592 119 656 139Q720 159 782 186L782 43Q658-20 506-20M592-276Q592-374 511-433Q430-492 297-492Q256-492 211-483L211-383Q249-389 279-389Q453-389 453-279Q453-233 414-211.50Q375-190 315-182L416 0L522 0L461-121Q592-159 592-276Z"  horiz-adv-x="922" vert-adv-y="2048"  />

      
      <glyph glyph-name="unie8" unicode="&#xe8;" d="M492-20Q308-20 203 89Q98 198 98 391Q98 579 172.50 751.50Q247 924 370 1020Q493 1116 641 1116Q794 1116 871 1049.50Q948 983 948 864Q948 684 782 581.50Q616 479 307 479L274 479L270 399Q270 268 331.50 194.50Q393 121 522 121Q585 121 651.50 139Q718 157 817 205L817 59Q723 15 651-2.50Q579-20 492-20M631 973Q528 973 437.50 879Q347 785 299 618L311 618Q539 618 660.50 677.50Q782 737 782 850Q782 903 745.50 938Q709 973 631 973M777 1241L673 1241Q612 1302 544.50 1395Q477 1488 449 1548L449 1569L630 1569Q673 1433 777 1266L777 1241Z"  horiz-adv-x="1010" vert-adv-y="2048"  />

      
      <glyph glyph-name="unie9" unicode="&#xe9;" d="M492-20Q308-20 203 89Q98 198 98 391Q98 579 172.50 751.50Q247 924 370 1020Q493 1116 641 1116Q794 1116 871 1049.50Q948 983 948 864Q948 684 782 581.50Q616 479 307 479L274 479L270 399Q270 268 331.50 194.50Q393 121 522 121Q585 121 651.50 139Q718 157 817 205L817 59Q723 15 651-2.50Q579-20 492-20M631 973Q528 973 437.50 879Q347 785 299 618L311 618Q539 618 660.50 677.50Q782 737 782 850Q782 903 745.50 938Q709 973 631 973M585 1268Q641 1328 710.50 1419.50Q780 1511 817 1569L1007 1569L1007 1548Q969 1499 867 1397Q765 1295 690 1241L585 1241L585 1268Z"  horiz-adv-x="1010" vert-adv-y="2048"  />

      
      <glyph glyph-name="uniea" unicode="&#xea;" d="M492-20Q308-20 203 89Q98 198 98 391Q98 579 172.50 751.50Q247 924 370 1020Q493 1116 641 1116Q794 1116 871 1049.50Q948 983 948 864Q948 684 782 581.50Q616 479 307 479L274 479L270 399Q270 268 331.50 194.50Q393 121 522 121Q585 121 651.50 139Q718 157 817 205L817 59Q723 15 651-2.50Q579-20 492-20M631 973Q528 973 437.50 879Q347 785 299 618L311 618Q539 618 660.50 677.50Q782 737 782 850Q782 903 745.50 938Q709 973 631 973M966 1241L863 1241Q806 1289 702 1430Q568 1311 460 1241L351 1241L351 1268Q496 1401 555.50 1465.50Q615 1530 638 1569L796 1569Q833 1470 924 1334L966 1268L966 1241Z"  horiz-adv-x="1010" vert-adv-y="2048"  />

      
      <glyph glyph-name="unieb" unicode="&#xeb;" d="M492-20Q308-20 203 89Q98 198 98 391Q98 579 172.50 751.50Q247 924 370 1020Q493 1116 641 1116Q794 1116 871 1049.50Q948 983 948 864Q948 684 782 581.50Q616 479 307 479L274 479L270 399Q270 268 331.50 194.50Q393 121 522 121Q585 121 651.50 139Q718 157 817 205L817 59Q723 15 651-2.50Q579-20 492-20M631 973Q528 973 437.50 879Q347 785 299 618L311 618Q539 618 660.50 677.50Q782 737 782 850Q782 903 745.50 938Q709 973 631 973M413 1378Q413 1424 441 1457.50Q469 1491 515 1491Q593 1491 593 1411Q593 1362 563.50 1328Q534 1294 495 1294Q460 1294 436.50 1316Q413 1338 413 1378M777 1378Q777 1424 805 1457.50Q833 1491 880 1491Q957 1491 957 1411Q957 1362 927.50 1328Q898 1294 859 1294Q824 1294 800.50 1316Q777 1338 777 1378Z"  horiz-adv-x="1010" vert-adv-y="2048"  />

      
      <glyph glyph-name="uniec" unicode="&#xec;" d="M227 0L59 0L293 1096L461 1096L227 0M492 1241L388 1241Q327 1302 259.50 1395Q192 1488 164 1548L164 1569L345 1569Q388 1433 492 1266L492 1241Z"  horiz-adv-x="520" vert-adv-y="2048"  />

      
      <glyph glyph-name="unied" unicode="&#xed;" d="M227 0L59 0L293 1096L461 1096L227 0M324 1268Q380 1328 449.50 1419.50Q519 1511 556 1569L746 1569L746 1548Q708 1499 606 1397Q504 1295 429 1241L324 1241L324 1268Z"  horiz-adv-x="520" vert-adv-y="2048"  />

      
      <glyph glyph-name="uniee" unicode="&#xee;" d="M227 0L59 0L293 1096L461 1096L227 0M708 1241L605 1241Q548 1289 444 1430Q310 1311 202 1241L93 1241L93 1268Q238 1401 297.50 1465.50Q357 1530 380 1569L538 1569Q575 1470 666 1334L708 1268L708 1241Z"  horiz-adv-x="520" vert-adv-y="2048"  />

      
      <glyph glyph-name="unief" unicode="&#xef;" d="M227 0L59 0L293 1096L461 1096L227 0M161 1378Q161 1424 189 1457.50Q217 1491 263 1491Q341 1491 341 1411Q341 1362 311.50 1328Q282 1294 243 1294Q208 1294 184.50 1316Q161 1338 161 1378M525 1378Q525 1424 553 1457.50Q581 1491 628 1491Q705 1491 705 1411Q705 1362 675.50 1328Q646 1294 607 1294Q572 1294 548.50 1316Q525 1338 525 1378Z"  horiz-adv-x="520" vert-adv-y="2048"  />

      
      <glyph glyph-name="unif0" unicode="&#xf0;" d="M676 1343Q610 1401 530 1456L625 1573Q743 1489 813 1419L1073 1565L1137 1460L897 1327Q984 1212 1023.50 1086.50Q1063 961 1063 817Q1063 564 991.50 370Q920 176 788.50 78Q657-20 477-20Q295-20 192.50 84Q90 188 90 373Q90 533 157.50 671Q225 809 344.50 888Q464 967 612 967Q717 967 793.50 921.50Q870 876 905 797L911 799L911 816Q911 952 874.50 1056Q838 1160 764 1253L494 1104L438 1212L676 1343M487 121Q594 121 677 177Q760 233 811 345Q862 457 862 571Q862 689 796.50 758Q731 827 618 827Q509 827 429 769.50Q349 712 305.50 608.50Q262 505 262 377Q262 251 319.50 186Q377 121 487 121Z"  horiz-adv-x="1165" vert-adv-y="2048"  />

      
      <glyph glyph-name="unif1" unicode="&#xf1;" d="M729 0L877 692Q897 796 897 836Q897 899 861.50 937Q826 975 748 975Q659 975 574.50 915Q490 855 425.50 744Q361 633 328 475L227 0L59 0L293 1096L432 1096L410 893L420 893Q516 1015 605.50 1065.50Q695 1116 791 1116Q918 1116 991.50 1046.50Q1065 977 1065 852Q1065 773 1042 672L899 0L729 0M871 1243Q831 1243 793.50 1260.50Q756 1278 720.50 1299.50Q685 1321 651.50 1338.50Q618 1356 586 1356Q542 1356 516.50 1327.50Q491 1299 469 1241L369 1241Q427 1499 600 1499Q644 1499 683.50 1481Q723 1463 758.50 1441.50Q794 1420 825 1402Q856 1384 883 1384Q927 1384 952.50 1411Q978 1438 1004 1501L1104 1501Q1038 1243 871 1243Z"  horiz-adv-x="1182" vert-adv-y="2048"  />

      
      <glyph glyph-name="unif2" unicode="&#xf2;" d="M643 1110Q833 1110 943 997.50Q1053 885 1053 688Q1053 500 981 333Q909 166 786 75Q663-16 508-16Q316-16 207 97Q98 210 98 406Q98 596 171 763.50Q244 931 368 1020.50Q492 1110 643 1110M879 711Q879 826 816.50 897.50Q754 969 647 969Q538 969 451.50 895Q365 821 317.50 689.50Q270 558 270 397Q270 266 333.50 194.50Q397 123 516 123Q620 123 703 196Q786 269 832.50 403.50Q879 538 879 711M798 1241L694 1241Q633 1302 565.50 1395Q498 1488 470 1548L470 1569L651 1569Q694 1433 798 1266L798 1241Z"  horiz-adv-x="1149" vert-adv-y="2048"  />

      
      <glyph glyph-name="unif3" unicode="&#xf3;" d="M643 1110Q833 1110 943 997.50Q1053 885 1053 688Q1053 500 981 333Q909 166 786 75Q663-16 508-16Q316-16 207 97Q98 210 98 406Q98 596 171 763.50Q244 931 368 1020.50Q492 1110 643 1110M879 711Q879 826 816.50 897.50Q754 969 647 969Q538 969 451.50 895Q365 821 317.50 689.50Q270 558 270 397Q270 266 333.50 194.50Q397 123 516 123Q620 123 703 196Q786 269 832.50 403.50Q879 538 879 711M589 1268Q645 1328 714.50 1419.50Q784 1511 821 1569L1011 1569L1011 1548Q973 1499 871 1397Q769 1295 694 1241L589 1241L589 1268Z"  horiz-adv-x="1149" vert-adv-y="2048"  />

      
      <glyph glyph-name="unif4" unicode="&#xf4;" d="M643 1110Q833 1110 943 997.50Q1053 885 1053 688Q1053 500 981 333Q909 166 786 75Q663-16 508-16Q316-16 207 97Q98 210 98 406Q98 596 171 763.50Q244 931 368 1020.50Q492 1110 643 1110M879 711Q879 826 816.50 897.50Q754 969 647 969Q538 969 451.50 895Q365 821 317.50 689.50Q270 558 270 397Q270 266 333.50 194.50Q397 123 516 123Q620 123 703 196Q786 269 832.50 403.50Q879 538 879 711M997 1241L894 1241Q837 1289 733 1430Q599 1311 491 1241L382 1241L382 1268Q527 1401 586.50 1465.50Q646 1530 669 1569L827 1569Q864 1470 955 1334L997 1268L997 1241Z"  horiz-adv-x="1149" vert-adv-y="2048"  />

      
      <glyph glyph-name="unif5" unicode="&#xf5;" d="M643 1110Q833 1110 943 997.50Q1053 885 1053 688Q1053 500 981 333Q909 166 786 75Q663-16 508-16Q316-16 207 97Q98 210 98 406Q98 596 171 763.50Q244 931 368 1020.50Q492 1110 643 1110M879 711Q879 826 816.50 897.50Q754 969 647 969Q538 969 451.50 895Q365 821 317.50 689.50Q270 558 270 397Q270 266 333.50 194.50Q397 123 516 123Q620 123 703 196Q786 269 832.50 403.50Q879 538 879 711M844 1243Q804 1243 766.50 1260.50Q729 1278 693.50 1299.50Q658 1321 624.50 1338.50Q591 1356 559 1356Q515 1356 489.50 1327.50Q464 1299 442 1241L342 1241Q400 1499 573 1499Q617 1499 656.50 1481Q696 1463 731.50 1441.50Q767 1420 798 1402Q829 1384 856 1384Q900 1384 925.50 1411Q951 1438 977 1501L1077 1501Q1011 1243 844 1243Z"  horiz-adv-x="1149" vert-adv-y="2048"  />

      
      <glyph glyph-name="unif6" unicode="&#xf6;" d="M643 1110Q833 1110 943 997.50Q1053 885 1053 688Q1053 500 981 333Q909 166 786 75Q663-16 508-16Q316-16 207 97Q98 210 98 406Q98 596 171 763.50Q244 931 368 1020.50Q492 1110 643 1110M879 711Q879 826 816.50 897.50Q754 969 647 969Q538 969 451.50 895Q365 821 317.50 689.50Q270 558 270 397Q270 266 333.50 194.50Q397 123 516 123Q620 123 703 196Q786 269 832.50 403.50Q879 538 879 711M433 1378Q433 1424 461 1457.50Q489 1491 535 1491Q613 1491 613 1411Q613 1362 583.50 1328Q554 1294 515 1294Q480 1294 456.50 1316Q433 1338 433 1378M797 1378Q797 1424 825 1457.50Q853 1491 900 1491Q977 1491 977 1411Q977 1362 947.50 1328Q918 1294 879 1294Q844 1294 820.50 1316Q797 1338 797 1378Z"  horiz-adv-x="1149" vert-adv-y="2048"  />

      
      <glyph glyph-name="unif7" unicode="&#xf7;" d="M127 651L127 793L1047 793L1047 651L127 651M475 373Q475 494 586 494Q639 494 668.50 463.50Q698 433 698 373Q698 315 668 283.50Q638 252 586 252Q534 252 504.50 283Q475 314 475 373M475 1071Q475 1192 586 1192Q639 1192 668.50 1161.50Q698 1131 698 1071Q698 1013 668 981.50Q638 950 586 950Q534 950 504.50 981Q475 1012 475 1071Z"  horiz-adv-x="1128" vert-adv-y="2048"  />

      
      <glyph glyph-name="unif8" unicode="&#xf8;" d="M1047 705Q1047 516 977.50 345Q908 174 786 79Q664-16 510-16Q364-16 264 49L166-76L61 6L170 141Q102 244 102 406Q102 600 175.50 767Q249 934 371 1022Q493 1110 643 1110Q789 1110 895 1042L999 1171L1104 1092L985 963Q1047 866 1047 705M647 971Q539 971 451.50 898Q364 825 314 696Q264 567 264 416Q264 324 281 279L799 924Q745 971 647 971M885 688Q885 772 872 807L358 166Q415 121 516 121Q619 121 704.50 192.50Q790 264 837.50 393Q885 522 885 688Z"  horiz-adv-x="1149" vert-adv-y="2048"  />

      
      <glyph glyph-name="unif9" unicode="&#xf9;" d="M451 1096L301 401Q283 312 283 262Q283 119 430 119Q518 119 603 179Q688 239 753 351Q818 463 852 621L952 1096L1118 1096L887 0L748 0L770 203L758 203Q660 78 571 29Q482-20 387-20Q259-20 186 49.50Q113 119 113 248Q113 310 135 420L281 1096L451 1096M800 1241L696 1241Q635 1302 567.50 1395Q500 1488 472 1548L472 1569L653 1569Q696 1433 800 1266L800 1241Z"  horiz-adv-x="1182" vert-adv-y="2048"  />

      
      <glyph glyph-name="unifa" unicode="&#xfa;" d="M451 1096L301 401Q283 312 283 262Q283 119 430 119Q518 119 603 179Q688 239 753 351Q818 463 852 621L952 1096L1118 1096L887 0L748 0L770 203L758 203Q660 78 571 29Q482-20 387-20Q259-20 186 49.50Q113 119 113 248Q113 310 135 420L281 1096L451 1096M636 1268Q692 1328 761.50 1419.50Q831 1511 868 1569L1058 1569L1058 1548Q1020 1499 918 1397Q816 1295 741 1241L636 1241L636 1268Z"  horiz-adv-x="1182" vert-adv-y="2048"  />

      
      <glyph glyph-name="unifb" unicode="&#xfb;" d="M451 1096L301 401Q283 312 283 262Q283 119 430 119Q518 119 603 179Q688 239 753 351Q818 463 852 621L952 1096L1118 1096L887 0L748 0L770 203L758 203Q660 78 571 29Q482-20 387-20Q259-20 186 49.50Q113 119 113 248Q113 310 135 420L281 1096L451 1096M1024 1241L921 1241Q864 1289 760 1430Q626 1311 518 1241L409 1241L409 1268Q554 1401 613.50 1465.50Q673 1530 696 1569L854 1569Q891 1470 982 1334L1024 1268L1024 1241Z"  horiz-adv-x="1182" vert-adv-y="2048"  />

      
      <glyph glyph-name="unifc" unicode="&#xfc;" d="M451 1096L301 401Q283 312 283 262Q283 119 430 119Q518 119 603 179Q688 239 753 351Q818 463 852 621L952 1096L1118 1096L887 0L748 0L770 203L758 203Q660 78 571 29Q482-20 387-20Q259-20 186 49.50Q113 119 113 248Q113 310 135 420L281 1096L451 1096M457 1378Q457 1424 485 1457.50Q513 1491 559 1491Q637 1491 637 1411Q637 1362 607.50 1328Q578 1294 539 1294Q504 1294 480.50 1316Q457 1338 457 1378M821 1378Q821 1424 849 1457.50Q877 1491 924 1491Q1001 1491 1001 1411Q1001 1362 971.50 1328Q942 1294 903 1294Q868 1294 844.50 1316Q821 1338 821 1378Z"  horiz-adv-x="1182" vert-adv-y="2048"  />

      
      <glyph glyph-name="unifd" unicode="&#xfd;" d="M98 1096L266 1096L340 551Q350 482 359.50 347.50Q369 213 369 131L375 131Q410 218 462 331Q514 444 539 487L864 1096L1042 1096L346-186Q253-358 162-425Q71-492-57-492Q-129-492-197-471L-197-336Q-134-354-66-354Q16-354 74.50-303.50Q133-253 188-154L264-18L98 1096M500 1268Q556 1328 625.50 1419.50Q695 1511 732 1569L922 1569L922 1548Q884 1499 782 1397Q680 1295 605 1241L500 1241L500 1268Z"  horiz-adv-x="946" vert-adv-y="2048"  />

      
      <glyph glyph-name="unife" unicode="&#xfe;" d="M545-20Q447-20 373 31Q299 82 260 170L250 170Q242 66 225-6L123-492L-43-492L389 1556L557 1556Q462 1115 442 1034Q422 953 403 885L412 885Q513 1010 601 1062Q689 1114 784 1114Q923 1114 1002 1016.50Q1081 919 1081 743Q1081 531 1012 354Q943 177 821 78.50Q699-20 545-20M731 975Q635 975 535.50 880Q436 785 377.50 641Q319 497 319 346Q319 236 374.50 177.50Q430 119 535 119Q634 119 719.50 200Q805 281 857 430.50Q909 580 909 748Q909 975 731 975Z"  horiz-adv-x="1182" vert-adv-y="2048"  />

      
      <glyph glyph-name="uniff" unicode="&#xff;" d="M98 1096L266 1096L340 551Q350 482 359.50 347.50Q369 213 369 131L375 131Q410 218 462 331Q514 444 539 487L864 1096L1042 1096L346-186Q253-358 162-425Q71-492-57-492Q-129-492-197-471L-197-336Q-134-354-66-354Q16-354 74.50-303.50Q133-253 188-154L264-18L98 1096M335 1378Q335 1424 363 1457.50Q391 1491 437 1491Q515 1491 515 1411Q515 1362 485.50 1328Q456 1294 417 1294Q382 1294 358.50 1316Q335 1338 335 1378M699 1378Q699 1424 727 1457.50Q755 1491 802 1491Q879 1491 879 1411Q879 1362 849.50 1328Q820 1294 781 1294Q746 1294 722.50 1316Q699 1338 699 1378Z"  horiz-adv-x="946" vert-adv-y="2048"  />

      
      <glyph glyph-name="uni0131" unicode="&#x0131;" d="M227 0L59 0L293 1096L461 1096L227 0Z"  horiz-adv-x="520" vert-adv-y="2048"  />

      
      <glyph glyph-name="uni0152" unicode="&#x0152;" d="M1524 0L850 0Q772-20 692-20Q436-20 293 129.50Q150 279 150 549Q150 813 246 1031Q342 1249 509.50 1367Q677 1485 887 1485Q1039 1485 1124 1462L1833 1462L1802 1309L1237 1309L1137 840L1665 840L1634 690L1106 690L991 152L1556 152L1524 0M696 131Q765 131 819 150L1065 1311Q989 1333 874 1333Q717 1333 593 1232Q469 1131 400.50 951Q332 771 332 553Q332 354 430 242.50Q528 131 696 131Z"  horiz-adv-x="1751" vert-adv-y="2048"  />

      
      <glyph glyph-name="uni0153" unicode="&#x0153;" d="M1251-20Q981-20 895 205Q826 98 723.50 41Q621-16 498-16Q314-16 206 98Q98 212 98 406Q98 599 173 766Q248 933 374 1021.50Q500 1110 655 1110Q925 1110 1014 885Q1089 994 1191.50 1055Q1294 1116 1413 1116Q1552 1116 1630 1050.50Q1708 985 1708 864Q1708 681 1543.50 580Q1379 479 1075 479L1034 479L1030 399Q1030 268 1091.50 194.50Q1153 121 1282 121Q1357 121 1427 145.50Q1497 170 1577 205L1577 55Q1415-20 1251-20M649 969Q540 969 453 896Q366 823 318 694Q270 565 270 410Q270 269 332 196Q394 123 504 123Q681 123 782 283.50Q883 444 883 711Q883 835 823.50 902Q764 969 649 969M1413 973Q1288 973 1192.50 878.50Q1097 784 1053 618L1071 618Q1302 618 1422 679Q1542 740 1542 856Q1542 904 1510 938.50Q1478 973 1413 973Z"  horiz-adv-x="1769" vert-adv-y="2048"  />

      
      <glyph glyph-name="uni02C6" unicode="&#x02C6;" d="M1014 1241L911 1241Q854 1289 750 1430Q616 1311 508 1241L399 1241L399 1268Q544 1401 603.50 1465.50Q663 1530 686 1569L844 1569Q881 1470 972 1334L1014 1268L1014 1241Z"  horiz-adv-x="1135" vert-adv-y="2048"  />

      
      <glyph glyph-name="uni02DA" unicode="&#x02DA;" d="M989 1456Q989 1357 929 1299Q869 1241 770 1241Q669 1241 610 1298.50Q551 1356 551 1454Q551 1548 613 1606.50Q675 1665 770 1665Q871 1665 930 1608Q989 1551 989 1456M885 1454Q885 1507 853 1538Q821 1569 770 1569Q721 1569 688 1538Q655 1507 655 1454Q655 1400 684.50 1369.50Q714 1339 770 1339Q821 1339 853 1369.50Q885 1400 885 1454Z"  horiz-adv-x="1182" vert-adv-y="2048"  />

      
      <glyph glyph-name="uni02DC" unicode="&#x02DC;" d="M838 1243Q798 1243 760.50 1260.50Q723 1278 687.50 1299.50Q652 1321 618.50 1338.50Q585 1356 553 1356Q509 1356 483.50 1327.50Q458 1299 436 1241L336 1241Q394 1499 567 1499Q611 1499 650.50 1481Q690 1463 725.50 1441.50Q761 1420 792 1402Q823 1384 850 1384Q894 1384 919.50 1411Q945 1438 971 1501L1071 1501Q1005 1243 838 1243Z"  horiz-adv-x="1135" vert-adv-y="2048"  />

      
      <glyph glyph-name="uni0400" unicode="&#x0400;" d="M821 0L86 0L395 1462L1130 1462L1098 1309L532 1309L434 840L961 840L932 688L403 688L289 152L854 152L821 0M898 1579L794 1579Q733 1640 665.50 1733Q598 1826 570 1886L570 1907L751 1907Q794 1771 898 1604L898 1579Z"  horiz-adv-x="1047" vert-adv-y="2048"  />

      
      <glyph glyph-name="uni0401" unicode="&#x0401;" d="M821 0L86 0L395 1462L1130 1462L1098 1309L532 1309L434 840L961 840L932 688L403 688L289 152L854 152L821 0M523 1716Q523 1762 551 1795.50Q579 1829 625 1829Q703 1829 703 1749Q703 1700 673.50 1666Q644 1632 605 1632Q570 1632 546.50 1654Q523 1676 523 1716M887 1716Q887 1762 915 1795.50Q943 1829 990 1829Q1067 1829 1067 1749Q1067 1700 1037.50 1666Q1008 1632 969 1632Q934 1632 910.50 1654Q887 1676 887 1716Z"  horiz-adv-x="1047" vert-adv-y="2048"  />

      
      <glyph glyph-name="uni0402" unicode="&#x0402;" d="M805-20Q735-20 668 0L668 152Q728 131 795 131Q887 131 940.50 180.50Q994 230 1020 356Q1049 509 1049 569Q1049 657 996.50 699Q944 741 836 741L557 741L401 0L229 0L508 1311L186 1311L219 1462L1120 1462L1090 1311L680 1311L590 893L848 893Q1219 893 1219 586Q1219 501 1200 406L1186 334Q1149 151 1057 65.50Q965-20 805-20Z"  horiz-adv-x="1366" vert-adv-y="2048"  />

      
      <glyph glyph-name="uni0403" unicode="&#x0403;" d="M258 0L86 0L395 1462L1130 1462L1100 1309L535 1309L258 0M657 1606Q713 1666 782.50 1757.50Q852 1849 889 1907L1079 1907L1079 1886Q1041 1837 939 1735Q837 1633 762 1579L657 1579L657 1606Z"  horiz-adv-x="975" vert-adv-y="2048"  />

      
      <glyph glyph-name="uni0404" unicode="&#x0404;" d="M942 1331Q738 1331 588.50 1200.50Q439 1070 375 844L997 844L967 692L342 692Q332 630 332 541Q332 346 428 238.50Q524 131 698 131Q837 131 1020 188L1020 39Q934 8 856-6Q778-20 668-20Q422-20 286 126.50Q150 273 150 537Q150 798 255.50 1022.50Q361 1247 539 1365Q717 1483 942 1483Q1139 1483 1290 1403L1221 1262Q1083 1331 942 1331Z"  horiz-adv-x="1198" vert-adv-y="2048"  />

      
      <glyph glyph-name="uni0405" unicode="&#x0405;" d="M913 424Q913 213 772.50 96.50Q632-20 377-20Q271-20 190.50-5.50Q110 9 39 43L39 213Q201 129 379 129Q541 129 636 204.50Q731 280 731 412Q731 490 678.50 549.50Q626 609 483 690Q332 775 273.50 860Q215 945 215 1061Q215 1248 347 1365.50Q479 1483 694 1483Q793 1483 878.50 1464Q964 1445 1059 1399L993 1249Q927 1287 845 1309Q763 1331 694 1331Q560 1331 478.50 1261.50Q397 1192 397 1073Q397 1019 414 980.50Q431 942 468 908Q505 874 610 813Q757 725 808.50 675Q860 625 886.50 564.50Q913 504 913 424Z"  horiz-adv-x="1028" vert-adv-y="2048"  />

      
      <glyph glyph-name="uni0406" unicode="&#x0406;" d="M86 0L397 1462L565 1462L254 0L86 0Z"  horiz-adv-x="559" vert-adv-y="2048"  />

      
      <glyph glyph-name="uni0407" unicode="&#x0407;" d="M86 0L397 1462L565 1462L254 0L86 0M255 1716Q255 1762 283 1795.50Q311 1829 357 1829Q435 1829 435 1749Q435 1700 405.50 1666Q376 1632 337 1632Q302 1632 278.50 1654Q255 1676 255 1716M619 1716Q619 1762 647 1795.50Q675 1829 722 1829Q799 1829 799 1749Q799 1700 769.50 1666Q740 1632 701 1632Q666 1632 642.50 1654Q619 1676 619 1716Z"  horiz-adv-x="559" vert-adv-y="2048"  />

      
      <glyph glyph-name="uni0408" unicode="&#x0408;" d="M-166-385Q-271-385-319-360L-313-213Q-244-233-168-233Q-68-233-2.50-170.50Q63-108 88 12L395 1462L565 1462L256-6Q177-385-166-385Z"  horiz-adv-x="547" vert-adv-y="2048"  />

      
      <glyph glyph-name="uni0409" unicode="&#x0409;" d="M741 1309Q666 1017 578 710.50Q490 404 425.50 255Q361 106 274 41.50Q187-23 59-23Q-17-23-66 0L-66 150Q-14 129 37 129Q120 129 172.50 173Q225 217 272 321Q319 425 391.50 661Q464 897 616 1462L1282 1462L1151 838L1260 838Q1700 838 1700 481Q1700 250 1551 125Q1402 0 1126 0L803 0L1079 1309L741 1309M1153 145Q1524 145 1524 465Q1524 580 1460.50 635Q1397 690 1262 690L1120 690L1004 145L1153 145Z"  horiz-adv-x="1821" vert-adv-y="2048"  />

      
      <glyph glyph-name="uni040A" unicode="&#x040A;" d="M1139 1462L1309 1462L1176 840L1286 840Q1726 840 1726 481Q1726 251 1578 125.50Q1430 0 1153 0L829 0L973 688L401 688L256 0L86 0L395 1462L565 1462L434 840L1006 840L1139 1462M1180 145Q1550 145 1550 465Q1550 577 1488.50 632.50Q1427 688 1288 688L1147 688L1030 145L1180 145Z"  horiz-adv-x="1847" vert-adv-y="2048"  />

      
      <glyph glyph-name="uni040B" unicode="&#x040B;" d="M1049 571Q1049 661 996.50 701Q944 741 836 741L557 741L401 0L229 0L508 1311L186 1311L219 1462L1120 1462L1090 1311L680 1311L590 893L862 893Q1046 893 1132.50 815Q1219 737 1219 582Q1219 543 1209.50 486.50Q1200 430 1110 0L938 0L1028 416Q1049 509 1049 571Z"  horiz-adv-x="1366" vert-adv-y="2048"  />

      
      <glyph glyph-name="uni040C" unicode="&#x040C;" d="M1065 0L868 0L408 725L256 0L86 0L395 1462L565 1462L414 750L1118 1462L1329 1462L592 731L1065 0M727 1606Q783 1666 852.50 1757.50Q922 1849 959 1907L1149 1907L1149 1886Q1111 1837 1009 1735Q907 1633 832 1579L727 1579L727 1606Z"  horiz-adv-x="1145" vert-adv-y="2048"  />

      
      <glyph glyph-name="uni040D" unicode="&#x040D;" d="M395 1462L559 1462L385 645L295 250L299 250L1239 1462L1438 1462L1128 0L967 0L1141 825Q1201 1114 1235 1235L1231 1235L285 0L86 0L395 1462M1005 1579L901 1579Q840 1640 772.50 1733Q705 1826 677 1886L677 1907L858 1907Q901 1771 1005 1604L1005 1579Z"  horiz-adv-x="1427" vert-adv-y="2048"  />

      
      <glyph glyph-name="uni040E" unicode="&#x040E;" d="M162-20Q123-20 75-12Q27-4-4 8L-4 176Q87 137 160 137Q266 137 346 198.50Q426 260 524 420L215 1462L387 1462L565 819Q614 637 635 530Q696 666 760 776L1165 1462L1360 1462L678 358Q554 155 436.50 67.50Q319-20 162-20M1190 1890Q1133 1579 777 1579Q621 1579 541 1640Q461 1701 461 1821Q461 1853 471 1890L617 1890Q611 1856 611 1831Q611 1704 785 1704Q897 1704 953.50 1748Q1010 1792 1028 1890L1190 1890Z"  horiz-adv-x="1171" vert-adv-y="2048"  />

      
      <glyph glyph-name="uni040F" unicode="&#x040F;" d="M395 1462L567 1462L291 152L952 152L1229 1462L1401 1462L1092 0L670 0L590-381L428-381L510 0L86 0L395 1462Z"  horiz-adv-x="1391" vert-adv-y="2048"  />

      
      <glyph glyph-name="uni0410" unicode="&#x0410;" d="M813 465L317 465L72 0L-117 0L682 1462L856 1462L1040 0L870 0L813 465M795 621L760 920Q736 1099 731 1270Q694 1182 650.50 1095Q607 1008 401 621L795 621Z"  horiz-adv-x="1137" vert-adv-y="2048"  />

      
      <glyph glyph-name="uni0411" unicode="&#x0411;" d="M590 838Q1030 838 1030 481Q1030 251 882 125.50Q734 0 457 0L90 0L399 1462L1130 1462L1098 1309L539 1309L438 838L590 838M483 145Q854 145 854 465Q854 579 791.50 634.50Q729 690 592 690L408 690L291 145L483 145Z"  horiz-adv-x="1155" vert-adv-y="2048"  />

      
      <glyph glyph-name="uni0412" unicode="&#x0412;" d="M770 1462Q1202 1462 1202 1126Q1202 985 1115 888Q1028 791 870 762L870 752Q985 720 1046.50 641.50Q1108 563 1108 453Q1108 241 956 120.50Q804 0 549 0L86 0L395 1462L770 1462M434 836L682 836Q838 836 931 909Q1024 982 1024 1108Q1024 1212 957.50 1263.50Q891 1315 748 1315L537 1315L434 836M287 145L553 145Q734 145 831 225.50Q928 306 928 453Q928 569 853.50 630.50Q779 692 639 692L403 692L287 145Z"  horiz-adv-x="1225" vert-adv-y="2048"  />

      
      <glyph glyph-name="uni0413" unicode="&#x0413;" d="M258 0L86 0L395 1462L1130 1462L1100 1309L535 1309L258 0Z"  horiz-adv-x="975" vert-adv-y="2048"  />

      
      <glyph glyph-name="uni0414" unicode="&#x0414;" d="M895-379L975 0L68 0L-12-379L-170-379L-57 154L45 154Q184 346 319.50 596.50Q455 847 549 1073.50Q643 1300 682 1462L1262 1462L985 154L1171 154L1057-379L895-379M1057 1307L807 1307Q730 1058 557.50 708.50Q385 359 238 154L811 154L1057 1307Z"  horiz-adv-x="1272" vert-adv-y="2048"  />

      
      <glyph glyph-name="uni0415" unicode="&#x0415;" d="M821 0L86 0L395 1462L1130 1462L1098 1309L532 1309L434 840L961 840L932 688L403 688L289 152L854 152L821 0Z"  horiz-adv-x="1047" vert-adv-y="2048"  />

      
      <glyph glyph-name="uni0416" unicode="&#x0416;" d="M584 768L219 1462L406 1462L766 764L913 1462L1079 1462L932 764L1569 1462L1776 1462L1102 727L1477 0L1286 0L924 731L770 0L604 0L758 731L109 0L-100 0L584 768Z"  horiz-adv-x="1589" vert-adv-y="2048"  />

      
      <glyph glyph-name="uni0417" unicode="&#x0417;" d="M1063 1159Q1063 1005 962.50 898Q862 791 690 756L690 750Q819 731 896 648Q973 565 973 428Q973 298 901.50 195Q830 92 697.50 36Q565-20 385-20Q160-20-6 59L-6 225Q72 180 179.50 150.50Q287 121 399 121Q584 121 687.50 206.50Q791 292 791 436Q791 684 469 684L254 684L283 825L483 825Q670 825 778.50 908Q887 991 887 1137Q887 1243 824.50 1292Q762 1341 657 1341Q489 1341 305 1223L233 1346Q346 1420 453.50 1451.50Q561 1483 690 1483Q862 1483 962.50 1396.50Q1063 1310 1063 1159Z"  horiz-adv-x="1090" vert-adv-y="2048"  />

      
      <glyph glyph-name="uni0418" unicode="&#x0418;" d="M395 1462L559 1462L385 645L295 250L299 250L1239 1462L1438 1462L1128 0L967 0L1141 825Q1201 1114 1235 1235L1231 1235L285 0L86 0L395 1462Z"  horiz-adv-x="1427" vert-adv-y="2048"  />

      
      <glyph glyph-name="uni0419" unicode="&#x0419;" d="M395 1462L559 1462L385 645L295 250L299 250L1239 1462L1438 1462L1128 0L967 0L1141 825Q1201 1114 1235 1235L1231 1235L285 0L86 0L395 1462M1319 1890Q1262 1579 906 1579Q750 1579 670 1640Q590 1701 590 1821Q590 1853 600 1890L746 1890Q740 1856 740 1831Q740 1704 914 1704Q1026 1704 1082.50 1748Q1139 1792 1157 1890L1319 1890Z"  horiz-adv-x="1427" vert-adv-y="2048"  />

      
      <glyph glyph-name="uni041A" unicode="&#x041A;" d="M1065 0L868 0L408 725L256 0L86 0L395 1462L565 1462L414 750L1118 1462L1329 1462L592 731L1065 0Z"  horiz-adv-x="1145" vert-adv-y="2048"  />

      
      <glyph glyph-name="uni041B" unicode="&#x041B;" d="M741 1309Q666 1017 578 710.50Q490 404 425.50 255Q361 106 274 41.50Q187-23 59-23Q-17-23-66 0L-66 150Q-14 129 37 129Q120 129 172.50 173Q225 217 272 321Q319 425 391.50 661Q464 897 616 1462L1329 1462L1018 0L846 0L1124 1309L741 1309Z"  horiz-adv-x="1319" vert-adv-y="2048"  />

      
      <glyph glyph-name="uni041C" unicode="&#x041C;" d="M676 0L510 1296L502 1296Q495 1224 473.50 1098.50Q452 973 436 899L246 0L84 0L393 1462L637 1462L786 258L795 258L1454 1462L1720 1462L1417 0L1243 0Q1369 590 1436 905.50Q1503 1221 1530 1298L1524 1298L807 0L676 0Z"  horiz-adv-x="1714" vert-adv-y="2048"  />

      
      <glyph glyph-name="uni041D" unicode="&#x041D;" d="M1085 0L918 0L1061 688L401 688L256 0L86 0L395 1462L565 1462L434 840L1094 840L1227 1462L1395 1462L1085 0Z"  horiz-adv-x="1389" vert-adv-y="2048"  />

      
      <glyph glyph-name="uni041E" unicode="&#x041E;" d="M1411 907Q1411 638 1323 425.50Q1235 213 1071 96.50Q907-20 692-20Q436-20 293 129.50Q150 279 150 549Q150 813 246 1031Q342 1249 509.50 1367Q677 1485 887 1485Q1131 1485 1271 1331Q1411 1177 1411 907M874 1333Q717 1333 593 1232Q469 1131 400.50 951Q332 771 332 553Q332 354 430 242.50Q528 131 696 131Q848 131 968.50 228.50Q1089 326 1159 508Q1229 690 1229 911Q1229 1110 1135 1221.50Q1041 1333 874 1333Z"  horiz-adv-x="1475" vert-adv-y="2048"  />

      
      <glyph glyph-name="uni041F" unicode="&#x041F;" d="M1092 0L918 0L1194 1311L532 1311L256 0L86 0L395 1462L1401 1462L1092 0Z"  horiz-adv-x="1391" vert-adv-y="2048"  />

      
      <glyph glyph-name="uni0420" unicode="&#x0420;" d="M1159 1085Q1159 837 995 706Q831 575 514 575L379 575L256 0L86 0L395 1462L725 1462Q939 1462 1049 1367.50Q1159 1273 1159 1085M410 721L543 721Q759 721 871 812Q983 903 983 1079Q983 1204 913.50 1259.50Q844 1315 700 1315L537 1315L410 721Z"  horiz-adv-x="1159" vert-adv-y="2048"  />

      
      <glyph glyph-name="uni0421" unicode="&#x0421;" d="M942 1331Q768 1331 630.50 1234Q493 1137 412.50 949.50Q332 762 332 541Q332 354 429.50 242.50Q527 131 698 131Q837 131 1020 188L1020 39Q934 8 856-6Q778-20 668-20Q426-20 288 129.50Q150 279 150 537Q150 798 255.50 1022.50Q361 1247 539 1365Q717 1483 942 1483Q1139 1483 1290 1403L1221 1262Q1083 1331 942 1331Z"  horiz-adv-x="1198" vert-adv-y="2048"  />

      
      <glyph glyph-name="uni0422" unicode="&#x0422;" d="M487 0L315 0L592 1311L186 1311L219 1462L1204 1462L1174 1311L766 1311L487 0Z"  horiz-adv-x="1020" vert-adv-y="2048"  />

      
      <glyph glyph-name="uni0423" unicode="&#x0423;" d="M162-20Q123-20 75-12Q27-4-4 8L-4 176Q87 137 160 137Q266 137 346 198.50Q426 260 524 420L215 1462L387 1462L565 819Q614 637 635 530Q696 666 760 776L1165 1462L1360 1462L678 358Q554 155 436.50 67.50Q319-20 162-20Z"  horiz-adv-x="1171" vert-adv-y="2048"  />

      
      <glyph glyph-name="uni0424" unicode="&#x0424;" d="M553-20L602 205Q385 220 267.50 338.50Q150 457 150 664Q150 954 326.50 1123.50Q503 1293 836 1303L872 1483L1049 1483L1012 1303Q1227 1290 1343.50 1173Q1460 1056 1460 854Q1460 664 1375.50 516.50Q1291 369 1138 291Q985 213 778 205L729-20L553-20M809 352Q1037 365 1161.50 495.50Q1286 626 1286 844Q1286 988 1206 1067.50Q1126 1147 979 1153L809 352M803 1153Q651 1153 543 1093.50Q435 1034 379.50 926.50Q324 819 324 674Q324 527 404.50 441.50Q485 356 631 352L803 1153Z"  horiz-adv-x="1524" vert-adv-y="2048"  />

      
      <glyph glyph-name="uni0425" unicode="&#x0425;" d="M956 0L776 0L563 641L82 0L-104 0L492 776L229 1462L401 1462L604 899L1047 1462L1233 1462L678 768L956 0Z"  horiz-adv-x="1063" vert-adv-y="2048"  />

      
      <glyph glyph-name="uni0426" unicode="&#x0426;" d="M1257 156L1143-379L981-379L1061 0L84 0L393 1462L565 1462L289 154L920 154L1196 1462L1368 1462L1092 156L1257 156Z"  horiz-adv-x="1362" vert-adv-y="2048"  />

      
      <glyph glyph-name="uni0427" unicode="&#x0427;" d="M838 0L965 600Q766 512 565 512Q409 512 329.50 583.50Q250 655 250 788Q250 862 272 956L381 1462L551 1462L444 958Q424 858 424 821Q424 743 465 703.50Q506 664 606 664Q681 664 771.50 680.50Q862 697 997 743L1147 1462L1319 1462L1010 0L838 0Z"  horiz-adv-x="1309" vert-adv-y="2048"  />

      
      <glyph glyph-name="uni0428" unicode="&#x0428;" d="M84 0L393 1462L565 1462L287 154L819 154L1096 1462L1266 1462L989 154L1520 154L1796 1462L1966 1462L1657 0L84 0Z"  horiz-adv-x="1956" vert-adv-y="2048"  />

      
      <glyph glyph-name="uni0429" unicode="&#x0429;" d="M1855 156L1741-379L1579-379L1659 0L84 0L393 1462L565 1462L287 154L819 154L1096 1462L1266 1462L989 154L1520 154L1796 1462L1966 1462L1690 156L1855 156Z"  horiz-adv-x="1960" vert-adv-y="2048"  />

      
      <glyph glyph-name="uni042A" unicode="&#x042A;" d="M719 838Q1159 838 1159 481Q1159 251 1011 125.50Q863 0 586 0L231 0L508 1311L186 1311L219 1462L713 1462L580 838L719 838M612 145Q983 145 983 465Q983 579 920.50 634.50Q858 690 721 690L549 690L432 145L612 145Z"  horiz-adv-x="1280" vert-adv-y="2048"  />

      
      <glyph glyph-name="uni042B" unicode="&#x042B;" d="M1311 0L1141 0L1450 1462L1620 1462L1311 0M567 1462L434 838L573 838Q1014 838 1014 481Q1014 250 865 125Q716 0 440 0L86 0L395 1462L567 1462M467 145Q838 145 838 465Q838 580 774.50 635Q711 690 575 690L403 690L287 145L467 145Z"  horiz-adv-x="1610" vert-adv-y="2048"  />

      
      <glyph glyph-name="uni042C" unicode="&#x042C;" d="M567 1462L434 838L573 838Q1014 838 1014 481Q1014 250 865 125Q716 0 440 0L86 0L395 1462L567 1462M467 145Q838 145 838 465Q838 580 774.50 635Q711 690 575 690L403 690L287 145L467 145Z"  horiz-adv-x="1135" vert-adv-y="2048"  />

      
      <glyph glyph-name="uni042D" unicode="&#x042D;" d="M375 131Q602 131 744.50 273.50Q887 416 932 692L309 692L338 844L950 844L952 936Q952 1122 859.50 1226.50Q767 1331 602 1331Q539 1331 474 1320Q409 1309 281 1268L238 1411Q437 1483 618 1483Q864 1483 999.50 1339Q1135 1195 1135 936Q1135 637 1041.50 419Q948 201 776 90.50Q604-20 360-20Q260-20 178.50-1.50Q97 17 18 59L18 225Q124 177 170 162.50Q216 148 265.50 139.50Q315 131 375 131Z"  horiz-adv-x="1198" vert-adv-y="2048"  />

      
      <glyph glyph-name="uni042E" unicode="&#x042E;" d="M1942 907Q1942 638 1857 426Q1772 214 1613.50 97Q1455-20 1245-20Q993-20 857 129.50Q721 279 721 549Q721 617 727 688L401 688L256 0L86 0L395 1462L565 1462L434 840L752 840Q818 1136 1004 1310.50Q1190 1485 1446 1485Q1677 1485 1809.50 1332.50Q1942 1180 1942 907M1421 1333Q1271 1333 1152 1232Q1033 1131 968 952Q903 773 903 553Q903 352 993.50 241.50Q1084 131 1251 131Q1398 131 1512 226Q1626 321 1692.50 504.50Q1759 688 1759 911Q1759 1112 1670.50 1222.50Q1582 1333 1421 1333Z"  horiz-adv-x="2005" vert-adv-y="2048"  />

      
      <glyph glyph-name="uni042F" unicode="&#x042F;" d="M594 610L131 0L-76 0L438 670Q246 771 246 995Q246 1219 389.50 1340.50Q533 1462 795 1462L1176 1462L868 0L696 0L825 610L594 610M977 1315L795 1315Q607 1315 514.50 1237.50Q422 1160 422 1012Q422 888 496.50 822Q571 756 709 756L858 756L977 1315Z"  horiz-adv-x="1165" vert-adv-y="2048"  />

      
      <glyph glyph-name="uni0430" unicode="&#x0430;" d="M639 1116Q731 1116 803 1066.50Q875 1017 915 924L926 924L993 1096L1120 1096L887 0L754 0L780 209L772 209Q593-20 395-20Q256-20 177 79Q98 178 98 350Q98 558 169 736Q240 914 365 1015Q490 1116 639 1116M449 119Q546 119 642 211.50Q738 304 798 452.50Q858 601 858 750Q858 853 802 914Q746 975 655 975Q551 975 461.50 889Q372 803 321 656Q270 509 270 346Q270 232 317 175.50Q364 119 449 119Z"  horiz-adv-x="1157" vert-adv-y="2048"  />

      
      </font>
</defs>
</svg>
