<?xml version="1.0" standalone="no"?>
  <!DOCTYPE svg PUBLIC "-//W3C//DTD SVG 1.1//EN" "http://www.w3.org/Graphics/SVG/1.1/DTD/svg11.dtd" >
  <svg>
  <metadata>
  Created by font-carrier
  </metadata>
  <defs>
  <font id="OpenSans" horiz-adv-x="2150" vert-adv-y="2150" >
    <font-face
      
      font-family="Open Sans"
      
      font-weight="400"
      
      font-stretch="normal"
      
      units-per-em="2048"
      
      ascent="2189"
      
      descent="-600"
      
    />
      <missing-glyph />

      

      
      <glyph glyph-name="uni21" unicode="&#x21;" d="M326 403L221 403L170 1462L377 1462L326 403M152 106Q152 242 272 242Q330 242 361.50 207Q393 172 393 106Q393 42 361 6.50Q329-29 272-29Q220-29 186 2.50Q152 34 152 106Z"  horiz-adv-x="547" vert-adv-y="2048"  />

      
      <glyph glyph-name="uni22" unicode="&#x22;" d="M319 1462L279 934L174 934L133 1462L319 1462M688 1462L647 934L543 934L502 1462L688 1462Z"  horiz-adv-x="821" vert-adv-y="2048"  />

      
      <glyph glyph-name="uni23" unicode="&#x23;" d="M981 899L915 559L1198 559L1198 430L891 430L807 0L670 0L754 430L451 430L369 0L233 0L313 430L51 430L51 559L338 559L406 899L129 899L129 1026L428 1026L510 1462L649 1462L567 1026L872 1026L956 1462L1090 1462L1006 1026L1270 1026L1270 899L981 899M475 559L778 559L844 899L541 899L475 559Z"  horiz-adv-x="1323" vert-adv-y="2048"  />

      
      <glyph glyph-name="uni24" unicode="&#x24;" d="M1036 449Q1036 313 934 224.50Q832 136 649 113L649-119L520-119L520 104Q408 104 303 121.50Q198 139 131 170L131 326Q214 289 322.50 265.50Q431 242 520 242L520 682Q315 747 232.50 833Q150 919 150 1055Q150 1186 251.50 1270Q353 1354 520 1372L520 1554L649 1554L649 1374Q833 1369 1004 1300L952 1169Q803 1228 649 1239L649 805Q806 755 884 707.50Q962 660 999 598.50Q1036 537 1036 449M866 436Q866 508 821.50 552.50Q777 597 649 641L649 252Q866 282 866 436M319 1057Q319 981 364 935Q409 889 520 848L520 1235Q421 1219 370 1172.50Q319 1126 319 1057Z"  horiz-adv-x="1171" vert-adv-y="2048"  />

      
      <glyph glyph-name="uni25" unicode="&#x25;" d="M242 1026Q242 856 279 771Q316 686 399 686Q563 686 563 1026Q563 1364 399 1364Q316 1364 279 1280Q242 1196 242 1026M700 1026Q700 798 623.50 681.50Q547 565 399 565Q259 565 181.50 684Q104 803 104 1026Q104 1253 178.50 1368Q253 1483 399 1483Q544 1483 622 1364Q700 1245 700 1026M1122 440Q1122 269 1159 184.50Q1196 100 1280 100Q1364 100 1404 183.50Q1444 267 1444 440Q1444 611 1404 693.50Q1364 776 1280 776Q1196 776 1159 693.50Q1122 611 1122 440M1581 440Q1581 213 1504.50 96.50Q1428-20 1280-20Q1138-20 1061.50 99Q985 218 985 440Q985 667 1059.50 782Q1134 897 1280 897Q1422 897 1501.50 779.50Q1581 662 1581 440M1323 1462L512 0L365 0L1176 1462L1323 1462Z"  horiz-adv-x="1686" vert-adv-y="2048"  />

      
      <glyph glyph-name="uni26" unicode="&#x26;" d="M414 1171Q414 1102 450 1039.50Q486 977 573 889Q702 964 752.50 1027.50Q803 1091 803 1174Q803 1251 751.50 1299.50Q700 1348 614 1348Q525 1348 469.50 1300Q414 1252 414 1171M569 129Q810 129 969 283L532 707Q421 639 375 594.50Q329 550 307 499Q285 448 285 383Q285 266 362.50 197.50Q440 129 569 129M113 379Q113 509 182.50 609Q252 709 432 811Q347 906 316.50 955Q286 1004 268 1057Q250 1110 250 1167Q250 1317 348 1401Q446 1485 621 1485Q783 1485 876 1401.50Q969 1318 969 1169Q969 1062 901 971.50Q833 881 676 788L1083 397Q1139 459 1172.50 542.50Q1206 626 1229 725L1397 725Q1329 439 1192 291L1491 0L1262 0L1077 178Q959 72 837 26Q715-20 565-20Q350-20 231.50 86Q113 192 113 379Z"  horiz-adv-x="1495" vert-adv-y="2048"  />

      
      <glyph glyph-name="uni27" unicode="&#x27;" d="M319 1462L279 934L174 934L133 1462L319 1462Z"  horiz-adv-x="453" vert-adv-y="2048"  />

      
      <glyph glyph-name="uni28" unicode="&#x28;" d="M82 561Q82 826 159.50 1057Q237 1288 383 1462L545 1462Q401 1269 328.50 1038Q256 807 256 563Q256 323 330 94Q404-135 543-324L383-324Q236-154 159 73Q82 300 82 561Z"  horiz-adv-x="606" vert-adv-y="2048"  />

      
      <glyph glyph-name="uni29" unicode="&#x29;" d="M524 561Q524 298 446.50 71Q369-156 223-324L63-324Q202-136 276 93.50Q350 323 350 563Q350 807 277.50 1038Q205 1269 61 1462L223 1462Q370 1287 447 1055.50Q524 824 524 561Z"  horiz-adv-x="606" vert-adv-y="2048"  />

      
      <glyph glyph-name="uni2a" unicode="&#x2a;" d="M657 1556L614 1161L1012 1272L1038 1090L657 1059L905 733L733 639L557 1001L397 639L221 733L463 1059L86 1090L115 1272L506 1161L463 1556L657 1556Z"  horiz-adv-x="1130" vert-adv-y="2048"  />

      
      <glyph glyph-name="uni2b" unicode="&#x2b;" d="M653 791L1065 791L1065 653L653 653L653 227L514 227L514 653L104 653L104 791L514 791L514 1219L653 1219L653 791Z"  horiz-adv-x="1171" vert-adv-y="2048"  />

      
      <glyph glyph-name="uni2c" unicode="&#x2c;" d="M350 238L365 215Q339 115 290-17.50Q241-150 188-264L63-264Q90-160 122.50-7Q155 146 168 238L350 238Z"  horiz-adv-x="502" vert-adv-y="2048"  />

      
      <glyph glyph-name="uni2d" unicode="&#x2d;" d="M84 473L84 625L575 625L575 473L84 473Z"  horiz-adv-x="659" vert-adv-y="2048"  />

      
      <glyph glyph-name="uni2e" unicode="&#x2e;" d="M152 106Q152 173 182.50 207.50Q213 242 270 242Q328 242 360.50 207.50Q393 173 393 106Q393 41 360 6Q327-29 270-29Q219-29 185.50 2.50Q152 34 152 106Z"  horiz-adv-x="545" vert-adv-y="2048"  />

      
      <glyph glyph-name="uni2f" unicode="&#x2f;" d="M731 1462L186 0L20 0L565 1462L731 1462Z"  horiz-adv-x="752" vert-adv-y="2048"  />

      
      <glyph glyph-name="uni30" unicode="&#x30;" d="M1069 733Q1069 354 949.50 167Q830-20 584-20Q348-20 225 171.50Q102 363 102 733Q102 1115 221 1300Q340 1485 584 1485Q822 1485 945.50 1292Q1069 1099 1069 733M270 733Q270 414 345 268.50Q420 123 584 123Q750 123 824.50 270.50Q899 418 899 733Q899 1048 824.50 1194.50Q750 1341 584 1341Q420 1341 345 1196.50Q270 1052 270 733Z"  horiz-adv-x="1171" vert-adv-y="2048"  />

      
      <glyph glyph-name="uni31" unicode="&#x31;" d="M715 0L553 0L553 1042Q553 1172 561 1288Q540 1267 514 1244Q488 1221 276 1049L188 1163L575 1462L715 1462L715 0Z"  horiz-adv-x="1171" vert-adv-y="2048"  />

      
      <glyph glyph-name="uni32" unicode="&#x32;" d="M1061 0L100 0L100 143L485 530Q661 708 717 784Q773 860 801 932Q829 1004 829 1087Q829 1204 758 1272.50Q687 1341 561 1341Q470 1341 388.50 1311Q307 1281 207 1202L119 1315Q321 1483 559 1483Q765 1483 882 1377.50Q999 1272 999 1094Q999 955 921 819Q843 683 629 475L309 162L309 154L1061 154L1061 0Z"  horiz-adv-x="1171" vert-adv-y="2048"  />

      
      <glyph glyph-name="uni33" unicode="&#x33;" d="M1006 1118Q1006 978 927.50 889Q849 800 705 770L705 762Q881 740 966 650Q1051 560 1051 414Q1051 205 906 92.50Q761-20 494-20Q378-20 281.50-2.50Q185 15 94 59L94 217Q189 170 296.50 145.50Q404 121 500 121Q879 121 879 418Q879 684 461 684L317 684L317 827L463 827Q634 827 734 902.50Q834 978 834 1112Q834 1219 760.50 1280Q687 1341 561 1341Q465 1341 380 1315Q295 1289 186 1219L102 1331Q192 1402 309.50 1442.50Q427 1483 557 1483Q770 1483 888 1385.50Q1006 1288 1006 1118Z"  horiz-adv-x="1171" vert-adv-y="2048"  />

      
      <glyph glyph-name="uni34" unicode="&#x34;" d="M1130 336L913 336L913 0L754 0L754 336L43 336L43 481L737 1470L913 1470L913 487L1130 487L1130 336M754 487L754 973Q754 1116 764 1296L756 1296Q708 1200 666 1137L209 487L754 487Z"  horiz-adv-x="1171" vert-adv-y="2048"  />

      
      <glyph glyph-name="uni35" unicode="&#x35;" d="M557 893Q788 893 920.50 778.50Q1053 664 1053 465Q1053 238 908.50 109Q764-20 510-20Q263-20 133 59L133 219Q203 174 307 148.50Q411 123 512 123Q688 123 785.50 206Q883 289 883 446Q883 752 508 752Q413 752 254 723L168 778L223 1462L950 1462L950 1309L365 1309L328 870Q443 893 557 893Z"  horiz-adv-x="1171" vert-adv-y="2048"  />

      
      <glyph glyph-name="uni36" unicode="&#x36;" d="M117 625Q117 1056 284.50 1269.50Q452 1483 780 1483Q893 1483 958 1464L958 1321Q881 1346 782 1346Q547 1346 423 1199.50Q299 1053 287 739L299 739Q409 911 647 911Q844 911 957.50 792Q1071 673 1071 469Q1071 241 946.50 110.50Q822-20 610-20Q383-20 250 150.50Q117 321 117 625M608 121Q750 121 828.50 210.50Q907 300 907 469Q907 614 834 697Q761 780 616 780Q526 780 451 743Q376 706 331.50 641Q287 576 287 506Q287 403 327 314Q367 225 440.50 173Q514 121 608 121Z"  horiz-adv-x="1171" vert-adv-y="2048"  />

      
      <glyph glyph-name="uni37" unicode="&#x37;" d="M285 0L891 1309L94 1309L94 1462L1067 1462L1067 1329L469 0L285 0Z"  horiz-adv-x="1171" vert-adv-y="2048"  />

      
      <glyph glyph-name="uni38" unicode="&#x38;" d="M584 1483Q784 1483 901 1390Q1018 1297 1018 1133Q1018 1025 951 936Q884 847 737 774Q915 689 990 595.50Q1065 502 1065 379Q1065 197 938 88.50Q811-20 590-20Q356-20 230 82.50Q104 185 104 373Q104 624 410 764Q272 842 212 932.50Q152 1023 152 1135Q152 1294 269.50 1388.50Q387 1483 584 1483M268 369Q268 249 351.50 182Q435 115 586 115Q735 115 818 185Q901 255 901 377Q901 474 823 549.50Q745 625 551 696Q402 632 335 554.50Q268 477 268 369M582 1348Q457 1348 386 1288Q315 1228 315 1128Q315 1036 374 970Q433 904 592 838Q735 898 794.50 967Q854 1036 854 1128Q854 1229 781.50 1288.50Q709 1348 582 1348Z"  horiz-adv-x="1171" vert-adv-y="2048"  />

      
      <glyph glyph-name="uni39" unicode="&#x39;" d="M1061 838Q1061-20 397-20Q281-20 213 0L213 143Q293 117 395 117Q635 117 757.50 265.50Q880 414 891 721L879 721Q824 638 733 594.50Q642 551 528 551Q334 551 220 667Q106 783 106 991Q106 1219 233.50 1351Q361 1483 569 1483Q718 1483 829.50 1406.50Q941 1330 1001 1183.50Q1061 1037 1061 838M569 1341Q426 1341 348 1249Q270 1157 270 993Q270 849 342 766.50Q414 684 561 684Q652 684 728.50 721Q805 758 849 822Q893 886 893 956Q893 1061 852 1150Q811 1239 737.50 1290Q664 1341 569 1341Z"  horiz-adv-x="1171" vert-adv-y="2048"  />

      
      <glyph glyph-name="uni3a" unicode="&#x3a;" d="M152 106Q152 173 182.50 207.50Q213 242 270 242Q328 242 360.50 207.50Q393 173 393 106Q393 41 360 6Q327-29 270-29Q219-29 185.50 2.50Q152 34 152 106M152 989Q152 1124 270 1124Q393 1124 393 989Q393 924 360 889Q327 854 270 854Q219 854 185.50 885.50Q152 917 152 989Z"  horiz-adv-x="545" vert-adv-y="2048"  />

      
      <glyph glyph-name="uni3b" unicode="&#x3b;" d="M350 238L365 215Q339 115 290-17.50Q241-150 188-264L63-264Q90-160 122.50-7Q155 146 168 238L350 238M147 989Q147 1124 266 1124Q389 1124 389 989Q389 924 356 889Q323 854 266 854Q208 854 177.50 889Q147 924 147 989Z"  horiz-adv-x="545" vert-adv-y="2048"  />

      
      <glyph glyph-name="uni3c" unicode="&#x3c;" d="M1065 242L104 664L104 762L1065 1241L1065 1092L283 721L1065 393L1065 242Z"  horiz-adv-x="1171" vert-adv-y="2048"  />

      
      <glyph glyph-name="uni3d" unicode="&#x3d;" d="M119 858L119 995L1049 995L1049 858L119 858M119 449L119 586L1049 586L1049 449L119 449Z"  horiz-adv-x="1171" vert-adv-y="2048"  />

      
      <glyph glyph-name="uni3e" unicode="&#x3e;" d="M104 393L887 719L104 1092L104 1241L1065 762L1065 664L104 242L104 393Z"  horiz-adv-x="1171" vert-adv-y="2048"  />

      
      <glyph glyph-name="uni3f" unicode="&#x3f;" d="M289 403L289 457Q289 574 325 649.50Q361 725 459 809Q595 924 630.50 982Q666 1040 666 1122Q666 1224 600.50 1279.50Q535 1335 412 1335Q333 1335 258 1316.50Q183 1298 86 1249L27 1384Q216 1483 422 1483Q613 1483 719 1389Q825 1295 825 1124Q825 1051 805.50 995.50Q786 940 748 890.50Q710 841 584 731Q483 645 450.50 588Q418 531 418 436L418 403L289 403M240 106Q240 242 360 242Q418 242 449.50 207Q481 172 481 106Q481 42 449 6.50Q417-29 360-29Q308-29 274 2.50Q240 34 240 106Z"  horiz-adv-x="879" vert-adv-y="2048"  />

      
      <glyph glyph-name="uni40" unicode="&#x40;" d="M1720 729Q1720 587 1676 469Q1632 351 1552 286Q1472 221 1368 221Q1282 221 1223 273Q1164 325 1153 406L1145 406Q1105 319 1030.50 270Q956 221 854 221Q704 221 619.50 323.50Q535 426 535 602Q535 806 653 933.50Q771 1061 963 1061Q1031 1061 1117 1048.50Q1203 1036 1272 1014L1247 544L1247 522Q1247 344 1380 344Q1471 344 1528 451.50Q1585 559 1585 731Q1585 912 1511 1048Q1437 1184 1300.50 1257.50Q1164 1331 987 1331Q764 1331 599 1238.50Q434 1146 347 974.50Q260 803 260 578Q260 273 421 109Q582-55 885-55Q1095-55 1321 31L1321-102Q1129-186 885-186Q522-186 321.50 13.50Q121 213 121 571Q121 831 228 1034Q335 1237 533 1348.50Q731 1460 987 1460Q1202 1460 1369.50 1369.50Q1537 1279 1628.50 1112.50Q1720 946 1720 729M686 598Q686 344 881 344Q1088 344 1106 657L1120 918Q1048 938 963 938Q833 938 759.50 848Q686 758 686 598Z"  horiz-adv-x="1841" vert-adv-y="2048"  />

      
      <glyph glyph-name="uni41" unicode="&#x41;" d="M1120 0L938 465L352 465L172 0L0 0L578 1468L721 1468L1296 0L1120 0M885 618L715 1071Q682 1157 647 1282Q625 1186 584 1071L412 618L885 618Z"  horiz-adv-x="1296" vert-adv-y="2048"  />

      
      <glyph glyph-name="uni42" unicode="&#x42;" d="M201 1462L614 1462Q905 1462 1035 1375Q1165 1288 1165 1100Q1165 970 1092.50 885.50Q1020 801 881 776L881 766Q1214 709 1214 416Q1214 220 1081.50 110Q949 0 711 0L201 0L201 1462M371 836L651 836Q831 836 910 892.50Q989 949 989 1083Q989 1206 901 1260.50Q813 1315 621 1315L371 1315L371 836M371 692L371 145L676 145Q853 145 942.50 213.50Q1032 282 1032 428Q1032 564 940.50 628Q849 692 662 692L371 692Z"  horiz-adv-x="1327" vert-adv-y="2048"  />

      
      <glyph glyph-name="uni43" unicode="&#x43;" d="M827 1331Q586 1331 446.50 1170.50Q307 1010 307 731Q307 444 441.50 287.50Q576 131 825 131Q978 131 1174 186L1174 37Q1022-20 799-20Q476-20 300.50 176Q125 372 125 733Q125 959 209.50 1129Q294 1299 453.50 1391Q613 1483 829 1483Q1059 1483 1231 1399L1159 1253Q993 1331 827 1331Z"  horiz-adv-x="1292" vert-adv-y="2048"  />

      
      <glyph glyph-name="uni44" unicode="&#x44;" d="M1368 745Q1368 383 1171.50 191.50Q975 0 606 0L201 0L201 1462L649 1462Q990 1462 1179 1273Q1368 1084 1368 745M1188 739Q1188 1025 1044.50 1170Q901 1315 618 1315L371 1315L371 147L578 147Q882 147 1035 296.50Q1188 446 1188 739Z"  horiz-adv-x="1493" vert-adv-y="2048"  />

      
      <glyph glyph-name="uni45" unicode="&#x45;" d="M1016 0L201 0L201 1462L1016 1462L1016 1311L371 1311L371 840L977 840L977 690L371 690L371 152L1016 152L1016 0Z"  horiz-adv-x="1139" vert-adv-y="2048"  />

      
      <glyph glyph-name="uni46" unicode="&#x46;" d="M371 0L201 0L201 1462L1016 1462L1016 1311L371 1311L371 776L977 776L977 625L371 625L371 0Z"  horiz-adv-x="1057" vert-adv-y="2048"  />

      
      <glyph glyph-name="uni47" unicode="&#x47;" d="M844 766L1341 766L1341 55Q1225 18 1105-1Q985-20 827-20Q495-20 310 177.50Q125 375 125 731Q125 959 216.50 1130.50Q308 1302 480 1392.50Q652 1483 883 1483Q1117 1483 1319 1397L1253 1247Q1055 1331 872 1331Q605 1331 455 1172Q305 1013 305 731Q305 435 449.50 282Q594 129 874 129Q1026 129 1171 164L1171 614L844 614L844 766Z"  horiz-adv-x="1491" vert-adv-y="2048"  />

      
      <glyph glyph-name="uni48" unicode="&#x48;" d="M1311 0L1141 0L1141 688L371 688L371 0L201 0L201 1462L371 1462L371 840L1141 840L1141 1462L1311 1462L1311 0Z"  horiz-adv-x="1511" vert-adv-y="2048"  />

      
      <glyph glyph-name="uni49" unicode="&#x49;" d="M201 0L201 1462L371 1462L371 0L201 0Z"  horiz-adv-x="571" vert-adv-y="2048"  />

      
      <glyph glyph-name="uni4a" unicode="&#x4a;" d="M-12-385Q-106-385-160-358L-160-213Q-89-233-12-233Q87-233 138.50-173Q190-113 190 0L190 1462L360 1462L360 14Q360-176 264-280.50Q168-385-12-385Z"  horiz-adv-x="547" vert-adv-y="2048"  />

      
      <glyph glyph-name="uni4b" unicode="&#x4b;" d="M1257 0L1057 0L524 709L371 573L371 0L201 0L201 1462L371 1462L371 737L1034 1462L1235 1462L647 827L1257 0Z"  horiz-adv-x="1257" vert-adv-y="2048"  />

      
      <glyph glyph-name="uni4c" unicode="&#x4c;" d="M201 0L201 1462L371 1462L371 154L1016 154L1016 0L201 0Z"  horiz-adv-x="1063" vert-adv-y="2048"  />

      
      <glyph glyph-name="uni4d" unicode="&#x4d;" d="M848 0L352 1296L344 1296Q358 1142 358 930L358 0L201 0L201 1462L457 1462L920 256L928 256L1395 1462L1649 1462L1649 0L1479 0L1479 942Q1479 1104 1493 1294L1485 1294L985 0L848 0Z"  horiz-adv-x="1849" vert-adv-y="2048"  />

      
      <glyph glyph-name="uni4e" unicode="&#x4e;" d="M1343 0L1149 0L350 1227L342 1227Q358 1011 358 831L358 0L201 0L201 1462L393 1462L1190 240L1198 240Q1196 267 1189 413.50Q1182 560 1184 623L1184 1462L1343 1462L1343 0Z"  horiz-adv-x="1544" vert-adv-y="2048"  />

      
      <glyph glyph-name="uni4f" unicode="&#x4f;" d="M1470 733Q1470 382 1292.50 181Q1115-20 799-20Q476-20 300.50 177.50Q125 375 125 735Q125 1092 301 1288.50Q477 1485 801 1485Q1116 1485 1293 1285Q1470 1085 1470 733M305 733Q305 436 431.50 282.50Q558 129 799 129Q1042 129 1166 282Q1290 435 1290 733Q1290 1028 1166.50 1180.50Q1043 1333 801 1333Q558 1333 431.50 1179.50Q305 1026 305 733Z"  horiz-adv-x="1595" vert-adv-y="2048"  />

      
      <glyph glyph-name="uni50" unicode="&#x50;" d="M1128 1036Q1128 814 976.50 694.50Q825 575 543 575L371 575L371 0L201 0L201 1462L580 1462Q1128 1462 1128 1036M371 721L524 721Q750 721 851 794Q952 867 952 1028Q952 1173 857 1244Q762 1315 561 1315L371 1315L371 721Z"  horiz-adv-x="1233" vert-adv-y="2048"  />

      
      <glyph glyph-name="uni51" unicode="&#x51;" d="M1470 733Q1470 452 1357 266Q1244 80 1038 14L1386-348L1139-348L854-18L799-20Q476-20 300.50 177.50Q125 375 125 735Q125 1092 301 1288.50Q477 1485 801 1485Q1116 1485 1293 1285Q1470 1085 1470 733M305 733Q305 436 431.50 282.50Q558 129 799 129Q1042 129 1166 282Q1290 435 1290 733Q1290 1028 1166.50 1180.50Q1043 1333 801 1333Q558 1333 431.50 1179.50Q305 1026 305 733Z"  horiz-adv-x="1595" vert-adv-y="2048"  />

      
      <glyph glyph-name="uni52" unicode="&#x52;" d="M371 608L371 0L201 0L201 1462L602 1462Q871 1462 999.50 1359Q1128 1256 1128 1049Q1128 759 834 657L1231 0L1030 0L676 608L371 608M371 754L604 754Q784 754 868 825.50Q952 897 952 1040Q952 1185 866.50 1249Q781 1313 592 1313L371 1313L371 754Z"  horiz-adv-x="1266" vert-adv-y="2048"  />

      
      <glyph glyph-name="uni53" unicode="&#x53;" d="M1026 389Q1026 196 886 88Q746-20 506-20Q246-20 106 47L106 211Q196 173 302 151Q408 129 512 129Q682 129 768 193.50Q854 258 854 373Q854 449 823.50 497.50Q793 546 721.50 587Q650 628 504 680Q300 753 212.50 853Q125 953 125 1114Q125 1283 252 1383Q379 1483 588 1483Q806 1483 989 1403L936 1255Q755 1331 584 1331Q449 1331 373 1273Q297 1215 297 1112Q297 1036 325 987.50Q353 939 419.50 898.50Q486 858 623 809Q853 727 939.50 633Q1026 539 1026 389Z"  horiz-adv-x="1124" vert-adv-y="2048"  />

      
      <glyph glyph-name="uni54" unicode="&#x54;" d="M651 0L481 0L481 1311L18 1311L18 1462L1114 1462L1114 1311L651 1311L651 0Z"  horiz-adv-x="1133" vert-adv-y="2048"  />

      
      <glyph glyph-name="uni55" unicode="&#x55;" d="M1305 1462L1305 516Q1305 266 1154 123Q1003-20 739-20Q475-20 330.50 124Q186 268 186 520L186 1462L356 1462L356 508Q356 325 456 227Q556 129 750 129Q935 129 1035 227.50Q1135 326 1135 510L1135 1462L1305 1462Z"  horiz-adv-x="1491" vert-adv-y="2048"  />

      
      <glyph glyph-name="uni56" unicode="&#x56;" d="M1036 1462L1219 1462L692 0L524 0L0 1462L180 1462L516 516Q574 353 608 199Q644 361 702 522L1036 1462Z"  horiz-adv-x="1219" vert-adv-y="2048"  />

      
      <glyph glyph-name="uni57" unicode="&#x57;" d="M1477 0L1309 0L1014 979Q993 1044 967 1143Q941 1242 940 1262Q918 1130 870 973L584 0L416 0L27 1462L207 1462L438 559Q486 369 508 215Q535 398 588 573L850 1462L1030 1462L1305 565Q1353 410 1386 215Q1405 357 1458 561L1688 1462L1868 1462L1477 0Z"  horiz-adv-x="1896" vert-adv-y="2048"  />

      
      <glyph glyph-name="uni58" unicode="&#x58;" d="M1174 0L981 0L588 643L188 0L8 0L494 764L41 1462L229 1462L592 883L958 1462L1139 1462L686 770L1174 0Z"  horiz-adv-x="1182" vert-adv-y="2048"  />

      
      <glyph glyph-name="uni59" unicode="&#x59;" d="M573 731L963 1462L1147 1462L659 567L659 0L487 0L487 559L0 1462L186 1462L573 731Z"  horiz-adv-x="1147" vert-adv-y="2048"  />

      
      <glyph glyph-name="uni5a" unicode="&#x5a;" d="M1087 0L82 0L82 133L858 1309L106 1309L106 1462L1065 1462L1065 1329L289 154L1087 154L1087 0Z"  horiz-adv-x="1169" vert-adv-y="2048"  />

      
      <glyph glyph-name="uni5b" unicode="&#x5b;" d="M623-324L166-324L166 1462L623 1462L623 1321L334 1321L334-182L623-182L623-324Z"  horiz-adv-x="674" vert-adv-y="2048"  />

      
      <glyph glyph-name="uni5c" unicode="&#x5c;" d="M186 1462L733 0L567 0L23 1462L186 1462Z"  horiz-adv-x="752" vert-adv-y="2048"  />

      
      <glyph glyph-name="uni5d" unicode="&#x5d;" d="M51-182L340-182L340 1321L51 1321L51 1462L508 1462L508-324L51-324L51-182Z"  horiz-adv-x="674" vert-adv-y="2048"  />

      
      <glyph glyph-name="uni5e" unicode="&#x5e;" d="M49 551L483 1473L582 1473L1059 551L907 551L535 1296L201 551L49 551Z"  horiz-adv-x="1110" vert-adv-y="2048"  />

      
      <glyph glyph-name="uni5f" unicode="&#x5f;" d="M922-315L-4-315L-4-184L922-184L922-315Z"  horiz-adv-x="918" vert-adv-y="2048"  />

      
      <glyph glyph-name="uni60" unicode="&#x60;" d="M786 1241L676 1241Q611 1293 522 1389Q433 1485 393 1548L393 1569L596 1569Q628 1500 685 1409.50Q742 1319 786 1266L786 1241Z"  horiz-adv-x="1182" vert-adv-y="2048"  />

      
      <glyph glyph-name="uni61" unicode="&#x61;" d="M850 0L817 156L809 156Q727 53 645.50 16.50Q564-20 442-20Q279-20 186.50 64Q94 148 94 303Q94 635 625 651L811 657L811 725Q811 854 755.50 915.50Q700 977 578 977Q441 977 268 893L217 1020Q298 1064 394.50 1089Q491 1114 588 1114Q784 1114 878.50 1027Q973 940 973 748L973 0L850 0M475 117Q630 117 718.50 202Q807 287 807 440L807 539L641 532Q443 525 355.50 470.50Q268 416 268 301Q268 211 322.50 164Q377 117 475 117Z"  horiz-adv-x="1139" vert-adv-y="2048"  />

      
      <glyph glyph-name="uni62" unicode="&#x62;" d="M686 1114Q902 1114 1021.50 966.50Q1141 819 1141 549Q1141 279 1020.50 129.50Q900-20 686-20Q579-20 490.50 19.50Q402 59 342 141L330 141L295 0L176 0L176 1556L342 1556L342 1178Q342 1051 334 950L342 950Q458 1114 686 1114M662 975Q492 975 417 877.50Q342 780 342 549Q342 318 419 218.50Q496 119 666 119Q819 119 894 230.50Q969 342 969 551Q969 765 894 870Q819 975 662 975Z"  horiz-adv-x="1255" vert-adv-y="2048"  />

      
      <glyph glyph-name="uni63" unicode="&#x63;" d="M614-20Q376-20 245.50 126.50Q115 273 115 541Q115 816 247.50 966Q380 1116 625 1116Q704 1116 783 1099Q862 1082 907 1059L856 918Q801 940 736 954.50Q671 969 621 969Q287 969 287 543Q287 341 368.50 233Q450 125 610 125Q747 125 891 184L891 37Q781-20 614-20Z"  horiz-adv-x="975" vert-adv-y="2048"  />

      
      <glyph glyph-name="uni64" unicode="&#x64;" d="M922 147L913 147Q798-20 569-20Q354-20 234.50 127Q115 274 115 545Q115 816 235 966Q355 1116 569 1116Q792 1116 911 954L924 954L917 1033L913 1110L913 1556L1079 1556L1079 0L944 0L922 147M590 119Q760 119 836.50 211.50Q913 304 913 510L913 545Q913 778 835.50 877.50Q758 977 588 977Q442 977 364.50 863.50Q287 750 287 543Q287 333 364 226Q441 119 590 119Z"  horiz-adv-x="1255" vert-adv-y="2048"  />

      
      <glyph glyph-name="uni65" unicode="&#x65;" d="M639-20Q396-20 255.50 128Q115 276 115 539Q115 804 245.50 960Q376 1116 596 1116Q802 1116 922 980.50Q1042 845 1042 623L1042 518L287 518Q292 325 384.50 225Q477 125 645 125Q822 125 995 199L995 51Q907 13 828.50-3.50Q750-20 639-20M594 977Q462 977 383.50 891Q305 805 291 653L864 653Q864 810 794 893.50Q724 977 594 977Z"  horiz-adv-x="1149" vert-adv-y="2048"  />

      
      <glyph glyph-name="uni66" unicode="&#x66;" d="M670 967L391 967L391 0L225 0L225 967L29 967L29 1042L225 1102L225 1163Q225 1567 578 1567Q665 1567 782 1532L739 1399Q643 1430 575 1430Q481 1430 436 1367.50Q391 1305 391 1167L391 1096L670 1096L670 967Z"  horiz-adv-x="694" vert-adv-y="2048"  />

      
      <glyph glyph-name="uni67" unicode="&#x67;" d="M1073 1096L1073 991L870 967Q898 932 920 875.50Q942 819 942 748Q942 587 832 491Q722 395 530 395Q481 395 438 403Q332 347 332 262Q332 217 369 195.50Q406 174 496 174L690 174Q868 174 963.50 99Q1059 24 1059-119Q1059-301 913-396.50Q767-492 487-492Q272-492 155.50-412Q39-332 39-186Q39-86 103-13Q167 60 283 86Q241 105 212.50 145Q184 185 184 238Q184 298 216 343Q248 388 317 430Q232 465 178.50 549Q125 633 125 741Q125 921 233 1018.50Q341 1116 539 1116Q625 1116 694 1096L1073 1096M199-184Q199-273 274-319Q349-365 489-365Q698-365 798.50-302.50Q899-240 899-133Q899-44 844-9.50Q789 25 637 25L438 25Q325 25 262-29Q199-83 199-184M289 745Q289 630 354 571Q419 512 535 512Q778 512 778 748Q778 995 532 995Q415 995 352 932Q289 869 289 745Z"  horiz-adv-x="1122" vert-adv-y="2048"  />

      
      <glyph glyph-name="uni68" unicode="&#x68;" d="M926 0L926 709Q926 843 865 909Q804 975 674 975Q501 975 421.50 881Q342 787 342 573L342 0L176 0L176 1556L342 1556L342 1085Q342 1000 334 944L344 944Q393 1023 483.50 1068.50Q574 1114 690 1114Q891 1114 991.50 1018.50Q1092 923 1092 715L1092 0L926 0Z"  horiz-adv-x="1257" vert-adv-y="2048"  />

      
      <glyph glyph-name="uni69" unicode="&#x69;" d="M342 0L176 0L176 1096L342 1096L342 0M162 1393Q162 1450 190 1476.50Q218 1503 260 1503Q300 1503 329 1476Q358 1449 358 1393Q358 1337 329 1309.50Q300 1282 260 1282Q218 1282 190 1309.50Q162 1337 162 1393Z"  horiz-adv-x="518" vert-adv-y="2048"  />

      
      <glyph glyph-name="uni6a" unicode="&#x6a;" d="M43-492Q-52-492-111-467L-111-332Q-42-352 25-352Q103-352 139.50-309.50Q176-267 176-180L176 1096L342 1096L342-168Q342-492 43-492M162 1393Q162 1450 190 1476.50Q218 1503 260 1503Q300 1503 329 1476Q358 1449 358 1393Q358 1337 329 1309.50Q300 1282 260 1282Q218 1282 190 1309.50Q162 1337 162 1393Z"  horiz-adv-x="518" vert-adv-y="2048"  />

      
      <glyph glyph-name="uni6b" unicode="&#x6b;" d="M340 561Q383 622 471 721L825 1096L1022 1096L578 629L1053 0L852 0L465 518L340 410L340 0L176 0L176 1556L340 1556L340 731Q340 676 332 561L340 561Z"  horiz-adv-x="1075" vert-adv-y="2048"  />

      
      <glyph glyph-name="uni6c" unicode="&#x6c;" d="M342 0L176 0L176 1556L342 1556L342 0Z"  horiz-adv-x="518" vert-adv-y="2048"  />

      
      <glyph glyph-name="uni6d" unicode="&#x6d;" d="M1573 0L1573 713Q1573 844 1517 909.50Q1461 975 1343 975Q1188 975 1114 886Q1040 797 1040 612L1040 0L874 0L874 713Q874 844 818 909.50Q762 975 643 975Q487 975 414.50 881.50Q342 788 342 575L342 0L176 0L176 1096L311 1096L338 946L346 946Q393 1026 478.50 1071Q564 1116 670 1116Q927 1116 1006 930L1014 930Q1063 1016 1156 1066Q1249 1116 1368 1116Q1554 1116 1646.50 1020.50Q1739 925 1739 715L1739 0L1573 0Z"  horiz-adv-x="1905" vert-adv-y="2048"  />

      
      <glyph glyph-name="uni6e" unicode="&#x6e;" d="M926 0L926 709Q926 843 865 909Q804 975 674 975Q502 975 422 882Q342 789 342 575L342 0L176 0L176 1096L311 1096L338 946L346 946Q397 1027 489 1071.50Q581 1116 694 1116Q892 1116 992 1020.50Q1092 925 1092 715L1092 0L926 0Z"  horiz-adv-x="1257" vert-adv-y="2048"  />

      
      <glyph glyph-name="uni6f" unicode="&#x6f;" d="M1122 549Q1122 281 987 130.50Q852-20 614-20Q467-20 353 49Q239 118 177 247Q115 376 115 549Q115 817 249 966.50Q383 1116 621 1116Q851 1116 986.50 963Q1122 810 1122 549M287 549Q287 339 371 229Q455 119 618 119Q781 119 865.50 228.50Q950 338 950 549Q950 758 865.50 866.50Q781 975 616 975Q453 975 370 868Q287 761 287 549Z"  horiz-adv-x="1237" vert-adv-y="2048"  />

      
      <glyph glyph-name="uni70" unicode="&#x70;" d="M686-20Q579-20 490.50 19.50Q402 59 342 141L330 141Q342 45 342-41L342-492L176-492L176 1096L311 1096L334 946L342 946Q406 1036 491 1076Q576 1116 686 1116Q904 1116 1022.50 967Q1141 818 1141 549Q1141 279 1020.50 129.50Q900-20 686-20M662 975Q494 975 419 882Q344 789 342 586L342 549Q342 318 419 218.50Q496 119 666 119Q808 119 888.50 234Q969 349 969 551Q969 756 888.50 865.50Q808 975 662 975Z"  horiz-adv-x="1255" vert-adv-y="2048"  />

      
      <glyph glyph-name="uni71" unicode="&#x71;" d="M590 119Q756 119 832 208Q908 297 913 508L913 545Q913 775 835 876Q757 977 588 977Q442 977 364.50 863.50Q287 750 287 543Q287 336 363.50 227.50Q440 119 590 119M565-20Q353-20 234 129Q115 278 115 545Q115 814 235 965Q355 1116 569 1116Q794 1116 915 946L924 946L948 1096L1079 1096L1079-492L913-492L913-23Q913 77 924 147L911 147Q796-20 565-20Z"  horiz-adv-x="1255" vert-adv-y="2048"  />

      
      <glyph glyph-name="uni72" unicode="&#x72;" d="M676 1116Q749 1116 807 1104L784 950Q716 965 664 965Q531 965 436.50 857Q342 749 342 588L342 0L176 0L176 1096L313 1096L332 893L340 893Q401 1000 487 1058Q573 1116 676 1116Z"  horiz-adv-x="836" vert-adv-y="2048"  />

      
      <glyph glyph-name="uni73" unicode="&#x73;" d="M883 299Q883 146 769 63Q655-20 449-20Q231-20 109 49L109 203Q188 163 278.50 140Q369 117 453 117Q583 117 653 158.50Q723 200 723 285Q723 349 667.50 394.50Q612 440 451 502Q298 559 233.50 601.50Q169 644 137.50 698Q106 752 106 827Q106 961 215 1038.50Q324 1116 514 1116Q691 1116 860 1044L801 909Q636 977 502 977Q384 977 324 940Q264 903 264 838Q264 794 286.50 763Q309 732 359 704Q409 676 551 623Q746 552 814.50 480Q883 408 883 299Z"  horiz-adv-x="977" vert-adv-y="2048"  />

      
      <glyph glyph-name="uni74" unicode="&#x74;" d="M530 117Q574 117 615 123.50Q656 130 680 137L680 10Q653-3 600.50-11.50Q548-20 506-20Q188-20 188 315L188 967L31 967L31 1047L188 1116L258 1350L354 1350L354 1096L672 1096L672 967L354 967L354 322Q354 223 401 170Q448 117 530 117Z"  horiz-adv-x="723" vert-adv-y="2048"  />

      
      <glyph glyph-name="uni75" unicode="&#x75;" d="M332 1096L332 385Q332 251 393 185Q454 119 584 119Q756 119 835.50 213Q915 307 915 520L915 1096L1081 1096L1081 0L944 0L920 147L911 147Q860 66 769.50 23Q679-20 563-20Q363-20 263.50 75Q164 170 164 379L164 1096L332 1096Z"  horiz-adv-x="1257" vert-adv-y="2048"  />

      
      <glyph glyph-name="uni76" unicode="&#x76;" d="M416 0L0 1096L178 1096L414 446Q494 218 508 150L516 150Q527 203 585.50 369.50Q644 536 848 1096L1026 1096L610 0L416 0Z"  horiz-adv-x="1026" vert-adv-y="2048"  />

      
      <glyph glyph-name="uni77" unicode="&#x77;" d="M1071 0L870 643Q851 702 799 911L791 911Q751 736 721 641L514 0L322 0L23 1096L197 1096Q303 683 358.50 467Q414 251 422 176L430 176Q441 233 465.50 323.50Q490 414 508 467L709 1096L889 1096L1085 467Q1141 295 1161 178L1169 178Q1173 214 1190.50 289Q1208 364 1399 1096L1571 1096L1268 0L1071 0Z"  horiz-adv-x="1593" vert-adv-y="2048"  />

      
      <glyph glyph-name="uni78" unicode="&#x78;" d="M440 561L59 1096L248 1096L537 676L825 1096L1012 1096L631 561L1032 0L844 0L537 444L227 0L39 0L440 561Z"  horiz-adv-x="1073" vert-adv-y="2048"  />

      
      <glyph glyph-name="uni79" unicode="&#x79;" d="M2 1096L180 1096L420 471Q499 257 518 162L526 162Q539 213 580.50 336.50Q622 460 852 1096L1030 1096L559-152Q489-337 395.50-414.50Q302-492 166-492Q90-492 16-475L16-342Q71-354 139-354Q310-354 383-162L444-6L2 1096Z"  horiz-adv-x="1032" vert-adv-y="2048"  />

      
      <glyph glyph-name="uni7a" unicode="&#x7a;" d="M877 0L82 0L82 113L680 967L119 967L119 1096L862 1096L862 967L272 129L877 129L877 0Z"  horiz-adv-x="958" vert-adv-y="2048"  />

      
      <glyph glyph-name="uni7b" unicode="&#x7b;" d="M475 12Q475-90 533.50-136Q592-182 705-184L705-324Q515-322 411-237Q307-152 307 2L307 305Q307 409 244 453.50Q181 498 61 498L61 639Q191 641 249 687Q307 733 307 829L307 1135Q307 1290 415 1376Q523 1462 705 1462L705 1323Q475 1317 475 1124L475 829Q475 614 252 575L252 563Q475 524 475 309L475 12Z"  horiz-adv-x="776" vert-adv-y="2048"  />

      
      <glyph glyph-name="uni7c" unicode="&#x7c;" d="M494 1556L635 1556L635-496L494-496L494 1556Z"  horiz-adv-x="1128" vert-adv-y="2048"  />

      
      <glyph glyph-name="uni7d" unicode="&#x7d;" d="M522 575Q299 614 299 829L299 1124Q299 1317 72 1323L72 1462Q256 1462 361.50 1375Q467 1288 467 1135L467 829Q467 732 526 686.50Q585 641 715 639L715 498Q593 498 530 453.50Q467 409 467 305L467 2Q467-151 364.50-236.50Q262-322 72-324L72-184Q183-182 241-136Q299-90 299 12L299 309Q299 423 354 483Q409 543 522 563L522 575Z"  horiz-adv-x="776" vert-adv-y="2048"  />

      
      <glyph glyph-name="uni7e" unicode="&#x7e;" d="M338 713Q285 713 221.50 679.50Q158 646 104 592L104 743Q204 852 348 852Q416 852 472.50 838Q529 824 618 786Q684 758 733 744.50Q782 731 829 731Q883 731 947 763Q1011 795 1065 852L1065 702Q963 592 821 592Q749 592 686 608.50Q623 625 551 657Q476 689 431 701Q386 713 338 713Z"  horiz-adv-x="1171" vert-adv-y="2048"  />

      
      <glyph glyph-name="unia1" unicode="&#xa1;" d="M219 684L324 684L375-373L168-373L219 684M393 983Q393 848 272 848Q212 848 182 883.50Q152 919 152 983Q152 1046 183.50 1082Q215 1118 272 1118Q323 1118 358 1086Q393 1054 393 983Z"  horiz-adv-x="547" vert-adv-y="2048"  />

      
      <glyph glyph-name="unia2" unicode="&#xa2;" d="M971 240Q866 186 719 180L719-20L586-20L586 186Q383 218 286.50 354.50Q190 491 190 741Q190 1249 586 1311L586 1483L721 1483L721 1319Q796 1316 867 1299.50Q938 1283 987 1260L938 1120Q805 1171 696 1171Q524 1171 443 1065.50Q362 960 362 743Q362 531 441.50 429.50Q521 328 688 328Q829 328 971 387L971 240Z"  horiz-adv-x="1171" vert-adv-y="2048"  />

      
      <glyph glyph-name="unia3" unicode="&#xa3;" d="M682 1481Q872 1481 1042 1397L981 1264Q827 1341 684 1341Q561 1341 498.50 1279Q436 1217 436 1077L436 782L858 782L858 655L436 655L436 434Q436 334 403.50 266Q371 198 297 154L1092 154L1092 0L63 0L63 141Q268 188 268 432L268 655L70 655L70 782L268 782L268 1098Q268 1276 380 1378.50Q492 1481 682 1481Z"  horiz-adv-x="1171" vert-adv-y="2048"  />

      
      <glyph glyph-name="unia4" unicode="&#xa4;" d="M184 723Q184 845 258 952L123 1092L217 1184L352 1051Q456 1124 586 1124Q713 1124 815 1051L952 1184L1047 1092L913 954Q987 841 987 723Q987 592 913 489L1044 354L952 262L815 395Q713 324 586 324Q452 324 352 397L217 264L125 356L258 492Q184 599 184 723M313 723Q313 611 391.50 531Q470 451 586 451Q702 451 781 530.50Q860 610 860 723Q860 837 780 918Q700 999 586 999Q470 999 391.50 917Q313 835 313 723Z"  horiz-adv-x="1171" vert-adv-y="2048"  />

      
      <glyph glyph-name="unia5" unicode="&#xa5;" d="M584 735L963 1462L1137 1462L721 692L983 692L983 565L666 565L666 395L983 395L983 268L666 268L666 0L502 0L502 268L186 268L186 395L502 395L502 565L186 565L186 692L442 692L31 1462L209 1462L584 735Z"  horiz-adv-x="1171" vert-adv-y="2048"  />

      
      <glyph glyph-name="unia6" unicode="&#xa6;" d="M494 1556L635 1556L635 780L494 780L494 1556M494 281L635 281L635-496L494-496L494 281Z"  horiz-adv-x="1128" vert-adv-y="2048"  />

      
      <glyph glyph-name="unia7" unicode="&#xa7;" d="M139 809Q139 895 182 963.50Q225 1032 303 1069Q229 1109 187 1164.50Q145 1220 145 1305Q145 1426 248.50 1495.50Q352 1565 549 1565Q643 1565 722.50 1550.50Q802 1536 899 1497L846 1366Q748 1405 680.50 1418.50Q613 1432 537 1432Q421 1432 363 1402.50Q305 1373 305 1309Q305 1249 366.50 1207Q428 1165 582 1110Q768 1042 843 966.50Q918 891 918 784Q918 694 877 623.50Q836 553 762 512Q915 431 915 285Q915 145 798 68.50Q681-8 469-8Q251-8 123 57L123 205Q201 168 298 145.50Q395 123 477 123Q611 123 681.50 161Q752 199 752 270Q752 316 728 345Q704 374 650 403Q596 432 481 475Q339 527 272 572Q205 617 172 674Q139 731 139 809M285 829Q285 752 351 699.50Q417 647 584 586L633 567Q770 647 770 758Q770 841 696.50 897Q623 953 438 1010Q370 991 327.50 941Q285 891 285 829Z"  horiz-adv-x="1057" vert-adv-y="2048"  />

      
      <glyph glyph-name="unia8" unicode="&#xa8;" d="M309 1393Q309 1445 335.50 1468Q362 1491 399 1491Q437 1491 464.50 1468Q492 1445 492 1393Q492 1343 464.50 1318.50Q437 1294 399 1294Q362 1294 335.50 1318.50Q309 1343 309 1393M690 1393Q690 1445 716.50 1468Q743 1491 780 1491Q817 1491 844.50 1468Q872 1445 872 1393Q872 1343 844.50 1318.50Q817 1294 780 1294Q743 1294 716.50 1318.50Q690 1343 690 1393Z"  horiz-adv-x="1182" vert-adv-y="2048"  />

      
      <glyph glyph-name="unia9" unicode="&#xa9;" d="M893 1059Q768 1059 700.50 972Q633 885 633 731Q633 563 696.50 482Q760 401 891 401Q977 401 1102 446L1102 322Q1054 302 1003.50 288Q953 274 883 274Q689 274 585 394.50Q481 515 481 731Q481 940 591.50 1063Q702 1186 893 1186Q1021 1186 1139 1126L1081 1008Q973 1059 893 1059M100 731Q100 931 200 1106Q300 1281 475 1382Q650 1483 852 1483Q1052 1483 1227 1383Q1402 1283 1503 1108Q1604 933 1604 731Q1604 534 1507 361Q1410 188 1235 84Q1060-20 852-20Q645-20 470 83.50Q295 187 197.50 360Q100 533 100 731M205 731Q205 558 292 407.50Q379 257 529.50 170.50Q680 84 852 84Q1026 84 1175 171Q1324 258 1411.50 406.50Q1499 555 1499 731Q1499 905 1412 1054Q1325 1203 1176.50 1290.50Q1028 1378 852 1378Q678 1378 529 1291Q380 1204 292.50 1055.50Q205 907 205 731Z"  horiz-adv-x="1704" vert-adv-y="2048"  />

      
      <glyph glyph-name="uniaa" unicode="&#xaa;" d="M532 801L508 885Q416 788 276 788Q181 788 125.50 837.50Q70 887 70 989Q70 1091 147 1143.50Q224 1196 389 1202L506 1206L506 1245Q506 1378 358 1378Q258 1378 154 1327L111 1423Q225 1479 358 1479Q488 1479 556.50 1426.50Q625 1374 625 1253L625 801L532 801M193 989Q193 889 305 889Q506 889 506 1069L506 1118L408 1114Q296 1110 244.50 1081.50Q193 1053 193 989Z"  horiz-adv-x="725" vert-adv-y="2048"  />

      
      <glyph glyph-name="uniab" unicode="&#xab;" d="M82 551L424 958L543 889L254 539L543 188L424 117L82 524L82 551M477 551L821 958L938 889L651 539L938 188L821 117L477 524L477 551Z"  horiz-adv-x="1018" vert-adv-y="2048"  />

      
      <glyph glyph-name="uniac" unicode="&#xac;" d="M1065 791L1065 264L928 264L928 653L104 653L104 791L1065 791Z"  horiz-adv-x="1171" vert-adv-y="2048"  />

      
      <glyph glyph-name="uniad" unicode="&#xad;" d="M84 473L84 625L575 625L575 473L84 473Z"  horiz-adv-x="659" vert-adv-y="2048"  />

      
      <glyph glyph-name="uniae" unicode="&#xae;" d="M723 762L831 762Q911 762 959.50 803.50Q1008 845 1008 909Q1008 984 965 1016.50Q922 1049 829 1049L723 1049L723 762M1157 913Q1157 833 1114.50 771.50Q1072 710 995 680L1233 285L1065 285L858 639L723 639L723 285L575 285L575 1176L836 1176Q1002 1176 1079.50 1111Q1157 1046 1157 913M100 731Q100 931 200 1106Q300 1281 475 1382Q650 1483 852 1483Q1052 1483 1227 1383Q1402 1283 1503 1108Q1604 933 1604 731Q1604 534 1507 361Q1410 188 1235 84Q1060-20 852-20Q645-20 470 83.50Q295 187 197.50 360Q100 533 100 731M205 731Q205 558 292 407.50Q379 257 529.50 170.50Q680 84 852 84Q1026 84 1175 171Q1324 258 1411.50 406.50Q1499 555 1499 731Q1499 905 1412 1054Q1325 1203 1176.50 1290.50Q1028 1378 852 1378Q678 1378 529 1291Q380 1204 292.50 1055.50Q205 907 205 731Z"  horiz-adv-x="1704" vert-adv-y="2048"  />

      
      <glyph glyph-name="uniaf" unicode="&#xaf;" d="M1030 1556L-6 1556L-6 1683L1030 1683L1030 1556Z"  horiz-adv-x="1024" vert-adv-y="2048"  />

      
      <glyph glyph-name="unib0" unicode="&#xb0;" d="M127 1171Q127 1301 217.50 1392Q308 1483 438 1483Q568 1483 659 1392.50Q750 1302 750 1171Q750 1087 709 1015.50Q668 944 595 902Q522 860 438 860Q308 860 217.50 950Q127 1040 127 1171M242 1171Q242 1089 300.50 1032Q359 975 440 975Q520 975 577.50 1031.50Q635 1088 635 1171Q635 1255 578.50 1311.50Q522 1368 440 1368Q357 1368 299.50 1311Q242 1254 242 1171Z"  horiz-adv-x="877" vert-adv-y="2048"  />

      
      <glyph glyph-name="unib1" unicode="&#xb1;" d="M653 791L1065 791L1065 653L653 653L653 227L514 227L514 653L104 653L104 791L514 791L514 1219L653 1219L653 791M104 1L104 139L1065 139L1065 1L104 1Z"  horiz-adv-x="1171" vert-adv-y="2048"  />

      
      <glyph glyph-name="unib2" unicode="&#xb2;" d="M653 586L49 586L49 690L285 920Q374 1006 415 1054.50Q456 1103 472.50 1141Q489 1179 489 1233Q489 1301 449 1335.50Q409 1370 346 1370Q294 1370 245 1351Q196 1332 127 1282L61 1370Q192 1481 344 1481Q476 1481 549.50 1416Q623 1351 623 1239Q623 1159 578.50 1083.50Q534 1008 387 870L213 705L653 705L653 586Z"  horiz-adv-x="711" vert-adv-y="2048"  />

      
      <glyph glyph-name="unib3" unicode="&#xb3;" d="M627 1255Q627 1175 586 1123.50Q545 1072 477 1049Q653 1002 653 840Q653 712 561 640.50Q469 569 301 569Q149 569 33 625L33 748Q180 680 303 680Q514 680 514 842Q514 987 283 987L166 987L166 1094L285 1094Q388 1094 437.50 1133.50Q487 1173 487 1241Q487 1302 447 1336Q407 1370 340 1370Q274 1370 218 1348.50Q162 1327 106 1292L37 1382Q100 1427 170 1454Q240 1481 334 1481Q470 1481 548.50 1421.50Q627 1362 627 1255Z"  horiz-adv-x="711" vert-adv-y="2048"  />

      
      <glyph glyph-name="unib4" unicode="&#xb4;" d="M393 1266Q441 1328 496.50 1416Q552 1504 584 1569L786 1569L786 1548Q742 1483 655 1388Q568 1293 504 1241L393 1241L393 1266Z"  horiz-adv-x="1182" vert-adv-y="2048"  />

      
      <glyph glyph-name="unib5" unicode="&#xb5;" d="M342 381Q342 119 596 119Q767 119 846.50 213.50Q926 308 926 520L926 1096L1092 1096L1092 0L956 0L930 147L920 147Q809-20 580-20Q430-20 342 72L332 72Q342-12 342-172L342-492L176-492L176 1096L342 1096L342 381Z"  horiz-adv-x="1268" vert-adv-y="2048"  />

      
      <glyph glyph-name="unib6" unicode="&#xb6;" d="M1120-260L1006-260L1006 1452L793 1452L793-260L678-260L678 559Q616 541 532 541Q316 541 214.50 666Q113 791 113 1042Q113 1302 222 1429Q331 1556 563 1556L1120 1556L1120-260Z"  horiz-adv-x="1341" vert-adv-y="2048"  />

      
      <glyph glyph-name="unib7" unicode="&#xb7;" d="M152 723Q152 789 183 823.50Q214 858 270 858Q328 858 360.50 823.50Q393 789 393 723Q393 658 360 623Q327 588 270 588Q219 588 185.50 619.50Q152 651 152 723Z"  horiz-adv-x="545" vert-adv-y="2048"  />

      
      <glyph glyph-name="unib8" unicode="&#xb8;" d="M436-289Q436-386 359.50-439Q283-492 133-492Q82-492 37-483L37-377Q82-385 141-385Q220-385 260.50-365Q301-345 301-291Q301-248 261.50-221.50Q222-195 113-178L201 0L311 0L256-115Q436-154 436-289Z"  horiz-adv-x="465" vert-adv-y="2048"  />

      
      <glyph glyph-name="unib9" unicode="&#xb9;" d="M338 1462L481 1462L481 586L348 586L348 1165Q348 1256 354 1346Q332 1324 305 1301.50Q278 1279 143 1184L76 1280L338 1462Z"  horiz-adv-x="711" vert-adv-y="2048"  />

      
      <glyph glyph-name="uniba" unicode="&#xba;" d="M702 1135Q702 971 616.50 879.50Q531 788 381 788Q235 788 150.50 881Q66 974 66 1135Q66 1298 150 1388.50Q234 1479 385 1479Q537 1479 619.50 1388Q702 1297 702 1135M188 1135Q188 1013 233.50 952Q279 891 383 891Q488 891 534 952Q580 1013 580 1135Q580 1258 534 1317Q488 1376 383 1376Q280 1376 234 1317Q188 1258 188 1135Z"  horiz-adv-x="768" vert-adv-y="2048"  />

      
      <glyph glyph-name="unibb" unicode="&#xbb;" d="M936 524L592 117L475 188L762 539L475 889L592 958L936 551L936 524M541 524L197 117L80 188L367 539L80 889L197 958L541 551L541 524Z"  horiz-adv-x="1018" vert-adv-y="2048"  />

      
      <glyph glyph-name="unibc" unicode="&#xbc;" d="M1298 1462L395 0L252 0L1155 1462L1298 1462M337 1462L480 1462L480 586L347 586L347 1165Q347 1256 353 1346Q331 1324 304 1301.50Q277 1279 142 1184L75 1280L337 1462M1489 203L1364 203L1364 1L1219 1L1219 203L817 203L817 304L1225 883L1364 883L1364 320L1489 320L1489 203M1219 320L1219 515Q1219 649 1225 724Q1220 712 1208 692.50Q1196 673 1181 650.50Q1166 628 1151 605.50Q1136 583 1125 566L957 320L1219 320Z"  horiz-adv-x="1597" vert-adv-y="2048"  />

      
      <glyph glyph-name="unibd" unicode="&#xbd;" d="M1230 1462L327 0L184 0L1087 1462L1230 1462M308 1462L451 1462L451 586L318 586L318 1165Q318 1256 324 1346Q302 1324 275 1301.50Q248 1279 113 1184L46 1280L308 1462M1499 1L895 1L895 105L1131 335Q1220 421 1261 469.50Q1302 518 1318.50 556Q1335 594 1335 648Q1335 716 1295 750.50Q1255 785 1192 785Q1140 785 1091 766Q1042 747 973 697L907 785Q1038 896 1190 896Q1322 896 1395.50 831Q1469 766 1469 654Q1469 574 1424.50 498.50Q1380 423 1233 285L1059 120L1499 120L1499 1Z"  horiz-adv-x="1597" vert-adv-y="2048"  />

      
      <glyph glyph-name="unibe" unicode="&#xbe;" d="M620 1255Q620 1175 579 1123.50Q538 1072 470 1049Q646 1002 646 840Q646 712 554 640.50Q462 569 294 569Q142 569 26 625L26 748Q173 680 296 680Q507 680 507 842Q507 987 276 987L159 987L159 1094L278 1094Q381 1094 430.50 1133.50Q480 1173 480 1241Q480 1302 440 1336Q400 1370 333 1370Q267 1370 211 1348.50Q155 1327 99 1292L30 1382Q93 1427 163 1454Q233 1481 327 1481Q463 1481 541.50 1421.50Q620 1362 620 1255M1390 1462L487 0L344 0L1247 1462L1390 1462M1569 203L1444 203L1444 1L1299 1L1299 203L897 203L897 304L1305 883L1444 883L1444 320L1569 320L1569 203M1299 320L1299 515Q1299 649 1305 724Q1300 712 1288 692.50Q1276 673 1261 650.50Q1246 628 1231 605.50Q1216 583 1205 566L1037 320L1299 320Z"  horiz-adv-x="1597" vert-adv-y="2048"  />

      
      <glyph glyph-name="unibf" unicode="&#xbf;" d="M590 684L590 633Q590 511 552.50 437Q515 363 418 279Q297 173 266.50 135.50Q236 98 223.50 59.50Q211 21 211-35Q211-135 277-191.50Q343-248 465-248Q545-248 620-229Q695-210 793-162L852-297Q655-393 457-393Q267-393 159-300Q51-207 51-37Q51 33 68.50 85.50Q86 138 118 182.50Q150 227 194.50 268Q239 309 293 356Q394 444 426.50 502Q459 560 459 653L459 684L590 684M639 983Q639 848 518 848Q459 848 428 882.50Q397 917 397 983Q397 1047 430 1082.50Q463 1118 518 1118Q569 1118 604 1086Q639 1054 639 983Z"  horiz-adv-x="879" vert-adv-y="2048"  />

      
      <glyph glyph-name="unic0" unicode="&#xc0;" d="M1120 0L938 465L352 465L172 0L0 0L578 1468L721 1468L1296 0L1120 0M885 618L715 1071Q682 1157 647 1282Q625 1186 584 1071L412 618L885 618M724 1579L614 1579Q549 1631 460 1727Q371 1823 331 1886L331 1907L534 1907Q566 1838 623 1747.50Q680 1657 724 1604L724 1579Z"  horiz-adv-x="1296" vert-adv-y="2048"  />

      
      <glyph glyph-name="unic1" unicode="&#xc1;" d="M1120 0L938 465L352 465L172 0L0 0L578 1468L721 1468L1296 0L1120 0M885 618L715 1071Q682 1157 647 1282Q625 1186 584 1071L412 618L885 618M526 1604Q574 1666 629.50 1754Q685 1842 717 1907L919 1907L919 1886Q875 1821 788 1726Q701 1631 637 1579L526 1579L526 1604Z"  horiz-adv-x="1296" vert-adv-y="2048"  />

      
      <glyph glyph-name="unic2" unicode="&#xc2;" d="M1120 0L938 465L352 465L172 0L0 0L578 1468L721 1468L1296 0L1120 0M885 618L715 1071Q682 1157 647 1282Q625 1186 584 1071L412 618L885 618M303 1602Q430 1738 481 1802Q532 1866 555 1907L721 1907Q743 1865 797.50 1798.50Q852 1732 977 1602L977 1579L858 1579Q770 1634 637 1765Q501 1631 418 1579L303 1579L303 1602Z"  horiz-adv-x="1296" vert-adv-y="2048"  />

      
      <glyph glyph-name="unic3" unicode="&#xc3;" d="M1120 0L938 465L352 465L172 0L0 0L578 1468L721 1468L1296 0L1120 0M885 618L715 1071Q682 1157 647 1282Q625 1186 584 1071L412 618L885 618M792 1581Q749 1581 708 1599.50Q667 1618 627.50 1640.50Q588 1663 551.50 1681.50Q515 1700 481 1700Q431 1700 405.50 1670Q380 1640 366 1579L268 1579Q281 1700 338.50 1768.50Q396 1837 487 1837Q533 1837 576 1818.50Q619 1800 658 1777.50Q697 1755 733 1736.50Q769 1718 801 1718Q850 1718 874 1747.50Q898 1777 913 1839L1012 1839Q999 1718 942.50 1649.50Q886 1581 792 1581Z"  horiz-adv-x="1296" vert-adv-y="2048"  />

      
      <glyph glyph-name="unic4" unicode="&#xc4;" d="M1120 0L938 465L352 465L172 0L0 0L578 1468L721 1468L1296 0L1120 0M885 618L715 1071Q682 1157 647 1282Q625 1186 584 1071L412 618L885 618M364 1731Q364 1783 390.50 1806Q417 1829 454 1829Q492 1829 519.50 1806Q547 1783 547 1731Q547 1681 519.50 1656.50Q492 1632 454 1632Q417 1632 390.50 1656.50Q364 1681 364 1731M745 1731Q745 1783 771.50 1806Q798 1829 835 1829Q872 1829 899.50 1806Q927 1783 927 1731Q927 1681 899.50 1656.50Q872 1632 835 1632Q798 1632 771.50 1656.50Q745 1681 745 1731Z"  horiz-adv-x="1296" vert-adv-y="2048"  />

      
      <glyph glyph-name="unic5" unicode="&#xc5;" d="M1120 0L938 465L352 465L172 0L0 0L578 1468L721 1468L1296 0L1120 0M885 618L715 1071Q682 1157 647 1282Q625 1186 584 1071L412 618L885 618M870 1587Q870 1489 808.50 1429.50Q747 1370 645 1370Q544 1370 484 1428.50Q424 1487 424 1585Q424 1683 484.50 1740.50Q545 1798 645 1798Q746 1798 808 1738.50Q870 1679 870 1587M762 1585Q762 1641 729 1671.50Q696 1702 645 1702Q594 1702 561 1671.50Q528 1641 528 1585Q528 1529 558 1498.50Q588 1468 645 1468Q697 1468 729.50 1498.50Q762 1529 762 1585Z"  horiz-adv-x="1296" vert-adv-y="2048"  />

      
      <glyph glyph-name="unic6" unicode="&#xc6;" d="M1665 0L915 0L915 465L401 465L174 0L-2 0L696 1462L1665 1462L1665 1311L1085 1311L1085 840L1626 840L1626 690L1085 690L1085 152L1665 152L1665 0M469 618L915 618L915 1311L797 1311L469 618Z"  horiz-adv-x="1788" vert-adv-y="2048"  />

      
      <glyph glyph-name="unic7" unicode="&#xc7;" d="M827 1331Q586 1331 446.50 1170.50Q307 1010 307 731Q307 444 441.50 287.50Q576 131 825 131Q978 131 1174 186L1174 37Q1022-20 799-20Q476-20 300.50 176Q125 372 125 733Q125 959 209.50 1129Q294 1299 453.50 1391Q613 1483 829 1483Q1059 1483 1231 1399L1159 1253Q993 1331 827 1331M950-289Q950-386 873.50-439Q797-492 647-492Q596-492 551-483L551-377Q596-385 655-385Q734-385 774.50-365Q815-345 815-291Q815-248 775.50-221.50Q736-195 627-178L715 0L825 0L770-115Q950-154 950-289Z"  horiz-adv-x="1292" vert-adv-y="2048"  />

      
      <glyph glyph-name="unic8" unicode="&#xc8;" d="M1016 0L201 0L201 1462L1016 1462L1016 1311L371 1311L371 840L977 840L977 690L371 690L371 152L1016 152L1016 0M713 1579L603 1579Q538 1631 449 1727Q360 1823 320 1886L320 1907L523 1907Q555 1838 612 1747.50Q669 1657 713 1604L713 1579Z"  horiz-adv-x="1139" vert-adv-y="2048"  />

      
      <glyph glyph-name="unic9" unicode="&#xc9;" d="M1016 0L201 0L201 1462L1016 1462L1016 1311L371 1311L371 840L977 840L977 690L371 690L371 152L1016 152L1016 0M456 1604Q504 1666 559.50 1754Q615 1842 647 1907L849 1907L849 1886Q805 1821 718 1726Q631 1631 567 1579L456 1579L456 1604Z"  horiz-adv-x="1139" vert-adv-y="2048"  />

      
      <glyph glyph-name="unica" unicode="&#xca;" d="M1016 0L201 0L201 1462L1016 1462L1016 1311L371 1311L371 840L977 840L977 690L371 690L371 152L1016 152L1016 0M263 1602Q390 1738 441 1802Q492 1866 515 1907L681 1907Q703 1865 757.50 1798.50Q812 1732 937 1602L937 1579L818 1579Q730 1634 597 1765Q461 1631 378 1579L263 1579L263 1602Z"  horiz-adv-x="1139" vert-adv-y="2048"  />

      
      <glyph glyph-name="unicb" unicode="&#xcb;" d="M1016 0L201 0L201 1462L1016 1462L1016 1311L371 1311L371 840L977 840L977 690L371 690L371 152L1016 152L1016 0M327 1731Q327 1783 353.50 1806Q380 1829 417 1829Q455 1829 482.50 1806Q510 1783 510 1731Q510 1681 482.50 1656.50Q455 1632 417 1632Q380 1632 353.50 1656.50Q327 1681 327 1731M708 1731Q708 1783 734.50 1806Q761 1829 798 1829Q835 1829 862.50 1806Q890 1783 890 1731Q890 1681 862.50 1656.50Q835 1632 798 1632Q761 1632 734.50 1656.50Q708 1681 708 1731Z"  horiz-adv-x="1139" vert-adv-y="2048"  />

      
      <glyph glyph-name="unicc" unicode="&#xcc;" d="M201 0L201 1462L371 1462L371 0L201 0M398 1579L288 1579Q223 1631 134 1727Q45 1823 5 1886L5 1907L208 1907Q240 1838 297 1747.50Q354 1657 398 1604L398 1579Z"  horiz-adv-x="571" vert-adv-y="2048"  />

      
      <glyph glyph-name="unicd" unicode="&#xcd;" d="M201 0L201 1462L371 1462L371 0L201 0M179 1604Q227 1666 282.50 1754Q338 1842 370 1907L572 1907L572 1886Q528 1821 441 1726Q354 1631 290 1579L179 1579L179 1604Z"  horiz-adv-x="571" vert-adv-y="2048"  />

      
      <glyph glyph-name="unice" unicode="&#xce;" d="M201 0L201 1462L371 1462L371 0L201 0M-57 1602Q70 1738 121 1802Q172 1866 195 1907L361 1907Q383 1865 437.50 1798.50Q492 1732 617 1602L617 1579L498 1579Q410 1634 277 1765Q141 1631 58 1579L-57 1579L-57 1602Z"  horiz-adv-x="571" vert-adv-y="2048"  />

      
      <glyph glyph-name="unicf" unicode="&#xcf;" d="M201 0L201 1462L371 1462L371 0L201 0M5 1731Q5 1783 31.50 1806Q58 1829 95 1829Q133 1829 160.50 1806Q188 1783 188 1731Q188 1681 160.50 1656.50Q133 1632 95 1632Q58 1632 31.50 1656.50Q5 1681 5 1731M386 1731Q386 1783 412.50 1806Q439 1829 476 1829Q513 1829 540.50 1806Q568 1783 568 1731Q568 1681 540.50 1656.50Q513 1632 476 1632Q439 1632 412.50 1656.50Q386 1681 386 1731Z"  horiz-adv-x="571" vert-adv-y="2048"  />

      
      <glyph glyph-name="unid0" unicode="&#xd0;" d="M1352 745Q1352 383 1155.50 191.50Q959 0 590 0L201 0L201 649L47 649L47 799L201 799L201 1462L635 1462Q972 1462 1162 1274.50Q1352 1087 1352 745M1171 739Q1171 1315 602 1315L371 1315L371 799L750 799L750 649L371 649L371 147L561 147Q1171 147 1171 739Z"  horiz-adv-x="1479" vert-adv-y="2048"  />

      
      <glyph glyph-name="unid1" unicode="&#xd1;" d="M1343 0L1149 0L350 1227L342 1227Q358 1011 358 831L358 0L201 0L201 1462L393 1462L1190 240L1198 240Q1196 267 1189 413.50Q1182 560 1184 623L1184 1462L1343 1462L1343 0M935 1581Q892 1581 851 1599.50Q810 1618 770.50 1640.50Q731 1663 694.50 1681.50Q658 1700 624 1700Q574 1700 548.50 1670Q523 1640 509 1579L411 1579Q424 1700 481.50 1768.50Q539 1837 630 1837Q676 1837 719 1818.50Q762 1800 801 1777.50Q840 1755 876 1736.50Q912 1718 944 1718Q993 1718 1017 1747.50Q1041 1777 1056 1839L1155 1839Q1142 1718 1085.50 1649.50Q1029 1581 935 1581Z"  horiz-adv-x="1544" vert-adv-y="2048"  />

      
      <glyph glyph-name="unid2" unicode="&#xd2;" d="M1470 733Q1470 382 1292.50 181Q1115-20 799-20Q476-20 300.50 177.50Q125 375 125 735Q125 1092 301 1288.50Q477 1485 801 1485Q1116 1485 1293 1285Q1470 1085 1470 733M305 733Q305 436 431.50 282.50Q558 129 799 129Q1042 129 1166 282Q1290 435 1290 733Q1290 1028 1166.50 1180.50Q1043 1333 801 1333Q558 1333 431.50 1179.50Q305 1026 305 733M907 1579L797 1579Q732 1631 643 1727Q554 1823 514 1886L514 1907L717 1907Q749 1838 806 1747.50Q863 1657 907 1604L907 1579Z"  horiz-adv-x="1595" vert-adv-y="2048"  />

      
      <glyph glyph-name="unid3" unicode="&#xd3;" d="M1470 733Q1470 382 1292.50 181Q1115-20 799-20Q476-20 300.50 177.50Q125 375 125 735Q125 1092 301 1288.50Q477 1485 801 1485Q1116 1485 1293 1285Q1470 1085 1470 733M305 733Q305 436 431.50 282.50Q558 129 799 129Q1042 129 1166 282Q1290 435 1290 733Q1290 1028 1166.50 1180.50Q1043 1333 801 1333Q558 1333 431.50 1179.50Q305 1026 305 733M659 1604Q707 1666 762.50 1754Q818 1842 850 1907L1052 1907L1052 1886Q1008 1821 921 1726Q834 1631 770 1579L659 1579L659 1604Z"  horiz-adv-x="1595" vert-adv-y="2048"  />

      
      <glyph glyph-name="unid4" unicode="&#xd4;" d="M1470 733Q1470 382 1292.50 181Q1115-20 799-20Q476-20 300.50 177.50Q125 375 125 735Q125 1092 301 1288.50Q477 1485 801 1485Q1116 1485 1293 1285Q1470 1085 1470 733M305 733Q305 436 431.50 282.50Q558 129 799 129Q1042 129 1166 282Q1290 435 1290 733Q1290 1028 1166.50 1180.50Q1043 1333 801 1333Q558 1333 431.50 1179.50Q305 1026 305 733M448 1602Q575 1738 626 1802Q677 1866 700 1907L866 1907Q888 1865 942.50 1798.50Q997 1732 1122 1602L1122 1579L1003 1579Q915 1634 782 1765Q646 1631 563 1579L448 1579L448 1602Z"  horiz-adv-x="1595" vert-adv-y="2048"  />

      
      <glyph glyph-name="unid5" unicode="&#xd5;" d="M1470 733Q1470 382 1292.50 181Q1115-20 799-20Q476-20 300.50 177.50Q125 375 125 735Q125 1092 301 1288.50Q477 1485 801 1485Q1116 1485 1293 1285Q1470 1085 1470 733M305 733Q305 436 431.50 282.50Q558 129 799 129Q1042 129 1166 282Q1290 435 1290 733Q1290 1028 1166.50 1180.50Q1043 1333 801 1333Q558 1333 431.50 1179.50Q305 1026 305 733M942 1581Q899 1581 858 1599.50Q817 1618 777.50 1640.50Q738 1663 701.50 1681.50Q665 1700 631 1700Q581 1700 555.50 1670Q530 1640 516 1579L418 1579Q431 1700 488.50 1768.50Q546 1837 637 1837Q683 1837 726 1818.50Q769 1800 808 1777.50Q847 1755 883 1736.50Q919 1718 951 1718Q1000 1718 1024 1747.50Q1048 1777 1063 1839L1162 1839Q1149 1718 1092.50 1649.50Q1036 1581 942 1581Z"  horiz-adv-x="1595" vert-adv-y="2048"  />

      
      <glyph glyph-name="unid6" unicode="&#xd6;" d="M1470 733Q1470 382 1292.50 181Q1115-20 799-20Q476-20 300.50 177.50Q125 375 125 735Q125 1092 301 1288.50Q477 1485 801 1485Q1116 1485 1293 1285Q1470 1085 1470 733M305 733Q305 436 431.50 282.50Q558 129 799 129Q1042 129 1166 282Q1290 435 1290 733Q1290 1028 1166.50 1180.50Q1043 1333 801 1333Q558 1333 431.50 1179.50Q305 1026 305 733M522 1731Q522 1783 548.50 1806Q575 1829 612 1829Q650 1829 677.50 1806Q705 1783 705 1731Q705 1681 677.50 1656.50Q650 1632 612 1632Q575 1632 548.50 1656.50Q522 1681 522 1731M903 1731Q903 1783 929.50 1806Q956 1829 993 1829Q1030 1829 1057.50 1806Q1085 1783 1085 1731Q1085 1681 1057.50 1656.50Q1030 1632 993 1632Q956 1632 929.50 1656.50Q903 1681 903 1731Z"  horiz-adv-x="1595" vert-adv-y="2048"  />

      
      <glyph glyph-name="unid7" unicode="&#xd7;" d="M940 1176L1036 1077L684 723L1034 371L938 272L584 623L236 272L135 371L485 723L133 1075L233 1176L586 821L940 1176Z"  horiz-adv-x="1171" vert-adv-y="2048"  />

      
      <glyph glyph-name="unid8" unicode="&#xd8;" d="M1470 733Q1470 382 1292.50 181Q1115-20 799-20Q564-20 416 80L315-61L195 18L303 172Q125 370 125 735Q125 1092 301 1288.50Q477 1485 801 1485Q1010 1485 1167 1391L1264 1526L1384 1446L1278 1298Q1470 1096 1470 733M1290 733Q1290 1005 1180 1159L508 211Q623 129 799 129Q1042 129 1166 282Q1290 435 1290 733M305 733Q305 471 406 317L1075 1260Q969 1333 801 1333Q558 1333 431.50 1179.50Q305 1026 305 733Z"  horiz-adv-x="1595" vert-adv-y="2048"  />

      
      <glyph glyph-name="unid9" unicode="&#xd9;" d="M1305 1462L1305 516Q1305 266 1154 123Q1003-20 739-20Q475-20 330.50 124Q186 268 186 520L186 1462L356 1462L356 508Q356 325 456 227Q556 129 750 129Q935 129 1035 227.50Q1135 326 1135 510L1135 1462L1305 1462M856 1579L746 1579Q681 1631 592 1727Q503 1823 463 1886L463 1907L666 1907Q698 1838 755 1747.50Q812 1657 856 1604L856 1579Z"  horiz-adv-x="1491" vert-adv-y="2048"  />

      
      <glyph glyph-name="unida" unicode="&#xda;" d="M1305 1462L1305 516Q1305 266 1154 123Q1003-20 739-20Q475-20 330.50 124Q186 268 186 520L186 1462L356 1462L356 508Q356 325 456 227Q556 129 750 129Q935 129 1035 227.50Q1135 326 1135 510L1135 1462L1305 1462M600 1604Q648 1666 703.50 1754Q759 1842 791 1907L993 1907L993 1886Q949 1821 862 1726Q775 1631 711 1579L600 1579L600 1604Z"  horiz-adv-x="1491" vert-adv-y="2048"  />

      
      <glyph glyph-name="unidb" unicode="&#xdb;" d="M1305 1462L1305 516Q1305 266 1154 123Q1003-20 739-20Q475-20 330.50 124Q186 268 186 520L186 1462L356 1462L356 508Q356 325 456 227Q556 129 750 129Q935 129 1035 227.50Q1135 326 1135 510L1135 1462L1305 1462M393 1602Q520 1738 571 1802Q622 1866 645 1907L811 1907Q833 1865 887.50 1798.50Q942 1732 1067 1602L1067 1579L948 1579Q860 1634 727 1765Q591 1631 508 1579L393 1579L393 1602Z"  horiz-adv-x="1491" vert-adv-y="2048"  />

      
      <glyph glyph-name="unidc" unicode="&#xdc;" d="M1305 1462L1305 516Q1305 266 1154 123Q1003-20 739-20Q475-20 330.50 124Q186 268 186 520L186 1462L356 1462L356 508Q356 325 456 227Q556 129 750 129Q935 129 1035 227.50Q1135 326 1135 510L1135 1462L1305 1462M461 1731Q461 1783 487.50 1806Q514 1829 551 1829Q589 1829 616.50 1806Q644 1783 644 1731Q644 1681 616.50 1656.50Q589 1632 551 1632Q514 1632 487.50 1656.50Q461 1681 461 1731M842 1731Q842 1783 868.50 1806Q895 1829 932 1829Q969 1829 996.50 1806Q1024 1783 1024 1731Q1024 1681 996.50 1656.50Q969 1632 932 1632Q895 1632 868.50 1656.50Q842 1681 842 1731Z"  horiz-adv-x="1491" vert-adv-y="2048"  />

      
      <glyph glyph-name="unidd" unicode="&#xdd;" d="M573 731L963 1462L1147 1462L659 567L659 0L487 0L487 559L0 1462L186 1462L573 731M442 1604Q490 1666 545.50 1754Q601 1842 633 1907L835 1907L835 1886Q791 1821 704 1726Q617 1631 553 1579L442 1579L442 1604Z"  horiz-adv-x="1147" vert-adv-y="2048"  />

      
      <glyph glyph-name="unide" unicode="&#xde;" d="M1145 784Q1145 557 993.50 438Q842 319 555 319L371 319L371 0L201 0L201 1462L371 1462L371 1206L586 1206Q867 1206 1006 1102.50Q1145 999 1145 784M371 465L539 465Q765 465 866 536.50Q967 608 967 772Q967 921 872 990Q777 1059 575 1059L371 1059L371 465Z"  horiz-adv-x="1251" vert-adv-y="2048"  />

      
      <glyph glyph-name="unidf" unicode="&#xdf;" d="M1049 1266Q1049 1131 906 1016Q818 946 790 912.50Q762 879 762 846Q762 814 775.50 793Q789 772 824.50 743.50Q860 715 938 664Q1078 569 1129 490.50Q1180 412 1180 311Q1180 151 1083 65.50Q986-20 807-20Q619-20 512 49L512 203Q575 164 653 140.50Q731 117 803 117Q1018 117 1018 299Q1018 374 976.50 427.50Q935 481 825 551Q698 633 650 694.50Q602 756 602 840Q602 903 636.50 956Q671 1009 742 1062Q817 1119 849 1164Q881 1209 881 1262Q881 1342 813 1384.50Q745 1427 618 1427Q342 1427 342 1204L342 0L176 0L176 1202Q176 1380 286 1473.50Q396 1567 618 1567Q824 1567 936.50 1488.50Q1049 1410 1049 1266Z"  horiz-adv-x="1274" vert-adv-y="2048"  />

      
      <glyph glyph-name="unie0" unicode="&#xe0;" d="M850 0L817 156L809 156Q727 53 645.50 16.50Q564-20 442-20Q279-20 186.50 64Q94 148 94 303Q94 635 625 651L811 657L811 725Q811 854 755.50 915.50Q700 977 578 977Q441 977 268 893L217 1020Q298 1064 394.50 1089Q491 1114 588 1114Q784 1114 878.50 1027Q973 940 973 748L973 0L850 0M475 117Q630 117 718.50 202Q807 287 807 440L807 539L641 532Q443 525 355.50 470.50Q268 416 268 301Q268 211 322.50 164Q377 117 475 117M672 1241L562 1241Q497 1293 408 1389Q319 1485 279 1548L279 1569L482 1569Q514 1500 571 1409.50Q628 1319 672 1266L672 1241Z"  horiz-adv-x="1139" vert-adv-y="2048"  />

      
      <glyph glyph-name="unie1" unicode="&#xe1;" d="M850 0L817 156L809 156Q727 53 645.50 16.50Q564-20 442-20Q279-20 186.50 64Q94 148 94 303Q94 635 625 651L811 657L811 725Q811 854 755.50 915.50Q700 977 578 977Q441 977 268 893L217 1020Q298 1064 394.50 1089Q491 1114 588 1114Q784 1114 878.50 1027Q973 940 973 748L973 0L850 0M475 117Q630 117 718.50 202Q807 287 807 440L807 539L641 532Q443 525 355.50 470.50Q268 416 268 301Q268 211 322.50 164Q377 117 475 117M436 1266Q484 1328 539.50 1416Q595 1504 627 1569L829 1569L829 1548Q785 1483 698 1388Q611 1293 547 1241L436 1241L436 1266Z"  horiz-adv-x="1139" vert-adv-y="2048"  />

      
      <glyph glyph-name="unie2" unicode="&#xe2;" d="M850 0L817 156L809 156Q727 53 645.50 16.50Q564-20 442-20Q279-20 186.50 64Q94 148 94 303Q94 635 625 651L811 657L811 725Q811 854 755.50 915.50Q700 977 578 977Q441 977 268 893L217 1020Q298 1064 394.50 1089Q491 1114 588 1114Q784 1114 878.50 1027Q973 940 973 748L973 0L850 0M475 117Q630 117 718.50 202Q807 287 807 440L807 539L641 532Q443 525 355.50 470.50Q268 416 268 301Q268 211 322.50 164Q377 117 475 117M228 1264Q355 1400 406 1464Q457 1528 480 1569L646 1569Q668 1527 722.50 1460.50Q777 1394 902 1264L902 1241L783 1241Q695 1296 562 1427Q426 1293 343 1241L228 1241L228 1264Z"  horiz-adv-x="1139" vert-adv-y="2048"  />

      
      <glyph glyph-name="unie3" unicode="&#xe3;" d="M850 0L817 156L809 156Q727 53 645.50 16.50Q564-20 442-20Q279-20 186.50 64Q94 148 94 303Q94 635 625 651L811 657L811 725Q811 854 755.50 915.50Q700 977 578 977Q441 977 268 893L217 1020Q298 1064 394.50 1089Q491 1114 588 1114Q784 1114 878.50 1027Q973 940 973 748L973 0L850 0M475 117Q630 117 718.50 202Q807 287 807 440L807 539L641 532Q443 525 355.50 470.50Q268 416 268 301Q268 211 322.50 164Q377 117 475 117M721 1243Q678 1243 637 1261.50Q596 1280 556.50 1302.50Q517 1325 480.50 1343.50Q444 1362 410 1362Q360 1362 334.50 1332Q309 1302 295 1241L197 1241Q210 1362 267.50 1430.50Q325 1499 416 1499Q462 1499 505 1480.50Q548 1462 587 1439.50Q626 1417 662 1398.50Q698 1380 730 1380Q779 1380 803 1409.50Q827 1439 842 1501L941 1501Q928 1380 871.50 1311.50Q815 1243 721 1243Z"  horiz-adv-x="1139" vert-adv-y="2048"  />

      
      <glyph glyph-name="unie4" unicode="&#xe4;" d="M850 0L817 156L809 156Q727 53 645.50 16.50Q564-20 442-20Q279-20 186.50 64Q94 148 94 303Q94 635 625 651L811 657L811 725Q811 854 755.50 915.50Q700 977 578 977Q441 977 268 893L217 1020Q298 1064 394.50 1089Q491 1114 588 1114Q784 1114 878.50 1027Q973 940 973 748L973 0L850 0M475 117Q630 117 718.50 202Q807 287 807 440L807 539L641 532Q443 525 355.50 470.50Q268 416 268 301Q268 211 322.50 164Q377 117 475 117M279 1393Q279 1445 305.50 1468Q332 1491 369 1491Q407 1491 434.50 1468Q462 1445 462 1393Q462 1343 434.50 1318.50Q407 1294 369 1294Q332 1294 305.50 1318.50Q279 1343 279 1393M660 1393Q660 1445 686.50 1468Q713 1491 750 1491Q787 1491 814.50 1468Q842 1445 842 1393Q842 1343 814.50 1318.50Q787 1294 750 1294Q713 1294 686.50 1318.50Q660 1343 660 1393Z"  horiz-adv-x="1139" vert-adv-y="2048"  />

      
      <glyph glyph-name="unie5" unicode="&#xe5;" d="M850 0L817 156L809 156Q727 53 645.50 16.50Q564-20 442-20Q279-20 186.50 64Q94 148 94 303Q94 635 625 651L811 657L811 725Q811 854 755.50 915.50Q700 977 578 977Q441 977 268 893L217 1020Q298 1064 394.50 1089Q491 1114 588 1114Q784 1114 878.50 1027Q973 940 973 748L973 0L850 0M475 117Q630 117 718.50 202Q807 287 807 440L807 539L641 532Q443 525 355.50 470.50Q268 416 268 301Q268 211 322.50 164Q377 117 475 117M804 1458Q804 1360 742.50 1300.50Q681 1241 579 1241Q478 1241 418 1299.50Q358 1358 358 1456Q358 1554 418.50 1611.50Q479 1669 579 1669Q680 1669 742 1609.50Q804 1550 804 1458M696 1456Q696 1512 663 1542.50Q630 1573 579 1573Q528 1573 495 1542.50Q462 1512 462 1456Q462 1400 492 1369.50Q522 1339 579 1339Q631 1339 663.50 1369.50Q696 1400 696 1456Z"  horiz-adv-x="1139" vert-adv-y="2048"  />

      
      <glyph glyph-name="unie6" unicode="&#xe6;" d="M94 303Q94 464 218 553.50Q342 643 596 651L780 657L780 725Q780 854 722 915.50Q664 977 545 977Q401 977 238 893L186 1020Q260 1061 359.50 1087.50Q459 1114 557 1114Q687 1114 769.50 1070.50Q852 1027 893 932Q946 1020 1031.50 1068Q1117 1116 1227 1116Q1419 1116 1535 982.50Q1651 849 1651 627L1651 520L950 520Q958 125 1272 125Q1363 125 1441.50 142.50Q1520 160 1604 199L1604 51Q1518 13 1443.50-3.50Q1369-20 1268-20Q979-20 854 213Q773 86 674.50 33Q576-20 442-20Q279-20 186.50 65Q94 150 94 303M268 301Q268 206 321.50 161.50Q375 117 463 117Q608 117 692 201.50Q776 286 776 440L776 539L618 532Q432 524 350 469.50Q268 415 268 301M1225 977Q1104 977 1034.50 894Q965 811 954 653L1473 653Q1473 809 1409 893Q1345 977 1225 977Z"  horiz-adv-x="1757" vert-adv-y="2048"  />

      
      <glyph glyph-name="unie7" unicode="&#xe7;" d="M614-20Q376-20 245.50 126.50Q115 273 115 541Q115 816 247.50 966Q380 1116 625 1116Q704 1116 783 1099Q862 1082 907 1059L856 918Q801 940 736 954.50Q671 969 621 969Q287 969 287 543Q287 341 368.50 233Q450 125 610 125Q747 125 891 184L891 37Q781-20 614-20M762-289Q762-386 685.50-439Q609-492 459-492Q408-492 363-483L363-377Q408-385 467-385Q546-385 586.50-365Q627-345 627-291Q627-248 587.50-221.50Q548-195 439-178L527 0L637 0L582-115Q762-154 762-289Z"  horiz-adv-x="975" vert-adv-y="2048"  />

      
      <glyph glyph-name="unie8" unicode="&#xe8;" d="M639-20Q396-20 255.50 128Q115 276 115 539Q115 804 245.50 960Q376 1116 596 1116Q802 1116 922 980.50Q1042 845 1042 623L1042 518L287 518Q292 325 384.50 225Q477 125 645 125Q822 125 995 199L995 51Q907 13 828.50-3.50Q750-20 639-20M594 977Q462 977 383.50 891Q305 805 291 653L864 653Q864 810 794 893.50Q724 977 594 977M711 1241L601 1241Q536 1293 447 1389Q358 1485 318 1548L318 1569L521 1569Q553 1500 610 1409.50Q667 1319 711 1266L711 1241Z"  horiz-adv-x="1149" vert-adv-y="2048"  />

      
      <glyph glyph-name="unie9" unicode="&#xe9;" d="M639-20Q396-20 255.50 128Q115 276 115 539Q115 804 245.50 960Q376 1116 596 1116Q802 1116 922 980.50Q1042 845 1042 623L1042 518L287 518Q292 325 384.50 225Q477 125 645 125Q822 125 995 199L995 51Q907 13 828.50-3.50Q750-20 639-20M594 977Q462 977 383.50 891Q305 805 291 653L864 653Q864 810 794 893.50Q724 977 594 977M471 1266Q519 1328 574.50 1416Q630 1504 662 1569L864 1569L864 1548Q820 1483 733 1388Q646 1293 582 1241L471 1241L471 1266Z"  horiz-adv-x="1149" vert-adv-y="2048"  />

      
      <glyph glyph-name="uniea" unicode="&#xea;" d="M639-20Q396-20 255.50 128Q115 276 115 539Q115 804 245.50 960Q376 1116 596 1116Q802 1116 922 980.50Q1042 845 1042 623L1042 518L287 518Q292 325 384.50 225Q477 125 645 125Q822 125 995 199L995 51Q907 13 828.50-3.50Q750-20 639-20M594 977Q462 977 383.50 891Q305 805 291 653L864 653Q864 810 794 893.50Q724 977 594 977M259 1264Q386 1400 437 1464Q488 1528 511 1569L677 1569Q699 1527 753.50 1460.50Q808 1394 933 1264L933 1241L814 1241Q726 1296 593 1427Q457 1293 374 1241L259 1241L259 1264Z"  horiz-adv-x="1149" vert-adv-y="2048"  />

      
      <glyph glyph-name="unieb" unicode="&#xeb;" d="M639-20Q396-20 255.50 128Q115 276 115 539Q115 804 245.50 960Q376 1116 596 1116Q802 1116 922 980.50Q1042 845 1042 623L1042 518L287 518Q292 325 384.50 225Q477 125 645 125Q822 125 995 199L995 51Q907 13 828.50-3.50Q750-20 639-20M594 977Q462 977 383.50 891Q305 805 291 653L864 653Q864 810 794 893.50Q724 977 594 977M319 1393Q319 1445 345.50 1468Q372 1491 409 1491Q447 1491 474.50 1468Q502 1445 502 1393Q502 1343 474.50 1318.50Q447 1294 409 1294Q372 1294 345.50 1318.50Q319 1343 319 1393M700 1393Q700 1445 726.50 1468Q753 1491 790 1491Q827 1491 854.50 1468Q882 1445 882 1393Q882 1343 854.50 1318.50Q827 1294 790 1294Q753 1294 726.50 1318.50Q700 1343 700 1393Z"  horiz-adv-x="1149" vert-adv-y="2048"  />

      
      <glyph glyph-name="uniec" unicode="&#xec;" d="M342 0L176 0L176 1096L342 1096L342 0M355 1241L245 1241Q180 1293 91 1389Q2 1485-38 1548L-38 1569L165 1569Q197 1500 254 1409.50Q311 1319 355 1266L355 1241Z"  horiz-adv-x="518" vert-adv-y="2048"  />

      
      <glyph glyph-name="unied" unicode="&#xed;" d="M342 0L176 0L176 1096L342 1096L342 0M169 1266Q217 1328 272.50 1416Q328 1504 360 1569L562 1569L562 1548Q518 1483 431 1388Q344 1293 280 1241L169 1241L169 1266Z"  horiz-adv-x="518" vert-adv-y="2048"  />

      
      <glyph glyph-name="uniee" unicode="&#xee;" d="M342 0L176 0L176 1096L342 1096L342 0M-77 1264Q50 1400 101 1464Q152 1528 175 1569L341 1569Q363 1527 417.50 1460.50Q472 1394 597 1264L597 1241L478 1241Q390 1296 257 1427Q121 1293 38 1241L-77 1241L-77 1264Z"  horiz-adv-x="518" vert-adv-y="2048"  />

      
      <glyph glyph-name="unief" unicode="&#xef;" d="M342 0L176 0L176 1096L342 1096L342 0M-20 1393Q-20 1445 6.50 1468Q33 1491 70 1491Q108 1491 135.50 1468Q163 1445 163 1393Q163 1343 135.50 1318.50Q108 1294 70 1294Q33 1294 6.50 1318.50Q-20 1343-20 1393M361 1393Q361 1445 387.50 1468Q414 1491 451 1491Q488 1491 515.50 1468Q543 1445 543 1393Q543 1343 515.50 1318.50Q488 1294 451 1294Q414 1294 387.50 1318.50Q361 1343 361 1393Z"  horiz-adv-x="518" vert-adv-y="2048"  />

      
      <glyph glyph-name="unif0" unicode="&#xf0;" d="M1122 563Q1122 282 991.50 131Q861-20 614-20Q392-20 252.50 114.50Q113 249 113 475Q113 705 244.50 836Q376 967 596 967Q822 967 922 846L930 850Q873 1064 668 1255L397 1100L324 1208L557 1341Q465 1403 371 1452L440 1569Q596 1496 698 1421L936 1559L1012 1452L805 1333Q957 1190 1039.50 991Q1122 792 1122 563M954 512Q954 659 864 744Q774 829 618 829Q281 829 281 469Q281 302 368.50 210.50Q456 119 618 119Q793 119 873.50 219.50Q954 320 954 512Z"  horiz-adv-x="1221" vert-adv-y="2048"  />

      
      <glyph glyph-name="unif1" unicode="&#xf1;" d="M926 0L926 709Q926 843 865 909Q804 975 674 975Q502 975 422 882Q342 789 342 575L342 0L176 0L176 1096L311 1096L338 946L346 946Q397 1027 489 1071.50Q581 1116 694 1116Q892 1116 992 1020.50Q1092 925 1092 715L1092 0L926 0M802 1243Q759 1243 718 1261.50Q677 1280 637.50 1302.50Q598 1325 561.50 1343.50Q525 1362 491 1362Q441 1362 415.50 1332Q390 1302 376 1241L278 1241Q291 1362 348.50 1430.50Q406 1499 497 1499Q543 1499 586 1480.50Q629 1462 668 1439.50Q707 1417 743 1398.50Q779 1380 811 1380Q860 1380 884 1409.50Q908 1439 923 1501L1022 1501Q1009 1380 952.50 1311.50Q896 1243 802 1243Z"  horiz-adv-x="1257" vert-adv-y="2048"  />

      
      <glyph glyph-name="unif2" unicode="&#xf2;" d="M1122 549Q1122 281 987 130.50Q852-20 614-20Q467-20 353 49Q239 118 177 247Q115 376 115 549Q115 817 249 966.50Q383 1116 621 1116Q851 1116 986.50 963Q1122 810 1122 549M287 549Q287 339 371 229Q455 119 618 119Q781 119 865.50 228.50Q950 338 950 549Q950 758 865.50 866.50Q781 975 616 975Q453 975 370 868Q287 761 287 549M742 1241L632 1241Q567 1293 478 1389Q389 1485 349 1548L349 1569L552 1569Q584 1500 641 1409.50Q698 1319 742 1266L742 1241Z"  horiz-adv-x="1237" vert-adv-y="2048"  />

      
      <glyph glyph-name="unif3" unicode="&#xf3;" d="M1122 549Q1122 281 987 130.50Q852-20 614-20Q467-20 353 49Q239 118 177 247Q115 376 115 549Q115 817 249 966.50Q383 1116 621 1116Q851 1116 986.50 963Q1122 810 1122 549M287 549Q287 339 371 229Q455 119 618 119Q781 119 865.50 228.50Q950 338 950 549Q950 758 865.50 866.50Q781 975 616 975Q453 975 370 868Q287 761 287 549M479 1266Q527 1328 582.50 1416Q638 1504 670 1569L872 1569L872 1548Q828 1483 741 1388Q654 1293 590 1241L479 1241L479 1266Z"  horiz-adv-x="1237" vert-adv-y="2048"  />

      
      <glyph glyph-name="unif4" unicode="&#xf4;" d="M1122 549Q1122 281 987 130.50Q852-20 614-20Q467-20 353 49Q239 118 177 247Q115 376 115 549Q115 817 249 966.50Q383 1116 621 1116Q851 1116 986.50 963Q1122 810 1122 549M287 549Q287 339 371 229Q455 119 618 119Q781 119 865.50 228.50Q950 338 950 549Q950 758 865.50 866.50Q781 975 616 975Q453 975 370 868Q287 761 287 549M282 1264Q409 1400 460 1464Q511 1528 534 1569L700 1569Q722 1527 776.50 1460.50Q831 1394 956 1264L956 1241L837 1241Q749 1296 616 1427Q480 1293 397 1241L282 1241L282 1264Z"  horiz-adv-x="1237" vert-adv-y="2048"  />

      
      <glyph glyph-name="unif5" unicode="&#xf5;" d="M1122 549Q1122 281 987 130.50Q852-20 614-20Q467-20 353 49Q239 118 177 247Q115 376 115 549Q115 817 249 966.50Q383 1116 621 1116Q851 1116 986.50 963Q1122 810 1122 549M287 549Q287 339 371 229Q455 119 618 119Q781 119 865.50 228.50Q950 338 950 549Q950 758 865.50 866.50Q781 975 616 975Q453 975 370 868Q287 761 287 549M773 1243Q730 1243 689 1261.50Q648 1280 608.50 1302.50Q569 1325 532.50 1343.50Q496 1362 462 1362Q412 1362 386.50 1332Q361 1302 347 1241L249 1241Q262 1362 319.50 1430.50Q377 1499 468 1499Q514 1499 557 1480.50Q600 1462 639 1439.50Q678 1417 714 1398.50Q750 1380 782 1380Q831 1380 855 1409.50Q879 1439 894 1501L993 1501Q980 1380 923.50 1311.50Q867 1243 773 1243Z"  horiz-adv-x="1237" vert-adv-y="2048"  />

      
      <glyph glyph-name="unif6" unicode="&#xf6;" d="M1122 549Q1122 281 987 130.50Q852-20 614-20Q467-20 353 49Q239 118 177 247Q115 376 115 549Q115 817 249 966.50Q383 1116 621 1116Q851 1116 986.50 963Q1122 810 1122 549M287 549Q287 339 371 229Q455 119 618 119Q781 119 865.50 228.50Q950 338 950 549Q950 758 865.50 866.50Q781 975 616 975Q453 975 370 868Q287 761 287 549M336 1393Q336 1445 362.50 1468Q389 1491 426 1491Q464 1491 491.50 1468Q519 1445 519 1393Q519 1343 491.50 1318.50Q464 1294 426 1294Q389 1294 362.50 1318.50Q336 1343 336 1393M717 1393Q717 1445 743.50 1468Q770 1491 807 1491Q844 1491 871.50 1468Q899 1445 899 1393Q899 1343 871.50 1318.50Q844 1294 807 1294Q770 1294 743.50 1318.50Q717 1343 717 1393Z"  horiz-adv-x="1237" vert-adv-y="2048"  />

      
      <glyph glyph-name="unif7" unicode="&#xf7;" d="M104 653L104 791L1065 791L1065 653L104 653M471 373Q471 433 500.50 463.50Q530 494 584 494Q636 494 665 462.50Q694 431 694 373Q694 316 664.50 284Q635 252 584 252Q532 252 501.50 283.50Q471 315 471 373M471 1071Q471 1131 500.50 1161.50Q530 1192 584 1192Q636 1192 665 1160.50Q694 1129 694 1071Q694 1014 664.50 982Q635 950 584 950Q532 950 501.50 981.50Q471 1013 471 1071Z"  horiz-adv-x="1171" vert-adv-y="2048"  />

      
      <glyph glyph-name="unif8" unicode="&#xf8;" d="M1122 549Q1122 281 987 130.50Q852-20 614-20Q460-20 348 49L264-68L150 10L244 141Q115 293 115 549Q115 817 249 966.50Q383 1116 621 1116Q775 1116 891 1040L975 1159L1092 1083L995 950Q1122 798 1122 549M287 549Q287 378 340 276L805 922Q730 975 616 975Q453 975 370 868Q287 761 287 549M950 549Q950 713 899 813L434 170Q505 119 618 119Q781 119 865.50 228.50Q950 338 950 549Z"  horiz-adv-x="1237" vert-adv-y="2048"  />

      
      <glyph glyph-name="unif9" unicode="&#xf9;" d="M332 1096L332 385Q332 251 393 185Q454 119 584 119Q756 119 835.50 213Q915 307 915 520L915 1096L1081 1096L1081 0L944 0L920 147L911 147Q860 66 769.50 23Q679-20 563-20Q363-20 263.50 75Q164 170 164 379L164 1096L332 1096M726 1241L616 1241Q551 1293 462 1389Q373 1485 333 1548L333 1569L536 1569Q568 1500 625 1409.50Q682 1319 726 1266L726 1241Z"  horiz-adv-x="1257" vert-adv-y="2048"  />

      
      <glyph glyph-name="unifa" unicode="&#xfa;" d="M332 1096L332 385Q332 251 393 185Q454 119 584 119Q756 119 835.50 213Q915 307 915 520L915 1096L1081 1096L1081 0L944 0L920 147L911 147Q860 66 769.50 23Q679-20 563-20Q363-20 263.50 75Q164 170 164 379L164 1096L332 1096M506 1266Q554 1328 609.50 1416Q665 1504 697 1569L899 1569L899 1548Q855 1483 768 1388Q681 1293 617 1241L506 1241L506 1266Z"  horiz-adv-x="1257" vert-adv-y="2048"  />

      
      <glyph glyph-name="unifb" unicode="&#xfb;" d="M332 1096L332 385Q332 251 393 185Q454 119 584 119Q756 119 835.50 213Q915 307 915 520L915 1096L1081 1096L1081 0L944 0L920 147L911 147Q860 66 769.50 23Q679-20 563-20Q363-20 263.50 75Q164 170 164 379L164 1096L332 1096M286 1264Q413 1400 464 1464Q515 1528 538 1569L704 1569Q726 1527 780.50 1460.50Q835 1394 960 1264L960 1241L841 1241Q753 1296 620 1427Q484 1293 401 1241L286 1241L286 1264Z"  horiz-adv-x="1257" vert-adv-y="2048"  />

      
      <glyph glyph-name="unifc" unicode="&#xfc;" d="M332 1096L332 385Q332 251 393 185Q454 119 584 119Q756 119 835.50 213Q915 307 915 520L915 1096L1081 1096L1081 0L944 0L920 147L911 147Q860 66 769.50 23Q679-20 563-20Q363-20 263.50 75Q164 170 164 379L164 1096L332 1096M342 1393Q342 1445 368.50 1468Q395 1491 432 1491Q470 1491 497.50 1468Q525 1445 525 1393Q525 1343 497.50 1318.50Q470 1294 432 1294Q395 1294 368.50 1318.50Q342 1343 342 1393M723 1393Q723 1445 749.50 1468Q776 1491 813 1491Q850 1491 877.50 1468Q905 1445 905 1393Q905 1343 877.50 1318.50Q850 1294 813 1294Q776 1294 749.50 1318.50Q723 1343 723 1393Z"  horiz-adv-x="1257" vert-adv-y="2048"  />

      
      <glyph glyph-name="unifd" unicode="&#xfd;" d="M2 1096L180 1096L420 471Q499 257 518 162L526 162Q539 213 580.50 336.50Q622 460 852 1096L1030 1096L559-152Q489-337 395.50-414.50Q302-492 166-492Q90-492 16-475L16-342Q71-354 139-354Q310-354 383-162L444-6L2 1096M411 1266Q459 1328 514.50 1416Q570 1504 602 1569L804 1569L804 1548Q760 1483 673 1388Q586 1293 522 1241L411 1241L411 1266Z"  horiz-adv-x="1032" vert-adv-y="2048"  />

      
      <glyph glyph-name="unife" unicode="&#xfe;" d="M344 948Q410 1037 495 1076.50Q580 1116 686 1116Q901 1116 1021 966Q1141 816 1141 549Q1141 281 1020.50 130.50Q900-20 686-20Q464-20 342 141L330 141L334 107Q342 30 342-33L342-492L176-492L176 1556L342 1556L342 1090Q342 1038 336 948L344 948M664 975Q496 975 420 883Q344 791 342 590L342 549Q342 318 419 218.50Q496 119 666 119Q969 119 969 551Q969 766 895 870.50Q821 975 664 975Z"  horiz-adv-x="1255" vert-adv-y="2048"  />

      
      <glyph glyph-name="uniff" unicode="&#xff;" d="M2 1096L180 1096L420 471Q499 257 518 162L526 162Q539 213 580.50 336.50Q622 460 852 1096L1030 1096L559-152Q489-337 395.50-414.50Q302-492 166-492Q90-492 16-475L16-342Q71-354 139-354Q310-354 383-162L444-6L2 1096M234 1393Q234 1445 260.50 1468Q287 1491 324 1491Q362 1491 389.50 1468Q417 1445 417 1393Q417 1343 389.50 1318.50Q362 1294 324 1294Q287 1294 260.50 1318.50Q234 1343 234 1393M615 1393Q615 1445 641.50 1468Q668 1491 705 1491Q742 1491 769.50 1468Q797 1445 797 1393Q797 1343 769.50 1318.50Q742 1294 705 1294Q668 1294 641.50 1318.50Q615 1343 615 1393Z"  horiz-adv-x="1032" vert-adv-y="2048"  />

      
      <glyph glyph-name="uni0131" unicode="&#x0131;" d="M342 0L176 0L176 1096L342 1096L342 0Z"  horiz-adv-x="518" vert-adv-y="2048"  />

      
      <glyph glyph-name="uni0152" unicode="&#x0152;" d="M1767 0L999 0Q897-20 805-20Q478-20 301.50 176.50Q125 373 125 735Q125 1095 299 1290Q473 1485 793 1485Q895 1485 985 1462L1767 1462L1767 1311L1178 1311L1178 840L1729 840L1729 690L1178 690L1178 152L1767 152L1767 0M811 1333Q562 1333 433.50 1180.50Q305 1028 305 733Q305 436 433.50 282.50Q562 129 809 129Q921 129 1008 162L1008 1303Q921 1333 811 1333Z"  horiz-adv-x="1890" vert-adv-y="2048"  />

      
      <glyph glyph-name="uni0153" unicode="&#x0153;" d="M1430-20Q1137-20 1012 215Q950 99 845.50 39.50Q741-20 604-20Q381-20 247 132.50Q113 285 113 549Q113 814 244 964Q375 1114 610 1114Q741 1114 843.50 1054.50Q946 995 1008 881Q1066 993 1162 1053.50Q1258 1114 1384 1114Q1585 1114 1704 981.50Q1823 849 1823 623L1823 518L1094 518Q1102 125 1432 125Q1526 125 1606.50 142.50Q1687 160 1774 199L1774 51Q1686 12 1610-4Q1534-20 1430-20M287 549Q287 338 363 228.50Q439 119 606 119Q769 119 845.50 225.50Q922 332 922 541Q922 762 844.50 868.50Q767 975 602 975Q436 975 361.50 867Q287 759 287 549M1382 975Q1255 975 1182.50 893Q1110 811 1098 653L1642 653Q1642 811 1576 893Q1510 975 1382 975Z"  horiz-adv-x="1929" vert-adv-y="2048"  />

      
      <glyph glyph-name="uni02C6" unicode="&#x02C6;" d="M268 1264Q395 1400 446 1464Q497 1528 520 1569L686 1569Q708 1527 762.50 1460.50Q817 1394 942 1264L942 1241L823 1241Q735 1296 602 1427Q466 1293 383 1241L268 1241L268 1264Z"  horiz-adv-x="1212" vert-adv-y="2048"  />

      
      <glyph glyph-name="uni02DA" unicode="&#x02DA;" d="M813 1458Q813 1360 751.50 1300.50Q690 1241 588 1241Q487 1241 427 1299.50Q367 1358 367 1456Q367 1554 427.50 1611.50Q488 1669 588 1669Q689 1669 751 1609.50Q813 1550 813 1458M705 1456Q705 1512 672 1542.50Q639 1573 588 1573Q537 1573 504 1542.50Q471 1512 471 1456Q471 1400 501 1369.50Q531 1339 588 1339Q640 1339 672.50 1369.50Q705 1400 705 1456Z"  horiz-adv-x="1182" vert-adv-y="2048"  />

      
      <glyph glyph-name="uni02DC" unicode="&#x02DC;" d="M788 1243Q745 1243 704 1261.50Q663 1280 623.50 1302.50Q584 1325 547.50 1343.50Q511 1362 477 1362Q427 1362 401.50 1332Q376 1302 362 1241L264 1241Q277 1362 334.50 1430.50Q392 1499 483 1499Q529 1499 572 1480.50Q615 1462 654 1439.50Q693 1417 729 1398.50Q765 1380 797 1380Q846 1380 870 1409.50Q894 1439 909 1501L1008 1501Q995 1380 938.50 1311.50Q882 1243 788 1243Z"  horiz-adv-x="1212" vert-adv-y="2048"  />

      
      <glyph glyph-name="uni0400" unicode="&#x0400;" d="M1016 0L201 0L201 1462L1016 1462L1016 1311L371 1311L371 840L977 840L977 690L371 690L371 152L1016 152L1016 0M746 1579L636 1579Q571 1631 482 1727Q393 1823 353 1886L353 1907L556 1907Q588 1838 645 1747.50Q702 1657 746 1604L746 1579Z"  horiz-adv-x="1139" vert-adv-y="2048"  />

      
      <glyph glyph-name="uni0401" unicode="&#x0401;" d="M1016 0L201 0L201 1462L1016 1462L1016 1311L371 1311L371 840L977 840L977 690L371 690L371 152L1016 152L1016 0M348 1731Q348 1783 374.50 1806Q401 1829 438 1829Q476 1829 503.50 1806Q531 1783 531 1731Q531 1681 503.50 1656.50Q476 1632 438 1632Q401 1632 374.50 1656.50Q348 1681 348 1731M729 1731Q729 1783 755.50 1806Q782 1829 819 1829Q856 1829 883.50 1806Q911 1783 911 1731Q911 1681 883.50 1656.50Q856 1632 819 1632Q782 1632 755.50 1656.50Q729 1681 729 1731Z"  horiz-adv-x="1139" vert-adv-y="2048"  />

      
      <glyph glyph-name="uni0402" unicode="&#x0402;" d="M975-20Q879-20 825 2L825 152Q880 133 971 133Q1072 133 1124 195Q1176 257 1176 369L1176 500Q1176 628 1110.50 684.50Q1045 741 905 741L524 741L524 0L354 0L354 1311L18 1311L18 1462L969 1462L969 1311L524 1311L524 893L920 893Q1125 893 1235.50 797.50Q1346 702 1346 524L1346 381Q1346 191 1248 85.50Q1150-20 975-20Z"  horiz-adv-x="1503" vert-adv-y="2048"  />

      
      <glyph glyph-name="uni0403" unicode="&#x0403;" d="M1016 1462L1016 1309L371 1309L371 0L201 0L201 1462L1016 1462M483 1604Q531 1666 586.50 1754Q642 1842 674 1907L876 1907L876 1886Q832 1821 745 1726Q658 1631 594 1579L483 1579L483 1604Z"  horiz-adv-x="1065" vert-adv-y="2048"  />

      
      <glyph glyph-name="uni0404" unicode="&#x0404;" d="M834 1331Q608 1331 473.50 1206Q339 1081 309 840L1032 840L1032 690L305 690Q315 416 448.50 273.50Q582 131 831 131Q993 131 1194 186L1194 37Q1033-20 807-20Q475-20 300 174Q125 368 125 733Q125 1084 313.50 1284.50Q502 1485 836 1485Q1073 1485 1251 1397L1180 1249Q1011 1331 834 1331Z"  horiz-adv-x="1309" vert-adv-y="2048"  />

      
      <glyph glyph-name="uni0405" unicode="&#x0405;" d="M1026 389Q1026 196 886 88Q746-20 506-20Q246-20 106 47L106 211Q196 173 302 151Q408 129 512 129Q682 129 768 193.50Q854 258 854 373Q854 449 823.50 497.50Q793 546 721.50 587Q650 628 504 680Q300 753 212.50 853Q125 953 125 1114Q125 1283 252 1383Q379 1483 588 1483Q806 1483 989 1403L936 1255Q755 1331 584 1331Q449 1331 373 1273Q297 1215 297 1112Q297 1036 325 987.50Q353 939 419.50 898.50Q486 858 623 809Q853 727 939.50 633Q1026 539 1026 389Z"  horiz-adv-x="1124" vert-adv-y="2048"  />

      
      <glyph glyph-name="uni0406" unicode="&#x0406;" d="M201 0L201 1462L371 1462L371 0L201 0Z"  horiz-adv-x="571" vert-adv-y="2048"  />

      
      <glyph glyph-name="uni0407" unicode="&#x0407;" d="M201 0L201 1462L371 1462L371 0L201 0M5 1731Q5 1783 31.50 1806Q58 1829 95 1829Q133 1829 160.50 1806Q188 1783 188 1731Q188 1681 160.50 1656.50Q133 1632 95 1632Q58 1632 31.50 1656.50Q5 1681 5 1731M386 1731Q386 1783 412.50 1806Q439 1829 476 1829Q513 1829 540.50 1806Q568 1783 568 1731Q568 1681 540.50 1656.50Q513 1632 476 1632Q439 1632 412.50 1656.50Q386 1681 386 1731Z"  horiz-adv-x="571" vert-adv-y="2048"  />

      
      <glyph glyph-name="uni0408" unicode="&#x0408;" d="M-12-385Q-106-385-160-358L-160-213Q-89-233-12-233Q87-233 138.50-173Q190-113 190 0L190 1462L360 1462L360 14Q360-176 264-280.50Q168-385-12-385Z"  horiz-adv-x="547" vert-adv-y="2048"  />

      
      <glyph glyph-name="uni0409" unicode="&#x0409;" d="M1827 426Q1827 220 1689.50 110Q1552 0 1292 0L965 0L965 1311L600 1311Q543 871 501 610Q459 349 419 223.50Q379 98 309.50 37.50Q240-23 133-23Q64-23 0 2L0 145Q50 119 113 119Q161 119 193.50 150Q226 181 247.50 232.50Q269 284 296.50 409Q324 534 358 757Q392 980 457 1462L1135 1462L1135 838L1257 838Q1827 838 1827 426M1135 147L1268 147Q1466 147 1557.50 216.50Q1649 286 1649 426Q1649 564 1553 626Q1457 688 1237 688L1135 688L1135 147Z"  horiz-adv-x="1903" vert-adv-y="2048"  />

      
      <glyph glyph-name="uni040A" unicode="&#x040A;" d="M1876 426Q1876 220 1740 110Q1604 0 1343 0L1014 0L1014 688L371 688L371 0L201 0L201 1462L371 1462L371 840L1014 840L1014 1462L1186 1462L1186 838L1307 838Q1876 838 1876 426M1186 147L1319 147Q1515 147 1607.50 216.50Q1700 286 1700 426Q1700 563 1603.50 625.50Q1507 688 1288 688L1186 688L1186 147Z"  horiz-adv-x="1952" vert-adv-y="2048"  />

      
      <glyph glyph-name="uni040B" unicode="&#x040B;" d="M524 893L924 893Q1129 893 1237.50 799Q1346 705 1346 524L1346 0L1176 0L1176 502Q1176 628 1113.50 684.50Q1051 741 911 741L524 741L524 0L354 0L354 1311L18 1311L18 1462L1032 1462L1032 1311L524 1311L524 893Z"  horiz-adv-x="1503" vert-adv-y="2048"  />

      
      <glyph glyph-name="uni040C" unicode="&#x040C;" d="M1253 0L1047 0L371 741L371 0L201 0L201 1462L371 1462L371 754L1030 1462L1225 1462L578 752L1253 0M555 1604Q603 1666 658.50 1754Q714 1842 746 1907L948 1907L948 1886Q904 1821 817 1726Q730 1631 666 1579L555 1579L555 1604Z"  horiz-adv-x="1253" vert-adv-y="2048"  />

      
      <glyph glyph-name="uni040D" unicode="&#x040D;" d="M203 1462L362 1462L362 649Q362 424 348 242L356 242L1176 1462L1362 1462L1362 0L1202 0L1202 805Q1202 1006 1219 1227L1210 1227L389 0L203 0L203 1462M890 1579L780 1579Q715 1631 626 1727Q537 1823 497 1886L497 1907L700 1907Q732 1838 789 1747.50Q846 1657 890 1604L890 1579Z"  horiz-adv-x="1561" vert-adv-y="2048"  />

      
      <glyph glyph-name="uni040E" unicode="&#x040E;" d="M293-20Q182-20 98 10L98 176Q191 133 287 133Q397 133 463.50 183.50Q530 234 596 373L27 1462L215 1462L647 631Q672 582 686 535L694 535Q722 619 733 641L1092 1462L1272 1462L805 416Q721 229 653.50 144Q586 59 501.50 19.50Q417-20 293-20M652 1579Q467 1579 382 1650.50Q297 1722 287 1886L443 1886Q452 1782 497.50 1741Q543 1700 656 1700Q759 1700 808.50 1744Q858 1788 869 1886L1026 1886Q1014 1728 925 1653.50Q836 1579 652 1579Z"  horiz-adv-x="1272" vert-adv-y="2048"  />

      
      <glyph glyph-name="uni040F" unicode="&#x040F;" d="M1292 0L827 0L827-381L651-381L651 0L201 0L201 1462L371 1462L371 154L1122 154L1122 1462L1292 1462L1292 0Z"  horiz-adv-x="1493" vert-adv-y="2048"  />

      
      <glyph glyph-name="uni0410" unicode="&#x0410;" d="M1120 0L938 465L352 465L172 0L0 0L578 1468L721 1468L1296 0L1120 0M885 618L715 1071Q682 1157 647 1282Q625 1186 584 1071L412 618L885 618Z"  horiz-adv-x="1296" vert-adv-y="2048"  />

      
      <glyph glyph-name="uni0411" unicode="&#x0411;" d="M1149 426Q1149 208 1019.50 104Q890 0 629 0L201 0L201 1462L1063 1462L1063 1311L371 1311L371 838L598 838Q791 838 912 793.50Q1033 749 1091 662Q1149 575 1149 426M371 147L610 147Q800 147 886.50 212Q973 277 973 426Q973 568 885 628Q797 688 578 688L371 688L371 147Z"  horiz-adv-x="1255" vert-adv-y="2048"  />

      
      <glyph glyph-name="uni0412" unicode="&#x0412;" d="M201 1462L614 1462Q905 1462 1035 1375Q1165 1288 1165 1100Q1165 970 1092.50 885.50Q1020 801 881 776L881 766Q1214 709 1214 416Q1214 220 1081.50 110Q949 0 711 0L201 0L201 1462M371 836L651 836Q831 836 910 892.50Q989 949 989 1083Q989 1206 901 1260.50Q813 1315 621 1315L371 1315L371 836M371 692L371 145L676 145Q853 145 942.50 213.50Q1032 282 1032 428Q1032 564 940.50 628Q849 692 662 692L371 692Z"  horiz-adv-x="1327" vert-adv-y="2048"  />

      
      <glyph glyph-name="uni0413" unicode="&#x0413;" d="M1016 1462L1016 1309L371 1309L371 0L201 0L201 1462L1016 1462Z"  horiz-adv-x="1065" vert-adv-y="2048"  />

      
      <glyph glyph-name="uni0414" unicode="&#x0414;" d="M1354-381L1192-381L1192 0L176 0L176-381L14-381L14 154L127 154Q281 413 390.50 784Q500 1155 512 1462L1169 1462L1169 154L1354 154L1354-381M999 154L999 1309L666 1309Q648 1067 545 727.50Q442 388 305 154L999 154Z"  horiz-adv-x="1399" vert-adv-y="2048"  />

      
      <glyph glyph-name="uni0415" unicode="&#x0415;" d="M1016 0L201 0L201 1462L1016 1462L1016 1311L371 1311L371 840L977 840L977 690L371 690L371 152L1016 152L1016 0Z"  horiz-adv-x="1139" vert-adv-y="2048"  />

      
      <glyph glyph-name="uni0416" unicode="&#x0416;" d="M598 752L23 1462L213 1462L782 754L782 1462L946 1462L946 754L1516 1462L1706 1462L1130 754L1724 0L1528 0L946 741L946 0L782 0L782 741L201 0L2 0L598 752Z"  horiz-adv-x="1729" vert-adv-y="2048"  />

      
      <glyph glyph-name="uni0417" unicode="&#x0417;" d="M1049 1120Q1049 976 957.50 886Q866 796 705 772L705 764Q888 739 982.50 649Q1077 559 1077 414Q1077 209 924 94.50Q771-20 492-20Q237-20 74 59L74 217Q170 171 281.50 146Q393 121 496 121Q694 121 795.50 196Q897 271 897 412Q897 546 784.50 615Q672 684 449 684L231 684L231 827L440 827Q645 827 757.50 900.50Q870 974 870 1106Q870 1213 789 1277Q708 1341 571 1341Q461 1341 372 1316Q283 1291 166 1217L82 1331Q183 1406 308.50 1444.50Q434 1483 569 1483Q794 1483 921.50 1384.50Q1049 1286 1049 1120Z"  horiz-adv-x="1190" vert-adv-y="2048"  />

      
      <glyph glyph-name="uni0418" unicode="&#x0418;" d="M203 1462L362 1462L362 649Q362 424 348 242L356 242L1176 1462L1362 1462L1362 0L1202 0L1202 805Q1202 1006 1219 1227L1210 1227L389 0L203 0L203 1462Z"  horiz-adv-x="1561" vert-adv-y="2048"  />

      
      <glyph glyph-name="uni0419" unicode="&#x0419;" d="M203 1462L362 1462L362 649Q362 424 348 242L356 242L1176 1462L1362 1462L1362 0L1202 0L1202 805Q1202 1006 1219 1227L1210 1227L389 0L203 0L203 1462M809 1579Q624 1579 539 1650.50Q454 1722 444 1886L600 1886Q609 1782 654.50 1741Q700 1700 813 1700Q916 1700 965.50 1744Q1015 1788 1026 1886L1183 1886Q1171 1728 1082 1653.50Q993 1579 809 1579Z"  horiz-adv-x="1561" vert-adv-y="2048"  />

      
      <glyph glyph-name="uni041A" unicode="&#x041A;" d="M1253 0L1047 0L371 741L371 0L201 0L201 1462L371 1462L371 754L1030 1462L1225 1462L578 752L1253 0Z"  horiz-adv-x="1253" vert-adv-y="2048"  />

      
      <glyph glyph-name="uni041B" unicode="&#x041B;" d="M1241 0L1071 0L1071 1311L596 1311L565 1071Q504 592 457.50 370.50Q411 149 335 62Q259-25 133-23Q59-23 0 2L0 145Q54 119 113 119Q166 119 205.50 162.50Q245 206 275.50 313.50Q306 421 352.50 721.50Q399 1022 455 1462L1241 1462L1241 0Z"  horiz-adv-x="1442" vert-adv-y="2048"  />

      
      <glyph glyph-name="uni041C" unicode="&#x041C;" d="M848 0L352 1296L344 1296Q358 1142 358 930L358 0L201 0L201 1462L457 1462L920 256L928 256L1395 1462L1649 1462L1649 0L1479 0L1479 942Q1479 1104 1493 1294L1485 1294L985 0L848 0Z"  horiz-adv-x="1849" vert-adv-y="2048"  />

      
      <glyph glyph-name="uni041D" unicode="&#x041D;" d="M1311 0L1141 0L1141 688L371 688L371 0L201 0L201 1462L371 1462L371 840L1141 840L1141 1462L1311 1462L1311 0Z"  horiz-adv-x="1511" vert-adv-y="2048"  />

      
      <glyph glyph-name="uni041E" unicode="&#x041E;" d="M1470 733Q1470 382 1292.50 181Q1115-20 799-20Q476-20 300.50 177.50Q125 375 125 735Q125 1092 301 1288.50Q477 1485 801 1485Q1116 1485 1293 1285Q1470 1085 1470 733M305 733Q305 436 431.50 282.50Q558 129 799 129Q1042 129 1166 282Q1290 435 1290 733Q1290 1028 1166.50 1180.50Q1043 1333 801 1333Q558 1333 431.50 1179.50Q305 1026 305 733Z"  horiz-adv-x="1595" vert-adv-y="2048"  />

      
      <glyph glyph-name="uni041F" unicode="&#x041F;" d="M1292 0L1122 0L1122 1311L371 1311L371 0L201 0L201 1462L1292 1462L1292 0Z"  horiz-adv-x="1493" vert-adv-y="2048"  />

      
      <glyph glyph-name="uni0420" unicode="&#x0420;" d="M1128 1036Q1128 814 976.50 694.50Q825 575 543 575L371 575L371 0L201 0L201 1462L580 1462Q1128 1462 1128 1036M371 721L524 721Q750 721 851 794Q952 867 952 1028Q952 1173 857 1244Q762 1315 561 1315L371 1315L371 721Z"  horiz-adv-x="1233" vert-adv-y="2048"  />

      
      <glyph glyph-name="uni0421" unicode="&#x0421;" d="M827 1331Q586 1331 446.50 1170.50Q307 1010 307 731Q307 444 441.50 287.50Q576 131 825 131Q978 131 1174 186L1174 37Q1022-20 799-20Q476-20 300.50 176Q125 372 125 733Q125 959 209.50 1129Q294 1299 453.50 1391Q613 1483 829 1483Q1059 1483 1231 1399L1159 1253Q993 1331 827 1331Z"  horiz-adv-x="1292" vert-adv-y="2048"  />

      
      <glyph glyph-name="uni0422" unicode="&#x0422;" d="M651 0L481 0L481 1311L18 1311L18 1462L1114 1462L1114 1311L651 1311L651 0Z"  horiz-adv-x="1133" vert-adv-y="2048"  />

      
      <glyph glyph-name="uni0423" unicode="&#x0423;" d="M293-20Q182-20 98 10L98 176Q191 133 287 133Q397 133 463.50 183.50Q530 234 596 373L27 1462L215 1462L647 631Q672 582 686 535L694 535Q722 619 733 641L1092 1462L1272 1462L805 416Q721 229 653.50 144Q586 59 501.50 19.50Q417-20 293-20Z"  horiz-adv-x="1272" vert-adv-y="2048"  />

      
      <glyph glyph-name="uni0424" unicode="&#x0424;" d="M731 1483L903 1483L903 1303L973 1303Q1144 1303 1269.50 1235Q1395 1167 1461.50 1043Q1528 919 1528 760Q1528 594 1453.50 464.50Q1379 335 1249.50 270Q1120 205 944 205L903 205L903-20L731-20L731 205L686 205Q510 205 381 271Q252 337 179 467Q106 597 106 758Q106 916 173.50 1040Q241 1164 367 1233.50Q493 1303 664 1303L731 1303L731 1483M903 348L928 348Q1129 348 1240.50 457.50Q1352 567 1352 762Q1352 947 1249 1052Q1146 1157 961 1157L903 1157L903 348M731 1157L674 1157Q492 1157 387.50 1051Q283 945 283 762Q283 565 394 456.50Q505 348 707 348L731 348L731 1157Z"  horiz-adv-x="1634" vert-adv-y="2048"  />

      
      <glyph glyph-name="uni0425" unicode="&#x0425;" d="M1174 0L981 0L588 643L188 0L8 0L494 764L41 1462L229 1462L592 883L958 1462L1139 1462L686 770L1174 0Z"  horiz-adv-x="1182" vert-adv-y="2048"  />

      
      <glyph glyph-name="uni0426" unicode="&#x0426;" d="M1292 154L1464 154L1464-381L1303-381L1303 0L201 0L201 1462L371 1462L371 154L1122 154L1122 1462L1292 1462L1292 154Z"  horiz-adv-x="1509" vert-adv-y="2048"  />

      
      <glyph glyph-name="uni0427" unicode="&#x0427;" d="M1223 0L1053 0L1053 604Q904 551 805 531.50Q706 512 600 512Q393 512 281.50 607Q170 702 170 881L170 1462L340 1462L340 901Q340 780 403.50 722Q467 664 610 664Q707 664 795.50 678.50Q884 693 1053 748L1053 1462L1223 1462L1223 0Z"  horiz-adv-x="1423" vert-adv-y="2048"  />

      
      <glyph glyph-name="uni0428" unicode="&#x0428;" d="M1913 0L201 0L201 1462L371 1462L371 154L971 154L971 1462L1141 1462L1141 154L1741 154L1741 1462L1913 1462L1913 0Z"  horiz-adv-x="2114" vert-adv-y="2048"  />

      
      <glyph glyph-name="uni0429" unicode="&#x0429;" d="M201 0L201 1462L371 1462L371 154L954 154L954 1462L1126 1462L1126 154L1710 154L1710 1462L1880 1462L1880 154L2052 154L2052-381L1890-381L1890 0L201 0Z"  horiz-adv-x="2116" vert-adv-y="2048"  />

      
      <glyph glyph-name="uni042A" unicode="&#x042A;" d="M1303 426Q1303 220 1173.50 110Q1044 0 795 0L354 0L354 1311L18 1311L18 1462L524 1462L524 838L768 838Q1029 838 1166 735.50Q1303 633 1303 426M524 147L776 147Q957 147 1041.50 216.50Q1126 286 1126 426Q1126 562 1038.50 625Q951 688 748 688L524 688L524 147Z"  horiz-adv-x="1409" vert-adv-y="2048"  />

      
      <glyph glyph-name="uni042B" unicode="&#x042B;" d="M201 0L201 1462L371 1462L371 838L610 838Q871 838 1008 735.50Q1145 633 1145 426Q1145 220 1015.50 110Q886 0 637 0L201 0M371 145L618 145Q799 145 884 215.50Q969 286 969 426Q969 563 879.50 624.50Q790 686 590 686L371 686L371 145M1546 0L1376 0L1376 1462L1546 1462L1546 0Z"  horiz-adv-x="1747" vert-adv-y="2048"  />

      
      <glyph glyph-name="uni042C" unicode="&#x042C;" d="M1210 426Q1210 223 1074.50 111.50Q939 0 688 0L201 0L201 1462L371 1462L371 838L662 838Q929 838 1069.50 732.50Q1210 627 1210 426M371 147L670 147Q1034 147 1034 426Q1034 561 940.50 624.50Q847 688 641 688L371 688L371 147Z"  horiz-adv-x="1317" vert-adv-y="2048"  />

      
      <glyph glyph-name="uni042D" unicode="&#x042D;" d="M467 1331Q295 1331 133 1255L61 1399Q233 1483 469 1483Q686 1483 842.50 1395Q999 1307 1080 1144Q1161 981 1161 760Q1161 384 979 182Q797-20 455-20Q228-20 72 37L72 186Q155 165 241 148Q327 131 426 131Q697 131 835 275.50Q973 420 981 692L262 692L262 844L979 844Q957 1073 821.50 1202Q686 1331 467 1331Z"  horiz-adv-x="1290" vert-adv-y="2048"  />

      
      <glyph glyph-name="uni042E" unicode="&#x042E;" d="M2023 733Q2023 379 1852.50 179.50Q1682-20 1378-20Q1077-20 906.50 163.50Q736 347 725 688L371 688L371 0L201 0L201 1462L371 1462L371 840L727 840Q750 1151 918.50 1318Q1087 1485 1374 1485Q1681 1485 1852 1284.50Q2023 1084 2023 733M903 733Q903 437 1022 283Q1141 129 1372 129Q1606 129 1724.50 282Q1843 435 1843 733Q1843 1031 1725.50 1182Q1608 1333 1376 1333Q1143 1333 1023 1180.50Q903 1028 903 733Z"  horiz-adv-x="2150" vert-adv-y="2048"  />

      
      <glyph glyph-name="uni042F" unicode="&#x042F;" d="M635 610L252 0L51 0L461 639Q300 690 227 793.50Q154 897 154 1055Q154 1251 289.50 1356.50Q425 1462 700 1462L1102 1462L1102 0L932 0L932 610L635 610M932 1315L705 1315Q522 1315 427 1252Q332 1189 332 1047Q332 756 711 756L932 756L932 1315Z"  horiz-adv-x="1303" vert-adv-y="2048"  />

      
      <glyph glyph-name="uni0430" unicode="&#x0430;" d="M850 0L817 156L809 156Q727 53 645.50 16.50Q564-20 442-20Q279-20 186.50 64Q94 148 94 303Q94 635 625 651L811 657L811 725Q811 854 755.50 915.50Q700 977 578 977Q441 977 268 893L217 1020Q298 1064 394.50 1089Q491 1114 588 1114Q784 1114 878.50 1027Q973 940 973 748L973 0L850 0M475 117Q630 117 718.50 202Q807 287 807 440L807 539L641 532Q443 525 355.50 470.50Q268 416 268 301Q268 211 322.50 164Q377 117 475 117Z"  horiz-adv-x="1139" vert-adv-y="2048"  />

      
      <glyph glyph-name="uni0431" unicode="&#x0431;" d="M119 657Q119 1017 225 1218.50Q331 1420 561 1470Q847 1531 1065 1569L1096 1423Q749 1365 600 1331Q455 1298 382.50 1175Q310 1052 303 840L315 840Q377 924 475 972Q573 1020 680 1020Q882 1020 995 889Q1108 758 1108 526Q1108 269 977 124.50Q846-20 612-20Q381-20 250 157Q119 334 119 657M627 119Q932 119 932 508Q932 879 655 879Q579 879 508.50 847.50Q438 816 379.50 764Q321 712 289 657Q289 394 372 256.50Q455 119 627 119Z"  horiz-adv-x="1221" vert-adv-y="2048"  />

      
      <glyph glyph-name="uni0432" unicode="&#x0432;" d="M1065 821Q1065 714 1003.50 658.50Q942 603 831 584L831 575Q971 556 1035.50 493Q1100 430 1100 319Q1100 166 987.50 83Q875 0 659 0L176 0L176 1096L657 1096Q1065 1096 1065 821M934 330Q934 419 866.50 459.50Q799 500 643 500L342 500L342 139L647 139Q934 139 934 330M903 805Q903 885 841.50 918.50Q780 952 655 952L342 952L342 643L623 643Q777 643 840 681Q903 719 903 805Z"  horiz-adv-x="1165" vert-adv-y="2048"  />

      
      <glyph glyph-name="uni0433" unicode="&#x0433;" d="M836 954L342 954L342 0L176 0L176 1096L836 1096L836 954Z"  horiz-adv-x="877" vert-adv-y="2048"  />

      
      <glyph glyph-name="uni0434" unicode="&#x0434;" d="M1128-379L967-379L967 0L201 0L201-379L41-379L41 143L127 143Q261 325 337 570Q413 815 416 1096L971 1096L971 143L1128 143L1128-379M811 143L811 965L565 965Q552 743 479.50 515.50Q407 288 299 143L811 143Z"  horiz-adv-x="1171" vert-adv-y="2048"  />

      
      <glyph glyph-name="uni0435" unicode="&#x0435;" d="M639-20Q396-20 255.50 128Q115 276 115 539Q115 804 245.50 960Q376 1116 596 1116Q802 1116 922 980.50Q1042 845 1042 623L1042 518L287 518Q292 325 384.50 225Q477 125 645 125Q822 125 995 199L995 51Q907 13 828.50-3.50Q750-20 639-20M594 977Q462 977 383.50 891Q305 805 291 653L864 653Q864 810 794 893.50Q724 977 594 977Z"  horiz-adv-x="1149" vert-adv-y="2048"  />

      
      <glyph glyph-name="uni0436" unicode="&#x0436;" d="M676 1094L829 1094L829 563L1282 1094L1464 1094L1006 563L1503 0L1311 0L829 555L829 0L676 0L676 555L195 0L4 0L500 563L43 1094L225 1094L676 563L676 1094Z"  horiz-adv-x="1507" vert-adv-y="2048"  />

      
      <glyph glyph-name="uni0437" unicode="&#x0437;" d="M385 641Q696 641 696 813Q696 975 444 975Q367 975 304 961Q241 947 139 905L80 1040Q250 1116 451 1116Q640 1116 749 1038.50Q858 961 858 827Q858 643 653 586L653 578Q779 541 837 472.50Q895 404 895 301Q895 149 772.50 64.50Q650-20 434-20Q197-20 68 51L68 203Q251 117 438 117Q582 117 655.50 166.50Q729 216 729 309Q729 500 418 500L266 500L266 641L385 641Z"  horiz-adv-x="989" vert-adv-y="2048"  />

      
      <glyph glyph-name="uni0438" unicode="&#x0438;" d="M332 1096L332 401L325 219L322 162L915 1096L1122 1096L1122 0L967 0L967 670L970 802L975 932L383 0L176 0L176 1096L332 1096Z"  horiz-adv-x="1298" vert-adv-y="2048"  />

      
      </font>
</defs>
</svg>
