<svg xmlns="http://www.w3.org/2000/svg" width="41" height="41" viewBox="0 0 41 41"><defs><linearGradient id="f823a" x1=".67" x2="40.67" y1=".19" y2="40" gradientUnits="userSpaceOnUse"><stop offset="0" stop-color="#fff"/><stop offset="1" stop-color="#fff"/></linearGradient></defs><g><g><path fill="url(#f823a)" d="M20.711 25.657c-3.06 0-5.55-2.494-5.55-5.565 0-3.07 2.49-5.563 5.55-5.563 3.057 0 5.544 2.494 5.544 5.563 0 3.071-2.487 5.565-5.544 5.565zm0-9.686a4.12 4.12 0 0 0-4.111 4.12 4.122 4.122 0 0 0 4.111 4.124c2.263 0 4.106-1.851 4.106-4.123 0-2.272-1.843-4.121-4.106-4.121zm-3.114 23.673L16.36 34.68a15.521 15.521 0 0 1-2.832-1.205l-4.401 2.65a.722.722 0 0 1-.877-.107l-3.42-3.43a.72.72 0 0 1-.106-.88l2.641-4.407c-.49-.912-.885-1.86-1.177-2.838l-4.975-1.247a.724.724 0 0 1-.546-.698v-4.844a.72.72 0 0 1 .546-.7l4.946-1.238c.303-.976.708-1.93 1.204-2.845L4.72 8.478a.725.725 0 0 1 .107-.882l3.414-3.423a.71.71 0 0 1 .88-.108l4.4 2.646a15.222 15.222 0 0 1 2.827-1.177l1.243-4.99a.721.721 0 0 1 .697-.547h4.831c.33 0 .619.226.697.547l1.237 4.966c.971.304 1.922.708 2.83 1.198l4.406-2.651a.735.735 0 0 1 .877.11l3.414 3.424c.235.233.28.596.11.882l-2.642 4.42c.486.905.88 1.855 1.172 2.825l4.98 1.252a.719.719 0 0 1 .546.7v4.84c0 .329-.225.62-.546.698l-4.98 1.25c-.292.981-.686 1.93-1.17 2.83l2.645 4.416c.17.286.125.649-.11.882l-3.414 3.43a.73.73 0 0 1-.877.11l-4.406-2.653c-.908.497-1.858.898-2.832 1.205l-1.232 4.963a.721.721 0 0 1-.7.545l-4.831.003a.722.722 0 0 1-.697-.545zm-4.082-7.722c.122 0 .248.031.36.096a14.18 14.18 0 0 0 3.278 1.39c.248.07.439.273.504.523l1.2 4.815 3.707-.003 1.198-4.817a.721.721 0 0 1 .501-.518 14.243 14.243 0 0 0 3.279-1.391.714.714 0 0 1 .728.003l4.281 2.58 2.623-2.635-2.57-4.29a.73.73 0 0 1-.009-.733 13.642 13.642 0 0 0 1.355-3.27.717.717 0 0 1 .52-.509l4.839-1.217v-3.714l-4.84-1.216a.714.714 0 0 1-.519-.51 13.893 13.893 0 0 0-1.355-3.272.729.729 0 0 1 .008-.73l2.566-4.29-2.62-2.628-4.281 2.576a.703.703 0 0 1-.729.006 14.398 14.398 0 0 0-3.278-1.392.713.713 0 0 1-.501-.517l-1.2-4.82h-3.707l-1.209 4.848a.72.72 0 0 1-.509.52c-1.135.31-2.234.768-3.268 1.362a.7.7 0 0 1-.728-.007L8.863 5.588l-2.62 2.631 2.566 4.285a.722.722 0 0 1 .005.732 14.468 14.468 0 0 0-1.389 3.293.72.72 0 0 1-.52.506l-4.8 1.203v3.715l4.835 1.215a.718.718 0 0 1 .52.511 13.785 13.785 0 0 0 1.36 3.275.72.72 0 0 1-.009.732L6.245 31.97l2.624 2.632 4.275-2.576a.715.715 0 0 1 .37-.104z"/><path fill="#ff3b4a" d="M20.711 25.657c-3.06 0-5.55-2.494-5.55-5.565 0-3.07 2.49-5.563 5.55-5.563 3.057 0 5.544 2.494 5.544 5.563 0 3.071-2.487 5.565-5.544 5.565zm0-9.686a4.12 4.12 0 0 0-4.111 4.12 4.122 4.122 0 0 0 4.111 4.124c2.263 0 4.106-1.851 4.106-4.123 0-2.272-1.843-4.121-4.106-4.121zm-3.114 23.673L16.36 34.68a15.521 15.521 0 0 1-2.832-1.205l-4.401 2.65a.722.722 0 0 1-.877-.107l-3.42-3.43a.72.72 0 0 1-.106-.88l2.641-4.407c-.49-.912-.885-1.86-1.177-2.838l-4.975-1.247a.724.724 0 0 1-.546-.698v-4.844a.72.72 0 0 1 .546-.7l4.946-1.238c.303-.976.708-1.93 1.204-2.845L4.72 8.478a.725.725 0 0 1 .107-.882l3.414-3.423a.71.71 0 0 1 .88-.108l4.4 2.646a15.222 15.222 0 0 1 2.827-1.177l1.243-4.99a.721.721 0 0 1 .697-.547h4.831c.33 0 .619.226.697.547l1.237 4.966c.971.304 1.922.708 2.83 1.198l4.406-2.651a.735.735 0 0 1 .877.11l3.414 3.424c.235.233.28.596.11.882l-2.642 4.42c.486.905.88 1.855 1.172 2.825l4.98 1.252a.719.719 0 0 1 .546.7v4.84c0 .329-.225.62-.546.698l-4.98 1.25c-.292.981-.686 1.93-1.17 2.83l2.645 4.416c.17.286.125.649-.11.882l-3.414 3.43a.73.73 0 0 1-.877.11l-4.406-2.653c-.908.497-1.858.898-2.832 1.205l-1.232 4.963a.721.721 0 0 1-.7.545l-4.831.003a.722.722 0 0 1-.697-.545zm-4.082-7.722c.122 0 .248.031.36.096a14.18 14.18 0 0 0 3.278 1.39c.248.07.439.273.504.523l1.2 4.815 3.707-.003 1.198-4.817a.721.721 0 0 1 .501-.518 14.243 14.243 0 0 0 3.279-1.391.714.714 0 0 1 .728.003l4.281 2.58 2.623-2.635-2.57-4.29a.73.73 0 0 1-.009-.733 13.642 13.642 0 0 0 1.355-3.27.717.717 0 0 1 .52-.509l4.839-1.217v-3.714l-4.84-1.216a.714.714 0 0 1-.519-.51 13.893 13.893 0 0 0-1.355-3.272.729.729 0 0 1 .008-.73l2.566-4.29-2.62-2.628-4.281 2.576a.703.703 0 0 1-.729.006 14.398 14.398 0 0 0-3.278-1.392.713.713 0 0 1-.501-.517l-1.2-4.82h-3.707l-1.209 4.848a.72.72 0 0 1-.509.52c-1.135.31-2.234.768-3.268 1.362a.7.7 0 0 1-.728-.007L8.863 5.588l-2.62 2.631 2.566 4.285a.722.722 0 0 1 .005.732 14.468 14.468 0 0 0-1.389 3.293.72.72 0 0 1-.52.506l-4.8 1.203v3.715l4.835 1.215a.718.718 0 0 1 .52.511 13.785 13.785 0 0 0 1.36 3.275.72.72 0 0 1-.009.732L6.245 31.97l2.624 2.632 4.275-2.576a.715.715 0 0 1 .37-.104z"/></g></g></svg>