<svg xmlns="http://www.w3.org/2000/svg" width="40" height="38" viewBox="0 0 40 38"><defs><linearGradient id="jmkqa" x1="1.49" x2="38.75" y1=".16" y2="37.16" gradientUnits="userSpaceOnUse"><stop offset="0" stop-color="#fff"/><stop offset="1" stop-color="#fff"/></linearGradient></defs><g><g><path fill="url(#jmkqa)" d="M39.481 13.975L21.996 29.938l-2.065 1.885a.858.858 0 0 1-.346.19l-12.65 3.588-5.378 1.524a.83.83 0 0 1-.846-.236.835.835 0 0 1-.163-.863l2.007-5.216L7.257 18.6c.01-.025.019-.053.028-.073a.857.857 0 0 1 .26-.345l2.02-1.843L27.053.377a.834.834 0 0 1 .925-.139 23.148 23.148 0 0 1 7.113 5.27 23.15 23.15 0 0 1 4.609 7.559.836.836 0 0 1-.219.908zM2.706 35.065l2.878-.818c-.015-.037-.024-.08-.046-.113a4.635 4.635 0 0 0-.685-1.03c-.276-.306-.61-.554-.967-.779-.034-.017-.073-.03-.106-.052zm17.543-5.797l-9.114-9.975-1.058-1.156-1.31 1.189-4.372 11.351c.07.037.112.1.182.14.561.324 1.083.694 1.51 1.16.425.466.749 1.019 1.019 1.606.036.07.094.125.127.197l11.713-3.322zm17.683-16.14a21.456 21.456 0 0 0-4.075-6.49 21.337 21.337 0 0 0-6.1-4.645L11.31 17.005l2.641 2.894L27.851 7.213a.843.843 0 0 1 1.182.052.837.837 0 0 1-.054 1.182L15.083 21.13l2.083 2.284.543.598L31.61 11.327a.836.836 0 0 1 1.128 1.235L18.837 25.245l2.646 2.896z"/><path fill="#ff3b4a" d="M39.481 13.975L21.996 29.938l-2.065 1.885a.858.858 0 0 1-.346.19l-12.65 3.588-5.378 1.524a.83.83 0 0 1-.846-.236.835.835 0 0 1-.163-.863l2.007-5.216L7.257 18.6c.01-.025.019-.053.028-.073a.857.857 0 0 1 .26-.345l2.02-1.843L27.053.377a.834.834 0 0 1 .925-.139 23.148 23.148 0 0 1 7.113 5.27 23.15 23.15 0 0 1 4.609 7.559.836.836 0 0 1-.219.908zM2.706 35.065l2.878-.818c-.015-.037-.024-.08-.046-.113a4.635 4.635 0 0 0-.685-1.03c-.276-.306-.61-.554-.967-.779-.034-.017-.073-.03-.106-.052zm17.543-5.797l-9.114-9.975-1.058-1.156-1.31 1.189-4.372 11.351c.07.037.112.1.182.14.561.324 1.083.694 1.51 1.16.425.466.749 1.019 1.019 1.606.036.07.094.125.127.197l11.713-3.322zm17.683-16.14a21.456 21.456 0 0 0-4.075-6.49 21.337 21.337 0 0 0-6.1-4.645L11.31 17.005l2.641 2.894L27.851 7.213a.843.843 0 0 1 1.182.052.837.837 0 0 1-.054 1.182L15.083 21.13l2.083 2.284.543.598L31.61 11.327a.836.836 0 0 1 1.128 1.235L18.837 25.245l2.646 2.896z"/></g></g></svg>